<svg xmlns="http://www.w3.org/2000/svg" xmlns:xlink="http://www.w3.org/1999/xlink" width="295" height="157.179" viewBox="0 0 295 157.179">
  <defs>
    <clipPath id="clip-path">
      <rect id="Rectángulo_406454" data-name="Rectángulo 406454" width="295" height="157.179" fill="none"/>
    </clipPath>
    <clipPath id="clip-path-3">
      <rect id="Rectángulo_406442" data-name="Rectángulo 406442" width="2.999" height="21.004" fill="none"/>
    </clipPath>
    <clipPath id="clip-path-4">
      <rect id="Rectángulo_406443" data-name="Rectángulo 406443" width="17.074" height="8.665" fill="none"/>
    </clipPath>
    <clipPath id="clip-path-5">
      <rect id="Rectángulo_406444" data-name="Rectángulo 406444" width="2.318" height="15.866" fill="none"/>
    </clipPath>
    <clipPath id="clip-path-6">
      <rect id="Rectángulo_406445" data-name="Rectángulo 406445" width="11.699" height="10.698" fill="none"/>
    </clipPath>
    <clipPath id="clip-path-10">
      <rect id="Rectángulo_406449" data-name="Rectángulo 406449" width="11.7" height="10.698" fill="none"/>
    </clipPath>
    <clipPath id="clip-path-11">
      <rect id="Rectángulo_406450" data-name="Rectángulo 406450" width="10.355" height="37.045" fill="none"/>
    </clipPath>
    <clipPath id="clip-path-12">
      <rect id="Rectángulo_406451" data-name="Rectángulo 406451" width="13.091" height="7.791" fill="none"/>
    </clipPath>
  </defs>
  <g id="Grupo_1113145" data-name="Grupo 1113145" transform="translate(-285.051 -913)">
    <path id="Rectángulo_406347" data-name="Rectángulo 406347" d="M9,0H216a9,9,0,0,1,9,9V151a0,0,0,0,1,0,0H0a0,0,0,0,1,0,0V9A9,9,0,0,1,9,0Z" transform="translate(320.051 919)" fill="#ac9b59"/>
    <g id="Grupo_1113073" data-name="Grupo 1113073">
      <g id="Grupo_1113072" data-name="Grupo 1113072" transform="translate(285.051 913)">
        <g id="Grupo_1113071" data-name="Grupo 1113071" clip-path="url(#clip-path)">
          <g id="Grupo_1113053" data-name="Grupo 1113053">
            <g id="Grupo_1113052" data-name="Grupo 1113052" clip-path="url(#clip-path)">
              <path id="Trazado_979151" data-name="Trazado 979151" d="M404.629,177.431s4.835-4.068,5.247-6.062l1.016-11.88s-.406-1.312-1.884.386c-1.356,1.557-1.412,4.421-1.412,4.421l-1.252,2.564L405.4,164.5l.129-8.058s.224-5.794-.769-5.405-1.6,1.954-1.7,4.454l-.219,5.672s-.1.973-.641-.819-.029-8.736-.174-9.719.254-3.411-1.144-3.587-1.279,3.066-1.279,3.066l-.884,10.228s-.4-4.281-.494-5.018.01-3-.184-4.293-.757-2.064-1.382-2.125a1.168,1.168,0,0,0-1.326.9l.149,8.946s.268,4.125.137,4.353-1.146-1.948-1.146-1.948l-.48-3s-.039-4.11-1.064-4.455-1.239.441-1.239.441l.137,7.519,1.37,8.788,1.631,6.782s4.318.278,4.43.527,5.373-.322,5.373-.322" transform="translate(-216.615 -81.314)" fill="#ffbe9d"/>
              <path id="Trazado_979152" data-name="Trazado 979152" d="M405.794,193.707a12.483,12.483,0,0,0,1.258-1.6,6.409,6.409,0,0,1,3.825-2.61,3.439,3.439,0,0,1,2.228.318l.226.126.12-.254c.531-1.122,1.142-2.131,1.482-2.839.365-.709.522-1.169.461-1.19a6.589,6.589,0,0,0-.719,1.043A32.473,32.473,0,0,0,413,189.519l.346-.129a3.794,3.794,0,0,0-2.55-.407,5.262,5.262,0,0,0-2.538,1.2,8.4,8.4,0,0,0-1.5,1.7,5.985,5.985,0,0,0-.964,1.82" transform="translate(-224.413 -102.672)" fill="#eb996e"/>
              <path id="Trazado_979153" data-name="Trazado 979153" d="M406.928,211.506l5.151,26.766,4.873,17.434a17.445,17.445,0,0,1-8.843,4.712c-8.634.662-11.6-7.114-11.986-10.977-.715-7.107.965-39.092.965-39.092Z" transform="translate(-218.97 -116.33)" fill="#ffbe9d"/>
              <path id="Trazado_979154" data-name="Trazado 979154" d="M542.954,169.043l-9.525-1.837L515.158,171.4l-9.261,1.932-.131,12.655,20.657,3.805,13.94-4.13,5.27-7.754Z" transform="translate(-279.704 -92.47)" fill="#ffbe9d"/>
              <path id="Trazado_979155" data-name="Trazado 979155" d="M536.3,171.515l-8.989-2.118s-6.355,19.647-22.04,18.8c-12.783-.689-12.8-13.659-12.8-13.659l-9.346,1.652s-3.919,23.728.378,40.372c3.574,13.852,5.712,33.864,5.712,33.864l63.361.152Z" transform="translate(-266.281 -93.682)" fill="#336973"/>
              <path id="Trazado_979156" data-name="Trazado 979156" d="M444.163,189.983c5.044-6.3,9.071-5.576,9.071-5.576l2.712,30.224L433.909,242.5l-8.965-22.939s14.611-23.821,19.219-29.581" transform="translate(-235.007 -101.969)" fill="#336973"/>
              <path id="Trazado_979157" data-name="Trazado 979157" d="M597.021,173.569s14.554,1.166,19.776,25.01C619.159,209.364,622.143,222,623,230.5c.624,6.161-2.725,15.808-8.867,16.6l-10.073,1.378c-4.805.071-7.421-4.348-8.432-8.533l-2.254-7.116c-1.156-8.133,5.072-8.029,8.554-7.954l-2.6-30.887Z" transform="translate(-328.077 -95.989)" fill="#336973"/>
              <path id="Trazado_979158" data-name="Trazado 979158" d="M481.672,221.91a1.817,1.817,0,0,0-.067.333c-.037.242-.086.561-.147.961l-.1.7q-.04.386-.084.831c-.06.6-.133,1.276-.164,2.031a50.07,50.07,0,0,0-.036,5.3,63.847,63.847,0,0,0,.644,6.463c.334,2.28.755,4.436,1.182,6.385s.848,3.7,1.211,5.16.677,2.643.9,3.457l.26.936a1.887,1.887,0,0,0,.106.322,1.8,1.8,0,0,0-.06-.334l-.218-.946c-.2-.845-.483-2.026-.828-3.474-.341-1.468-.754-3.215-1.161-5.166s-.828-4.1-1.161-6.374-.565-4.451-.66-6.439-.1-3.782-.014-5.285c.021-.753.082-1.431.13-2.027l.065-.831q.043-.379.08-.7l.1-.965a1.835,1.835,0,0,0,.02-.339" transform="translate(-266.021 -122.723)" fill="#263238"/>
              <path id="Trazado_979159" data-name="Trazado 979159" d="M624.072,296.652a2.654,2.654,0,0,0-.115-.6,9.607,9.607,0,0,0-.562-1.569,10.7,10.7,0,0,0-8.542-6.217,9.589,9.589,0,0,0-1.665-.053,2.619,2.619,0,0,0-.606.075,21.939,21.939,0,0,1,2.25.141,11.01,11.01,0,0,1,8.415,6.124,21.791,21.791,0,0,1,.826,2.1" transform="translate(-338.776 -159.383)" fill="#263238"/>
              <path id="Trazado_979160" data-name="Trazado 979160" d="M620.806,280.493a1.031,1.031,0,0,0-.352-.033,7.633,7.633,0,0,0-.959.042,11.072,11.072,0,0,0-5.8,2.385,7.556,7.556,0,0,0-.712.645c-.157.164-.238.259-.227.271.027.028.393-.312,1.039-.785a12.794,12.794,0,0,1,5.718-2.352c.792-.118,1.291-.134,1.29-.173" transform="translate(-338.874 -155.101)" fill="#263238"/>
              <path id="Trazado_979161" data-name="Trazado 979161" d="M596.964,192.447a3.386,3.386,0,0,0,.035-.637c0-.409.026-1,.076-1.731a27.746,27.746,0,0,1,3.064-10.917c.337-.649.625-1.167.836-1.518a3.357,3.357,0,0,0,.3-.563,3.386,3.386,0,0,0-.378.515c-.235.337-.546.846-.9,1.488a25.08,25.08,0,0,0-3.084,10.985c-.03.735-.028,1.331,0,1.741a3.352,3.352,0,0,0,.055.636" transform="translate(-330.099 -97.931)" fill="#263238"/>
              <g id="Grupo_1113042" data-name="Grupo 1113042" transform="translate(213.433 98.203)" opacity="0.3">
                <g id="Grupo_1113041" data-name="Grupo 1113041">
                  <g id="Grupo_1113040" data-name="Grupo 1113040" clip-path="url(#clip-path-3)">
                    <path id="Trazado_979162" data-name="Trazado 979162" d="M480.4,240.712a22.459,22.459,0,0,1-.553-21,58.758,58.758,0,0,0,.663,20.977" transform="translate(-477.511 -219.708)"/>
                  </g>
                </g>
              </g>
              <g id="Grupo_1113045" data-name="Grupo 1113045" transform="translate(241.738 121.154)" opacity="0.3">
                <g id="Grupo_1113044" data-name="Grupo 1113044">
                  <g id="Grupo_1113043" data-name="Grupo 1113043" clip-path="url(#clip-path-4)">
                    <path id="Trazado_979163" data-name="Trazado 979163" d="M548.448,276.222a16.275,16.275,0,0,0,9.463-.015,9.173,9.173,0,0,1-9.886,3.161c-3.595-.993-6.91-4.592-7.188-8.311a15.387,15.387,0,0,0,7.61,5.165" transform="translate(-540.838 -271.057)"/>
                  </g>
                </g>
              </g>
              <path id="Trazado_979164" data-name="Trazado 979164" d="M534.69,259.892a1.083,1.083,0,0,0,.066.251c.055.16.118.4.241.7a14.613,14.613,0,0,0,1.212,2.453,15.754,15.754,0,0,0,15.449,7.418,14.621,14.621,0,0,0,2.672-.588c.31-.091.54-.194.7-.251a1.092,1.092,0,0,0,.237-.106c-.007-.02-.345.1-.963.27a16.534,16.534,0,0,1-2.666.511,15.853,15.853,0,0,1-15.29-7.342,16.5,16.5,0,0,1-1.268-2.4c-.25-.592-.371-.927-.391-.921" transform="translate(-295.699 -143.728)" fill="#263238"/>
              <path id="Trazado_979165" data-name="Trazado 979165" d="M603.314,327.729c.024-.021.253.3.8.751a7.281,7.281,0,0,0,2.664,1.272,14.179,14.179,0,0,0,4.383.385c1.663-.12,3.5-.315,5.4-.6a27.571,27.571,0,0,0,5.272-1.215,6.736,6.736,0,0,0,1.938-1.294,10.355,10.355,0,0,0,1.355-1.539,14.5,14.5,0,0,0,1.487-2.582c.139-.324.248-.576.312-.751a.143.143,0,1,1,.044.016c-.05.18-.146.439-.273.771a13.266,13.266,0,0,1-1.437,2.642,10.289,10.289,0,0,1-1.357,1.584,6.853,6.853,0,0,1-1.985,1.35,26.764,26.764,0,0,1-5.322,1.248c-1.916.284-3.747.472-5.425.582a13.953,13.953,0,0,1-4.438-.441,7.061,7.061,0,0,1-2.678-1.36,4.759,4.759,0,0,1-.568-.592,1.309,1.309,0,0,1-.169-.23" transform="translate(-333.651 -178.02)" fill="#263238"/>
              <path id="Trazado_979166" data-name="Trazado 979166" d="M597.939,228.463c.063-.016,1.6,5.942,3.427,13.306s3.264,13.348,3.2,13.363-1.6-5.941-3.427-13.307-3.263-13.346-3.2-13.362" transform="translate(-330.677 -126.347)" fill="#263238"/>
              <path id="Trazado_979167" data-name="Trazado 979167" d="M593.646,295.092a1.961,1.961,0,0,1-.074-.49,8.257,8.257,0,0,1-.031-1.353,3.928,3.928,0,0,1,.654-1.909,5.742,5.742,0,0,1,.747-.939,5.165,5.165,0,0,1,1.034-.77,12.951,12.951,0,0,1,4.236-1.367,11.87,11.87,0,0,1,1.344-.12,1.826,1.826,0,0,1,.5.018c0,.039-.7.065-1.813.264a14.208,14.208,0,0,0-4.146,1.407,5.068,5.068,0,0,0-.991.731,5.721,5.721,0,0,0-.726.892,3.887,3.887,0,0,0-.67,1.807,11.541,11.541,0,0,0-.042,1.333,2.12,2.12,0,0,1-.017.494" transform="translate(-328.238 -159.352)" fill="#263238"/>
              <path id="Trazado_979168" data-name="Trazado 979168" d="M482.029,63.437l-1.835-1.67c-2.443.991-3.576,3.639-3.982,6.1s-.35,5.047-1.466,7.306c-.858,1.737-2.415,3.347-2.225,5.254.18,1.816,1.938,3.286,1.951,5.109.012,1.753-1.56,3.1-2.469,4.633-1.843,3.108-3.025,15.818-2.054,19.259,8.112-.646,22.482-1.441,30.6-3.172-2.162-13.061-11.188-31.505-18.522-42.817" transform="translate(-259.704 -34.159)" fill="#263238"/>
              <path id="Trazado_979169" data-name="Trazado 979169" d="M469.208,98.46c0,5,3.658,9.058,8.17,9.058s8.17-4.055,8.17-9.058-3.658-9.058-8.17-9.058-8.17,4.055-8.17,9.058" transform="translate(-259.487 -49.442)" fill="#455a64"/>
              <g id="Grupo_1113048" data-name="Grupo 1113048" transform="translate(215.209 42.21)" opacity="0.3">
                <g id="Grupo_1113047" data-name="Grupo 1113047">
                  <g id="Grupo_1113046" data-name="Grupo 1113046" clip-path="url(#clip-path-5)">
                    <path id="Trazado_979170" data-name="Trazado 979170" d="M481.891,96.235a11.166,11.166,0,0,1,.8-1.8c.182,5.663.519,10.3,1.107,15.866-1.6-2.884-2.069-6.4-2.255-9.836a9.735,9.735,0,0,1,.343-4.231" transform="translate(-481.486 -94.436)"/>
                  </g>
                </g>
              </g>
              <path id="Trazado_979171" data-name="Trazado 979171" d="M517.679,189.66h0" transform="translate(-286.293 -104.888)" fill="#ffbe9d"/>
              <path id="Trazado_979172" data-name="Trazado 979172" d="M483.822,70.585A18.406,18.406,0,0,1,499.8,51.213a17.877,17.877,0,0,1,20.111,16.061l2.4,40.2a3.509,3.509,0,0,1-.615,2.189,16.413,16.413,0,0,1-10.454,6.679,17.2,17.2,0,0,1-10.594-2.2,3.431,3.431,0,0,1-1.74-2.942l-.164-9a.057.057,0,0,0-.061-.059,12.256,12.256,0,0,1-2.523-.07c-2.381-.58-8.447-2.912-10.482-11.816-.674-2.953-1.36-11.333-1.855-19.676" transform="translate(-267.551 -28.249)" fill="#ffbe9d"/>
              <path id="Trazado_979173" data-name="Trazado 979173" d="M508.342,107.982a10.684,10.684,0,0,0-2.607-.277c-.407-.013-.8-.066-.881-.333a2.007,2.007,0,0,1,.194-1.2q.478-1.485,1-3.116c1.386-4.433,2.36-8.067,2.179-8.119s-1.452,3.5-2.837,7.932q-.5,1.639-.951,3.13a2.277,2.277,0,0,0-.109,1.577,1.006,1.006,0,0,0,.7.536,2.81,2.81,0,0,0,.694.046,10.55,10.55,0,0,0,2.612-.179" transform="translate(-278.851 -52.504)" fill="#263238"/>
              <path id="Trazado_979174" data-name="Trazado 979174" d="M489.708,100.153c.178.194,1.23-.7,2.743-.738,1.512-.066,2.637.745,2.8.539.079-.092-.1-.445-.595-.813a3.614,3.614,0,0,0-2.244-.677,3.567,3.567,0,0,0-2.179.835c-.459.4-.611.767-.523.853" transform="translate(-270.811 -54.453)" fill="#263238"/>
              <path id="Trazado_979175" data-name="Trazado 979175" d="M524.044,100.682c.207.192,1.3-.805,2.955-.946,1.649-.164,2.931.613,3.094.387.081-.1-.14-.459-.7-.813a4.084,4.084,0,0,0-2.5-.568,4,4,0,0,0-2.332,1.013c-.476.45-.62.841-.519.927" transform="translate(-289.796 -54.598)" fill="#263238"/>
              <path id="Trazado_979176" data-name="Trazado 979176" d="M517.242,159.142s6.157.067,13.527-4.994c0,0-1.9,8.128-13.477,7.872Z" transform="translate(-286.051 -85.249)" fill="#eb996e"/>
              <path id="Trazado_979177" data-name="Trazado 979177" d="M515.306,130.911a2.9,2.9,0,0,1,2.5-1.222,2.616,2.616,0,0,1,1.863.825,1.606,1.606,0,0,1,.246,1.85,1.953,1.953,0,0,1-2.047.662,5.988,5.988,0,0,1-2.1-1.049,1.73,1.73,0,0,1-.483-.429.517.517,0,0,1-.035-.581" transform="translate(-284.904 -71.721)" fill="#eb996e"/>
              <path id="Trazado_979178" data-name="Trazado 979178" d="M518.111,125.807c-.259,0-.153,1.7-1.55,3s-3.241,1.245-3.239,1.483c-.017.108.43.3,1.206.267a4.369,4.369,0,0,0,2.71-1.142,3.68,3.68,0,0,0,1.189-2.508c.02-.712-.2-1.118-.316-1.1" transform="translate(-283.883 -69.575)" fill="#263238"/>
              <path id="Trazado_979179" data-name="Trazado 979179" d="M523.514,87.408c.186.412,1.755.091,3.631.171,1.878.042,3.416.464,3.636.066.1-.19-.192-.569-.828-.934a6.082,6.082,0,0,0-2.742-.719,6.155,6.155,0,0,0-2.794.538c-.664.322-.984.681-.9.877" transform="translate(-289.512 -47.555)" fill="#263238"/>
              <path id="Trazado_979180" data-name="Trazado 979180" d="M488.953,87.928c.321.357,1.6-.006,3.123-.016,1.528-.056,2.819.251,3.121-.118.132-.18-.068-.536-.63-.875a5.212,5.212,0,0,0-5.032.109c-.544.362-.725.727-.583.9" transform="translate(-270.38 -47.74)" fill="#263238"/>
              <path id="Trazado_979181" data-name="Trazado 979181" d="M514.988,43.8a5.394,5.394,0,0,1,4.1-2.319c7.04-1.066,14.9,3.173,18.846,9.1s4.156,14.773,1.268,21.282l-4.391-2.748c-8.819-3.636-15.046-12.133-20.717-20.911-.772-1.2.173-3.18.894-4.407" transform="translate(-284.151 -22.852)" fill="#263238"/>
              <path id="Trazado_979182" data-name="Trazado 979182" d="M482.305,66.474l-.475-.913c-1.746-3.357-.994-7.174.311-10.727a16.212,16.212,0,0,1,3.764-6.458c2.946-3.35,8.029-7.195,12.339-5.279.9,1.712-2.053,4.851-3.568,6.149-2.218,1.9-4.156,3.186-5.612,4.547-2.942,2.752-6.471,7.634-6.759,12.681" transform="translate(-265.902 -23.551)" fill="#263238"/>
              <path id="Trazado_979183" data-name="Trazado 979183" d="M495.719,106.246a1.338,1.338,0,0,0,1.266,1.374,1.28,1.28,0,0,0,1.4-1.181,1.339,1.339,0,0,0-1.264-1.374,1.281,1.281,0,0,0-1.4,1.182" transform="translate(-274.147 -58.102)" fill="#263238"/>
              <path id="Trazado_979184" data-name="Trazado 979184" d="M528.68,105.628A1.338,1.338,0,0,0,529.945,107a1.28,1.28,0,0,0,1.4-1.181,1.339,1.339,0,0,0-1.265-1.374,1.28,1.28,0,0,0-1.4,1.182" transform="translate(-292.375 -57.76)" fill="#263238"/>
              <path id="Trazado_979185" data-name="Trazado 979185" d="M560.8,102.842c.163-.089,6.668-2.662,7.082,4.18s-6.541,5.845-6.565,5.65-.517-9.829-.517-9.829" transform="translate(-310.141 -56.572)" fill="#ffbe9d"/>
              <path id="Trazado_979186" data-name="Trazado 979186" d="M566.278,112.633c.029-.024.124.076.331.156a1.2,1.2,0,0,0,.892-.036,2.954,2.954,0,0,0,1.2-2.728,3.954,3.954,0,0,0-.437-1.686,1.38,1.38,0,0,0-.952-.861.607.607,0,0,0-.683.369c-.08.2-.029.331-.064.345-.018.018-.154-.106-.115-.392a.762.762,0,0,1,.243-.445.9.9,0,0,1,.649-.214,1.679,1.679,0,0,1,1.309.985,4.055,4.055,0,0,1,.528,1.882,3.1,3.1,0,0,1-1.56,3.06,1.28,1.28,0,0,1-1.1-.115c-.222-.156-.267-.307-.244-.321" transform="translate(-313.166 -59.252)" fill="#eb996e"/>
              <path id="Trazado_979187" data-name="Trazado 979187" d="M490.577,99.482a11.138,11.138,0,0,0-.217-1.534,6.3,6.3,0,0,0-2.248-3.46,6.21,6.21,0,0,0-5.871-.97,6.224,6.224,0,0,0-2.913,2.119,6.176,6.176,0,0,0-.118,7.329,6.221,6.221,0,0,0,2.844,2.211,6.261,6.261,0,0,0,8.256-4.168,11.017,11.017,0,0,0,.266-1.526.326.326,0,0,1,0,.1c0,.082,0,.181-.008.3a2.9,2.9,0,0,1-.046.489,4.489,4.489,0,0,1-.129.658,6.357,6.357,0,0,1-5.053,4.665,6.416,6.416,0,0,1-3.367-.32,6.42,6.42,0,0,1-2.954-2.28,6.386,6.386,0,0,1,.122-7.6,6.426,6.426,0,0,1,3.025-2.183,6.419,6.419,0,0,1,3.375-.212,6.357,6.357,0,0,1,4.9,4.824,4.435,4.435,0,0,1,.108.662,2.893,2.893,0,0,1,.03.489c0,.121,0,.22,0,.3a.34.34,0,0,1-.009.1" transform="translate(-264.256 -51.417)" fill="#fff"/>
              <path id="Trazado_979188" data-name="Trazado 979188" d="M529.223,100.1a10.962,10.962,0,0,0-.217-1.534,6.292,6.292,0,0,0-2.248-3.46,6.21,6.21,0,0,0-5.871-.97,6.225,6.225,0,0,0-2.913,2.119,6.178,6.178,0,0,0-.118,7.329A6.22,6.22,0,0,0,520.7,105.8a6.26,6.26,0,0,0,8.255-4.168,11.017,11.017,0,0,0,.266-1.526.329.329,0,0,1,0,.1c0,.082,0,.181-.009.3a2.849,2.849,0,0,1-.046.488,4.422,4.422,0,0,1-.129.658,6.356,6.356,0,0,1-5.053,4.665,6.416,6.416,0,0,1-3.367-.32,6.426,6.426,0,0,1-2.954-2.28,6.386,6.386,0,0,1,.122-7.6,6.427,6.427,0,0,1,3.025-2.183,6.419,6.419,0,0,1,3.375-.212,6.357,6.357,0,0,1,4.9,4.824,4.444,4.444,0,0,1,.108.662,2.9,2.9,0,0,1,.03.489c0,.121,0,.22,0,.3a.341.341,0,0,1-.008.1" transform="translate(-285.629 -51.759)" fill="#fff"/>
              <path id="Trazado_979189" data-name="Trazado 979189" d="M511.092,105.2c-.034.023-.214-.268-.629-.6a3.047,3.047,0,0,0-3.81-.069c-.427.318-.618.6-.65.578a1.622,1.622,0,0,1,.547-.707,2.994,2.994,0,0,1,4.02.073,1.629,1.629,0,0,1,.521.726" transform="translate(-279.834 -57.328)" fill="#fff"/>
              <path id="Trazado_979190" data-name="Trazado 979190" d="M553.507,102.527a6.038,6.038,0,0,1-1.265.262c-.788.122-1.884.241-3.093.346l-3.094.278a8.579,8.579,0,0,1-1.286.1,6.032,6.032,0,0,1,1.265-.262c.789-.122,1.884-.241,3.094-.346l3.093-.278a8.576,8.576,0,0,1,1.285-.1" transform="translate(-301.274 -56.695)" fill="#fff"/>
              <path id="Trazado_979191" data-name="Trazado 979191" d="M481.721,110.4a6.37,6.37,0,0,1-1.728-4.675,1.762,1.762,0,0,0-.133.758,4.9,4.9,0,0,0,1.267,3.427,1.768,1.768,0,0,0,.594.49" transform="translate(-265.375 -58.469)" fill="#fff"/>
              <path id="Trazado_979192" data-name="Trazado 979192" d="M480.955,100.365c-.034-.052-.29.077-.435.38s-.09.582-.028.577.115-.229.238-.476.266-.429.226-.481" transform="translate(-265.691 -55.499)" fill="#fff"/>
              <path id="Trazado_979193" data-name="Trazado 979193" d="M518.708,105.576c.037-.014-.09-.36-.19-.936a6.411,6.411,0,0,1,.817-4.384c.3-.5.544-.778.514-.8a2.474,2.474,0,0,0-.653.716,5.7,5.7,0,0,0-.839,4.506,2.471,2.471,0,0,0,.351.9" transform="translate(-286.585 -54.999)" fill="#fff"/>
              <path id="Trazado_979194" data-name="Trazado 979194" d="M567.516,124.707c-.015.014.093.133.23.38a2.417,2.417,0,0,1,.293,1.138,2.115,2.115,0,0,1-.633,1.559,2.168,2.168,0,0,1-3.532-.636,2.115,2.115,0,0,1-.05-1.682,2.417,2.417,0,0,1,.671-.964c.214-.185.358-.258.348-.276a.99.99,0,0,0-.4.205,2.311,2.311,0,0,0-.768.973,2.251,2.251,0,0,0,.007,1.833,2.359,2.359,0,0,0,3.878.7,2.248,2.248,0,0,0,.646-1.716,2.315,2.315,0,0,0-.38-1.18.993.993,0,0,0-.307-.333" transform="translate(-311.622 -68.7)" fill="#e0e0e0"/>
              <path id="Trazado_979195" data-name="Trazado 979195" d="M483.977,130.7a1.9,1.9,0,0,1-1.188.074,2.343,2.343,0,0,1-1.095-.675,2.841,2.841,0,0,1-.709-1.406,2.567,2.567,0,0,1,.188-1.554,2.891,2.891,0,0,1,.8-1.025,4.571,4.571,0,0,1,1.076-.583.744.744,0,0,0-.338.045,2.584,2.584,0,0,0-.838.408,2.9,2.9,0,0,0-.894,1.064,2.7,2.7,0,0,0-.223,1.689,2.955,2.955,0,0,0,.784,1.512,2.413,2.413,0,0,0,1.21.687,1.64,1.64,0,0,0,.937-.051c.208-.084.3-.173.291-.182" transform="translate(-265.846 -69.417)" fill="#e0e0e0"/>
              <path id="Trazado_979196" data-name="Trazado 979196" d="M554.544,52.348c6.347-.017,9.048,9.317,10.494,12.749s1.871,7.276,3.709,10.516c1.459,2.573,3.814,4.809,4.143,7.749.239,2.141-.669,4.268-.551,6.418.122,2.223,1.314,4.22,2.13,6.292s1.21,4.6-.115,6.389a92.636,92.636,0,0,1-14.633.339,4.041,4.041,0,0,1-2.355-.644,4.155,4.155,0,0,1-1.136-2.843c-1.355-10.777,1.612-15.576.257-26.354" transform="translate(-306.68 -28.95)" fill="#263238"/>
              <path id="Trazado_979197" data-name="Trazado 979197" d="M552.254,102.878c0,5,3.658,9.058,8.17,9.058s8.17-4.055,8.17-9.058-3.658-9.058-8.17-9.058-8.17,4.055-8.17,9.058" transform="translate(-305.414 -51.885)" fill="#455a64"/>
              <path id="Trazado_979198" data-name="Trazado 979198" d="M559.716,105.96a2.447,2.447,0,0,1-.005-.394,5.971,5.971,0,0,1,.127-1.124,6.775,6.775,0,0,1,.579-1.7,6.241,6.241,0,0,1,1.433-1.9,5.79,5.79,0,0,1,2.549-1.334,5.461,5.461,0,0,1,3.281.3,6.089,6.089,0,0,1,2.757,2.378,7.257,7.257,0,0,1,.8,1.777,7.255,7.255,0,0,1,0,3.97,7.278,7.278,0,0,1-.8,1.778,6.086,6.086,0,0,1-2.757,2.378,5.459,5.459,0,0,1-3.282.3,5.786,5.786,0,0,1-2.549-1.334,6.238,6.238,0,0,1-1.433-1.9,6.757,6.757,0,0,1-.579-1.7,5.971,5.971,0,0,1-.127-1.124,2.447,2.447,0,0,1,.005-.394,14.641,14.641,0,0,0,.21,1.5,6.94,6.94,0,0,0,.607,1.656,6.2,6.2,0,0,0,1.426,1.832,5.646,5.646,0,0,0,2.481,1.269,5.282,5.282,0,0,0,3.157-.312,5.889,5.889,0,0,0,2.648-2.3,7.075,7.075,0,0,0,.766-1.719,7.059,7.059,0,0,0,0-3.843,7.076,7.076,0,0,0-.766-1.719,5.887,5.887,0,0,0-2.647-2.3,5.283,5.283,0,0,0-3.156-.312,5.647,5.647,0,0,0-2.481,1.268,6.174,6.174,0,0,0-1.426,1.831,6.933,6.933,0,0,0-.607,1.656,14.622,14.622,0,0,0-.21,1.5" transform="translate(-309.536 -54.968)" fill="#263238"/>
              <path id="Trazado_979199" data-name="Trazado 979199" d="M532.385,64.552s1.379-23.8-22.368-24.559c0,0-7.984,0-11.312,4.167a16.466,16.466,0,0,1,11.64-1.429c5.031,1.414,16.4,6.465,17.053,22.15l2.2.765Z" transform="translate(-275.799 -22.117)" fill="#455a64"/>
              <g id="Grupo_1113051" data-name="Grupo 1113051" transform="translate(249.486 47.637)" opacity="0.3">
                <g id="Grupo_1113050" data-name="Grupo 1113050">
                  <g id="Grupo_1113049" data-name="Grupo 1113049" clip-path="url(#clip-path-6)">
                    <path id="Trazado_979200" data-name="Trazado 979200" d="M569.873,113.033a5.638,5.638,0,0,1-5.467,4.242,6.468,6.468,0,0,1-5.748-4.1,6.611,6.611,0,0,1,.961-6.6,7.613,7.613,0,0,0-.076,6.332,6.227,6.227,0,0,0,4.944,3.49,5.88,5.88,0,0,0,5.386-3.367" transform="translate(-558.174 -106.578)"/>
                  </g>
                </g>
              </g>
              <path id="Trazado_979201" data-name="Trazado 979201" d="M561.96,94.837a3.165,3.165,0,0,1,.927-.522,7.806,7.806,0,0,1,5.059-.341,3.174,3.174,0,0,1,.988.393,9.743,9.743,0,0,0-6.974.47" transform="translate(-310.781 -51.822)" fill="#263238"/>
              <path id="Trazado_979202" data-name="Trazado 979202" d="M496.086,43.289a.647.647,0,0,1,.041-.134c.032-.087.076-.217.145-.384a6.763,6.763,0,0,1,.809-1.355,8.889,8.889,0,0,1,1.81-1.721,13.666,13.666,0,0,1,2.916-1.561c.571-.227,1.186-.414,1.824-.618.649-.164,1.32-.356,2.034-.468a21.038,21.038,0,0,1,4.586-.346,22.737,22.737,0,0,1,10.112,2.707,20.413,20.413,0,0,1,4.414,3.211,22.454,22.454,0,0,1,6.4,11.888,21.021,21.021,0,0,1,.322,5.777,14.019,14.019,0,0,1-.2,1.563c-.029.167-.051.3-.069.4a.624.624,0,0,1-.031.136.612.612,0,0,1,.008-.14l.046-.407c.041-.357.126-.881.152-1.563a22.419,22.419,0,0,0-6.789-17.493,20.322,20.322,0,0,0-4.368-3.172,22.69,22.69,0,0,0-10.007-2.7,21.089,21.089,0,0,0-4.546.322c-.708.106-1.374.292-2.019.451-.633.2-1.246.379-1.813.6a13.736,13.736,0,0,0-2.9,1.515,8.979,8.979,0,0,0-1.814,1.671,7.3,7.3,0,0,0-.838,1.318l-.166.373a.62.62,0,0,1-.063.125" transform="translate(-274.351 -20.29)" fill="#455a64"/>
              <path id="Trazado_979203" data-name="Trazado 979203" d="M491.673,47.783a.546.546,0,0,1,.055-.119l.184-.337c.167-.293.422-.722.793-1.247a10.057,10.057,0,0,1,1.558-1.747,10.892,10.892,0,0,1,2.626-1.649,14.263,14.263,0,0,1,3.579-1.149,25.738,25.738,0,0,1,4.308-.222,31.629,31.629,0,0,1,4.726.589,20.82,20.82,0,0,1,4.88,1.537,16.256,16.256,0,0,1,4.267,2.823,17.618,17.618,0,0,1,3,3.708,26.346,26.346,0,0,1,2.987,7.468c.548,2.229.819,4.067,1.009,5.334.084.622.151,1.111.2,1.462l.043.381a.536.536,0,0,1,.007.131.542.542,0,0,1-.03-.128c-.017-.1-.039-.222-.067-.378-.058-.349-.139-.836-.241-1.455-.218-1.261-.513-3.092-1.079-5.307a26.6,26.6,0,0,0-3.01-7.4,17.51,17.51,0,0,0-2.968-3.653,16.128,16.128,0,0,0-4.21-2.779,20.7,20.7,0,0,0-4.824-1.524,31.758,31.758,0,0,0-4.691-.6,25.954,25.954,0,0,0-4.269.2,14.237,14.237,0,0,0-3.541,1.108,10.89,10.89,0,0,0-2.61,1.6,10.254,10.254,0,0,0-1.57,1.7c-.38.513-.646.933-.826,1.218l-.2.325a.565.565,0,0,1-.076.107" transform="translate(-271.91 -22.84)" fill="#263238"/>
              <path id="Trazado_979204" data-name="Trazado 979204" d="M527.945,301.822l.027.013-.027-.013" transform="translate(-291.97 -166.917)" fill="#ffbe9d"/>
              <path id="Trazado_979205" data-name="Trazado 979205" d="M528.3,301.991l.059.028-.059-.028" transform="translate(-292.167 -167.01)" fill="#ffbe9d"/>
              <path id="Trazado_979206" data-name="Trazado 979206" d="M528.005,301.85l.133.063-.133-.063" transform="translate(-292.003 -166.932)" fill="#ffbe9d"/>
              <path id="Trazado_979207" data-name="Trazado 979207" d="M527.814,301.759l.059.028-.059-.028" transform="translate(-291.897 -166.882)" fill="#ffbe9d"/>
              <path id="Trazado_979208" data-name="Trazado 979208" d="M496.479,312.872c1.168-2.21,10.3-8.038,10.3-8.038l-2.472-.571-2.729,1.154a6.715,6.715,0,0,1-1.174,2.556c-1,1.431-2.707-.049-2.707-.049l1.153-5.527,5.4-3.25a53.127,53.127,0,0,1,5.9,1.167l2.166,1.982c.95.745,3.694,3.683,4.445,3.772s24.319-5.213,24.319-5.213c3.231,2.559,4.934,7.643,5.447,11.31,0,0,.575,1.8-.05,2.779l-28.933,2.27-6.13,1.694a43.118,43.118,0,0,1-5.037,1.731c-2.04.429-3.414-.229-3.469-1.358s1.527-1.252,1.527-1.252a31.131,31.131,0,0,0,3.943-1.734,6.922,6.922,0,0,0,2.225-2.442l-2.186.261s-4.647,3.225-6.394,4.172-2.092-.79-2.233-1.319,5.219-5.773,5.219-5.773-5.1,3.142-6.014,3.935-2.275,1.03-2.567.5-1.118-.547.05-2.756" transform="translate(-274.233 -165.438)" fill="#ffbe9d"/>
              <path id="Trazado_979209" data-name="Trazado 979209" d="M528.434,302.054l.051.025-.051-.025" transform="translate(-292.24 -167.045)" fill="#ffbe9d"/>
              <path id="Trazado_979210" data-name="Trazado 979210" d="M528.612,302.139h0" transform="translate(-292.339 -167.092)" fill="#ffbe9d"/>
              <path id="Trazado_979211" data-name="Trazado 979211" d="M528.549,302.109l.028.013-.028-.013" transform="translate(-292.304 -167.076)" fill="#ffbe9d"/>
              <path id="Trazado_979212" data-name="Trazado 979212" d="M547.466,321.946a1.159,1.159,0,0,0,.027-.358,2.135,2.135,0,0,0-.028-.421,3.14,3.14,0,0,0-.1-.551,7.773,7.773,0,0,0-1.481-2.855,16.626,16.626,0,0,0-2.229-2.317,6.579,6.579,0,0,0-1.051-.814,10.639,10.639,0,0,0,.95.926,21.463,21.463,0,0,1,2.162,2.336,8.509,8.509,0,0,1,1.5,2.762c.227.778.2,1.292.248,1.291" transform="translate(-300.076 -174)" fill="#eb996e"/>
              <path id="Trazado_979213" data-name="Trazado 979213" d="M520.744,310.281a3.369,3.369,0,0,0,2.885-.969c-.039-.051-.6.362-1.4.625s-1.49.278-1.49.343" transform="translate(-287.987 -171.057)" fill="#eb996e"/>
              <path id="Trazado_979214" data-name="Trazado 979214" d="M517.349,322.693a28.507,28.507,0,0,0,4.568-1.879,28.458,28.458,0,0,0-4.568,1.879" transform="translate(-286.11 -177.417)" fill="#eb996e"/>
              <path id="Trazado_979215" data-name="Trazado 979215" d="M528.3,330.784a19.4,19.4,0,0,0,2.354-.92,4.7,4.7,0,0,0-2.354.92" transform="translate(-292.167 -182.417)" fill="#eb996e"/>
              <path id="Trazado_979216" data-name="Trazado 979216" d="M519.03,325.912a2.975,2.975,0,0,1,1.42,1.866c.026,0,.054-.145.018-.377A1.943,1.943,0,0,0,519.4,326c-.214-.1-.36-.108-.368-.083" transform="translate(-287.039 -180.233)" fill="#eb996e"/>
              <path id="Trazado_979217" data-name="Trazado 979217" d="M514.232,318.356c-.029.056.371.272.635.735a5.824,5.824,0,0,1,.328.914,1.088,1.088,0,0,0-.143-1.022c-.306-.53-.81-.685-.82-.628" transform="translate(-284.386 -176.055)" fill="#eb996e"/>
              <path id="Trazado_979218" data-name="Trazado 979218" d="M515.265,302.418c.024.012.107-.089.171-.288a1.568,1.568,0,0,0-.366-1.513c-.147-.147-.267-.2-.283-.178a2.406,2.406,0,0,1,.478,1.978" transform="translate(-284.691 -166.15)" fill="#eb996e"/>
              <path id="Trazado_979219" data-name="Trazado 979219" d="M602.3,317.461a3.671,3.671,0,0,1-.039-.665c0-.214-.008-.475-.03-.778s-.027-.648-.071-1.027a23.135,23.135,0,0,0-1.263-5.8,20.908,20.908,0,0,0-1.371-2.967c-.266-.427-.5-.846-.765-1.205l-.371-.53-.371-.468c-.961-1.182-1.7-1.786-1.663-1.824a3.652,3.652,0,0,1,.519.418,6.064,6.064,0,0,1,.568.538,9.968,9.968,0,0,1,.7.764l.387.463c.129.166.253.346.387.528.277.359.519.779.793,1.208a19.708,19.708,0,0,1,1.4,3,21.232,21.232,0,0,1,1.208,5.865c.034.383.03.731.038,1.036s0,.567-.009.781a3.658,3.658,0,0,1-.052.665" transform="translate(-329.803 -167.126)" fill="#263238"/>
              <path id="Trazado_979220" data-name="Trazado 979220" d="M384.266,255.269l8.45,41.483h73.343a1.465,1.465,0,0,0,0-2.93H451.295l-7.834-38.579a1.6,1.6,0,0,0-1.552-1.283l-56.055-.612a1.6,1.6,0,0,0-1.587,1.922" transform="translate(-212.493 -140.109)" fill="#e0e0e0"/>
              <path id="Trazado_979221" data-name="Trazado 979221" d="M384.259,255.243s-.009-.042-.023-.125a1.429,1.429,0,0,1-.007-.377,1.612,1.612,0,0,1,.775-1.213,1.661,1.661,0,0,1,.485-.192,2.564,2.564,0,0,1,.577-.036l1.319.01,3.3.028,21.2.2,14.775.149,8.277.085,4.341.045,2.219.023c.189,0,.366,0,.568.014a1.677,1.677,0,0,1,.566.164,1.7,1.7,0,0,1,.805.844,2.642,2.642,0,0,1,.154.564l.114.558q.114.559.228,1.121l.461,2.265.939,4.615,1.943,9.551,4.114,20.239-.1-.08h14.52a2.7,2.7,0,0,1,.571.035,1.567,1.567,0,0,1,.421,2.909,1.588,1.588,0,0,1-.69.186l-.677,0H447l-19.856,0-34.436-.017h-.063l-.013-.062-6.139-30.31c-.723-3.591-1.285-6.387-1.667-8.288-.188-.947-.332-1.671-.429-2.162s-.139-.739-.139-.739.059.248.161.734.253,1.212.451,2.157c.392,1.9.968,4.691,1.708,8.279l6.207,30.3-.076-.062,34.436-.017,19.856,0h18.431l.669,0a1.363,1.363,0,0,0,.235-2.694,2.536,2.536,0,0,0-.529-.03h-14.6l-.016-.08-4.106-20.241-1.936-9.553q-.473-2.335-.935-4.615-.231-1.139-.459-2.265l-.227-1.121-.113-.558a2.49,2.49,0,0,0-.142-.529,1.516,1.516,0,0,0-1.227-.9c-.171-.015-.368-.008-.551-.013l-2.219-.025-4.341-.05-8.277-.1-14.775-.173-21.194-.262-3.3-.045-1.319-.019a2.549,2.549,0,0,0-.568.031,1.591,1.591,0,0,0-1.251,1.365,2.137,2.137,0,0,0,.012.5" transform="translate(-212.486 -140.083)" fill="#263238"/>
              <path id="Trazado_979222" data-name="Trazado 979222" d="M453.927,297.124A2.422,2.422,0,1,1,451.5,294.7a2.422,2.422,0,0,1,2.422,2.423" transform="translate(-248.356 -162.979)" fill="#fff"/>
              <path id="Trazado_979223" data-name="Trazado 979223" d="M384.46,258.383s.086-.006.253-.008l.742,0,2.851,0,10.487.051,34.6.244,5,.04,1.229.01a3.228,3.228,0,0,1,.628.038,1.756,1.756,0,0,1,.595.241,1.738,1.738,0,0,1,.744,1.01c.092.405.16.789.24,1.183l1.788,9.01,3.016,15.26,2.016,10.291c.233,1.21.414,2.153.538,2.8l.135.729c.029.164.039.25.039.25s-.023-.083-.059-.246l-.155-.725c-.133-.646-.326-1.585-.575-2.793l-2.079-10.278-3.059-15.251-1.8-9.008c-.08-.387-.153-.791-.238-1.169a1.552,1.552,0,0,0-1.186-1.107,3.036,3.036,0,0,0-.59-.034l-1.229-.009-5-.039-34.6-.3-10.486-.115-2.851-.042-.742-.016c-.167,0-.253-.013-.253-.013" transform="translate(-212.618 -142.887)" fill="#263238"/>
            </g>
          </g>
          <g id="Grupo_1113055" data-name="Grupo 1113055">
            <g id="Grupo_1113054" data-name="Grupo 1113054" clip-path="url(#clip-path)">
              <path id="Trazado_979224" data-name="Trazado 979224" d="M424.956,41.29l-7.422-3.354a18.981,18.981,0,1,1,4.619-4.99l.008-.007Z" transform="translate(-214.147 -2.113)" fill="#fafafa"/>
              <path id="Trazado_979225" data-name="Trazado 979225" d="M424.844,41.163l-2.74-8.369-.028-.086-.067.061-.008.007.089.074a19.417,19.417,0,0,0,1.983-4.1,19.013,19.013,0,0,0,1-5.311,17.048,17.048,0,0,0-.123-3c-.076-.512-.137-1.034-.23-1.558l-.388-1.572a19.126,19.126,0,0,0-8.656-11.1,18.9,18.9,0,0,0-7.585-2.52,19.319,19.319,0,0,0-8.377.995,18.7,18.7,0,0,0-7.391,4.759l-.777.849c-.262.28-.469.6-.706.9-.221.31-.477.6-.668.924l-.594.968a8.032,8.032,0,0,0-.534.995l-.493,1.011-.395,1.047A8.965,8.965,0,0,0,387.8,17.2a19.344,19.344,0,0,0-.522,8.58,18.693,18.693,0,0,0,3.009,7.555,19.229,19.229,0,0,0,11.848,7.945,20.484,20.484,0,0,0,6.215.256,18.867,18.867,0,0,0,5.215-1.412,19.207,19.207,0,0,0,3.888-2.267l-.057.006,7.445,3.3-7.4-3.405-.03-.014-.027.02a19.247,19.247,0,0,1-3.875,2.229,18.784,18.784,0,0,1-5.18,1.378,20.379,20.379,0,0,1-6.158-.274,19.063,19.063,0,0,1-11.708-7.887,18.5,18.5,0,0,1-2.965-7.471,19.131,19.131,0,0,1,.522-8.477,8.636,8.636,0,0,1,.353-1.041l.39-1.034.488-1a7.867,7.867,0,0,1,.528-.982l.587-.957c.188-.325.442-.606.66-.913.234-.3.438-.615.7-.891l.768-.838a18.483,18.483,0,0,1,7.3-4.7,19.114,19.114,0,0,1,8.275-.989,18.7,18.7,0,0,1,7.5,2.481,18.955,18.955,0,0,1,8.588,10.965l.388,1.556c.093.518.155,1.036.232,1.542a16.935,16.935,0,0,1,.133,2.975,18.914,18.914,0,0,1-.972,5.272,19.41,19.41,0,0,1-1.947,4.079l-.236.376.325-.3.008-.007-.095-.025,2.85,8.333" transform="translate(-214.036 -1.986)" fill="#263238"/>
              <path id="Trazado_979226" data-name="Trazado 979226" d="M423.807,32.07h0c-.086-.235-1.75.373-3.824.327a7.27,7.27,0,0,1-2.556-.475,6.978,6.978,0,0,1-.823-.4c-.059-.157-.111-.239-.156-.232-.2.035-.093,2.385.146,5.314a25.567,25.567,0,0,0,.509,3.382,2.29,2.29,0,1,0,.693.978c-.062-.94-.256-2.567-.413-4.434-.074-.9-.169-1.75-.273-2.492a6.021,6.021,0,0,0,3.367.839,6.156,6.156,0,0,0,3.248-.933c.039.925.12,2.124.227,3.44a25.56,25.56,0,0,0,.509,3.381,2.29,2.29,0,1,0,.693.978c-.062-.94-.256-2.567-.413-4.434-.237-2.913-.7-5.278-.935-5.239m-3.347,2.014a19.873,19.873,0,0,1-3.394-.353c-.1-.651-.2-1.2-.3-1.619a2.767,2.767,0,0,0,.392.3,5.352,5.352,0,0,0,2.8.773,6.307,6.307,0,0,0,3.782-1.008,7.567,7.567,0,0,0-.034,1.412,16.7,16.7,0,0,1-3.253.491" transform="translate(-228.606 -17.304)" fill="#263238"/>
            </g>
          </g>
          <g id="Grupo_1113057" data-name="Grupo 1113057">
            <g id="Grupo_1113056" data-name="Grupo 1113056" clip-path="url(#clip-path)">
              <path id="Trazado_979227" data-name="Trazado 979227" d="M208.213,64.389l4.418-7.786a20.862,20.862,0,1,1,5,5.558l.007.009Z" transform="translate(-115.148 -13.754)" fill="#fafafa"/>
              <path id="Trazado_979228" data-name="Trazado 979228" d="M208.213,64.264l9.436-2.156.1-.022-.06-.08L217.678,62l-.09.09a21.342,21.342,0,0,0,4.284,2.583,20.9,20.9,0,0,0,5.712,1.631,18.767,18.767,0,0,0,3.3.167c.567-.032,1.145-.046,1.728-.094l1.761-.266A21.021,21.021,0,0,0,247.39,57.75a20.773,20.773,0,0,0,3.521-8.049,21.24,21.24,0,0,0-.246-9.268,20.561,20.561,0,0,0-4.465-8.568l-.851-.936c-.28-.314-.613-.574-.916-.863-.317-.273-.6-.582-.944-.823l-1-.747a8.749,8.749,0,0,0-1.035-.685l-1.057-.642-1.107-.537a9.671,9.671,0,0,0-1.117-.5,21.258,21.258,0,0,0-9.339-1.435,20.553,20.553,0,0,0-8.572,2.533A21.135,21.135,0,0,0,210.374,39.4a22.523,22.523,0,0,0-.905,6.776,20.705,20.705,0,0,0,1.02,5.85,21.112,21.112,0,0,0,2.09,4.483v-.063l-4.364,7.816,4.471-7.755.018-.031-.019-.032a21.137,21.137,0,0,1-2.05-4.465,20.636,20.636,0,0,1-.987-5.808,22.386,22.386,0,0,1,.919-6.712,20.953,20.953,0,0,1,9.811-12.021,20.332,20.332,0,0,1,8.475-2.493,21.031,21.031,0,0,1,9.226,1.424,9.468,9.468,0,0,1,1.1.491l1.093.531,1.044.635a8.646,8.646,0,0,1,1.022.677l.988.738c.337.238.619.544.932.814.3.286.629.541.905.853l.84.925a20.314,20.314,0,0,1,4.413,8.462,21.016,21.016,0,0,1,.25,9.157,20.558,20.558,0,0,1-3.47,7.959,20.835,20.835,0,0,1-12.865,8.3l-1.742.269c-.577.05-1.15.065-1.711.1a18.593,18.593,0,0,1-3.27-.154,20.819,20.819,0,0,1-5.673-1.594,21.321,21.321,0,0,1-4.269-2.542l-.388-.3.3.386.007.009.036-.1-9.407,2.281" transform="translate(-115.148 -13.629)" fill="#263238"/>
              <path id="Trazado_979229" data-name="Trazado 979229" d="M270.371,67a2.035,2.035,0,1,0,2.035-2.035A2.035,2.035,0,0,0,270.371,67" transform="translate(-149.524 -35.928)" fill="#263238"/>
              <path id="Trazado_979230" data-name="Trazado 979230" d="M252.149,67a2.035,2.035,0,1,0,2.035-2.035A2.035,2.035,0,0,0,252.149,67" transform="translate(-139.446 -35.928)" fill="#263238"/>
              <path id="Trazado_979231" data-name="Trazado 979231" d="M233.635,65.982a2.035,2.035,0,1,0,2.78-.745,2.035,2.035,0,0,0-2.78.745" transform="translate(-129.057 -35.927)" fill="#263238"/>
            </g>
          </g>
          <g id="Grupo_1113068" data-name="Grupo 1113068">
            <g id="Grupo_1113067" data-name="Grupo 1113067" clip-path="url(#clip-path)">
              <path id="Trazado_979232" data-name="Trazado 979232" d="M263.126,155.623s-4.85-5.916-4.9-8.38l1.431-14.365s.775-1.471,2.157.879c1.268,2.154.7,5.575.7,5.575l.92,3.33,1.651-2.6,1.639-9.619s1.021-6.945,2.116-6.262,1.473,2.681,1.032,5.679l-1,6.8s-.1,1.18.944-.832,1.976-10.391,2.368-11.528.456-4.116,2.159-4.015.841,3.933.841,3.933l-1.221,12.369s1.429-5.006,1.7-5.862.655-3.576,1.174-5.068,1.359-2.288,2.117-2.222a1.414,1.414,0,0,1,1.378,1.364l-2.166,10.614s-1.236,4.849-1.131,5.15,1.8-2.064,1.8-2.064l1.238-3.458s.959-4.883,2.256-5.066,1.376.8,1.376.8l-1.834,8.918-3.585,10.154-3.449,7.709-.787,4.114c-.146.209-9.445-1.512-12.373-3.22Z" transform="translate(-142.809 -66.522)" fill="#9f7362"/>
              <path id="Trazado_979233" data-name="Trazado 979233" d="M274.97,174.84a6.715,6.715,0,0,0-.075-2.089,5.178,5.178,0,0,0-.943-2.032,5.113,5.113,0,0,0-4.332-1.926l-.072.005-.034-.062a16.615,16.615,0,0,1-1.392-3.334c-.125-.428-.206-.774-.254-1.012a1.391,1.391,0,0,1-.052-.372c.029-.007.155.5.438,1.342a19.191,19.191,0,0,0,1.454,3.268l-.105-.057a5.092,5.092,0,0,1,5.454,4.146,4.911,4.911,0,0,1,.047,1.565,3.338,3.338,0,0,1-.084.417c-.025.094-.042.142-.05.14" transform="translate(-148.108 -90.708)" fill="#65463c"/>
              <path id="Trazado_979234" data-name="Trazado 979234" d="M139.644,1.987a7.8,7.8,0,0,1,7.205,2.865,5.153,5.153,0,0,1,5.172,1.9,5.153,5.153,0,0,1,.333,5.5,5.6,5.6,0,0,1,.379,8.8L133.642,6.9a7.8,7.8,0,0,1,6-4.909" transform="translate(-73.908 -1.052)" fill="#263238"/>
              <path id="Trazado_979235" data-name="Trazado 979235" d="M155.544,61.948c0,5,3.658,9.058,8.17,9.058s8.17-4.055,8.17-9.058-3.658-9.058-8.17-9.058-8.17,4.055-8.17,9.058" transform="translate(-86.021 -29.25)" fill="#455a64"/>
              <path id="Trazado_979236" data-name="Trazado 979236" d="M132.11,25.777a19.482,19.482,0,0,0-20.286-16.93l-1.008.05C99.982,10.072,94.927,19.929,96.4,30.726l3.371,36.1.181,1.752,25.322,3.781-.493-9.221S135.147,61,134.757,50.549c-.188-5.047-1.422-15.407-2.647-24.771" transform="translate(-53.174 -4.879)" fill="#9f7362"/>
              <path id="Trazado_979237" data-name="Trazado 979237" d="M143.223,126.193a25.363,25.363,0,0,1-13.883-3.325s3.592,7.356,13.966,5.9Z" transform="translate(-71.529 -67.95)" fill="#65463c"/>
              <path id="Trazado_979238" data-name="Trazado 979238" d="M164.011,64.393a1.493,1.493,0,0,1-1.363,1.576,1.428,1.428,0,0,1-1.6-1.268,1.5,1.5,0,0,1,1.362-1.577,1.43,1.43,0,0,1,1.606,1.269" transform="translate(-89.059 -34.905)" fill="#263238"/>
              <path id="Trazado_979239" data-name="Trazado 979239" d="M164.849,56.669c-.175.2-1.346-.577-2.951-.493-1.6.061-2.741.945-2.924.757-.09-.083.081-.443.575-.842a4.1,4.1,0,0,1,2.33-.847,3.936,3.936,0,0,1,2.361.635c.512.354.7.7.61.789" transform="translate(-87.904 -30.55)" fill="#263238"/>
              <path id="Trazado_979240" data-name="Trazado 979240" d="M129.952,66.761a1.492,1.492,0,0,1-1.363,1.576,1.427,1.427,0,0,1-1.6-1.268,1.494,1.494,0,0,1,1.362-1.577,1.429,1.429,0,0,1,1.606,1.269" transform="translate(-70.224 -36.214)" fill="#263238"/>
              <path id="Trazado_979241" data-name="Trazado 979241" d="M129.589,59.093c-.175.2-1.348-.576-2.952-.492-1.6.061-2.741.945-2.925.757-.09-.083.079-.443.576-.842a4.093,4.093,0,0,1,2.329-.847,3.936,3.936,0,0,1,2.361.635c.51.354.7.7.61.789" transform="translate(-68.404 -31.891)" fill="#263238"/>
              <path id="Trazado_979242" data-name="Trazado 979242" d="M149.492,70.339a10.588,10.588,0,0,1,2.583-.6c.408-.063.792-.164.847-.447a2.089,2.089,0,0,0-.334-1.2l-1.367-3.06c-1.9-4.359-3.3-7.952-3.127-8.027s1.863,3.4,3.766,7.757q.689,1.613,1.317,3.081a2.375,2.375,0,0,1,.293,1.6,1.03,1.03,0,0,1-.644.633,2.778,2.778,0,0,1-.691.131,10.5,10.5,0,0,1-2.642.135" transform="translate(-81.892 -31.525)" fill="#263238"/>
              <path id="Trazado_979243" data-name="Trazado 979243" d="M140.524,89.849c.26-.028.35,1.713,1.9,2.876s3.4.879,3.423,1.121c.03.108-.4.359-1.18.419a4.344,4.344,0,0,1-2.853-.837,3.785,3.785,0,0,1-1.483-2.417c-.1-.725.07-1.167.19-1.162" transform="translate(-77.592 -49.689)" fill="#263238"/>
              <path id="Trazado_979244" data-name="Trazado 979244" d="M128.1,45.434c-.136.444-1.749.317-3.62.638-1.879.283-3.369.91-3.639.53-.12-.181.124-.605.717-1.058a6.4,6.4,0,0,1,5.53-.89c.705.244,1.07.57,1.012.78" transform="translate(-66.81 -24.542)" fill="#263238"/>
              <path id="Trazado_979245" data-name="Trazado 979245" d="M163.531,46.219c-.264.379-1.388.055-2.719.1-1.332,0-2.443.367-2.721,0-.123-.179.036-.553.511-.923a3.94,3.94,0,0,1,4.383-.082c.488.352.661.72.545.9" transform="translate(-87.408 -24.715)" fill="#263238"/>
              <path id="Trazado_979246" data-name="Trazado 979246" d="M127.7,19.381s-3.08-6.4-6.309-7.773c-3.909-1.658-5.345,2.614-9.034,1.778s-7.421-2.428-11,.569c-3.917,3.28-1.9,5.345-1.924,9.992-.086,18.837-3.253,24.32-4.669,15.52-.155-.964-2.884-1.6-3.486-5.678-.781-5.285-1.306-11.724-.308-15.552.842-3.227,2.544-5.512,5.672-8.093,4.938-4.075,11.977-4.507,16.784-4.263s14.3,5.29,14.273,13.5" transform="translate(-50.007 -3.222)" fill="#263238"/>
              <path id="Trazado_979247" data-name="Trazado 979247" d="M92.993,77.153a2.838,2.838,0,0,0-3.2-2.58c-1.939.282-4.051,1.5-3.722,5.514.583,7.128,7.619,5.073,7.615,4.868,0-.14-.426-4.821-.7-7.8" transform="translate(-47.583 -41.225)" fill="#9f7362"/>
              <path id="Trazado_979248" data-name="Trazado 979248" d="M94.968,85.272c-.033-.02-.117.1-.319.211a1.244,1.244,0,0,1-.927.095,3.082,3.082,0,0,1-1.648-2.64,4.114,4.114,0,0,1,.2-1.806,1.439,1.439,0,0,1,.856-1.029.634.634,0,0,1,.761.28c.112.191.078.337.117.347.021.016.143-.132.062-.422a.8.8,0,0,0-.317-.424.939.939,0,0,0-.7-.125,1.75,1.75,0,0,0-1.206,1.211,4.229,4.229,0,0,0-.268,2.022c.163,1.433,1.008,2.717,2.063,2.93a1.336,1.336,0,0,0,1.12-.281c.207-.194.231-.357.205-.368" transform="translate(-50.632 -44.098)" fill="#65463c"/>
              <path id="Trazado_979249" data-name="Trazado 979249" d="M86.037,23.858A7.316,7.316,0,0,0,89.373,25.2a2.515,2.515,0,0,0,2.7-1.9c.065-.541-.1-1.156.235-1.588.4-.515,1.18-.4,1.828-.362A4.922,4.922,0,0,0,99.06,17.57a2.066,2.066,0,0,0,2.78.123,11.064,11.064,0,0,0,1.985-2.347,3.17,3.17,0,0,1,2.577-1.454,7.634,7.634,0,0,0,1.693.286c1.007-.14,1.441-1.349,1.545-2.36s.164-2.188.993-2.776c.768-.545,1.812-.3,2.749-.213s2.128-.187,2.322-1.109a1.831,1.831,0,0,0-.414-1.379,4.993,4.993,0,0,0-5.98-1.6A6.936,6.936,0,0,0,103.3.229c-2.653-.147-5.121-.9-6.273,1.492-1.7-1.4-4.3.433-6.415,1.028A6.989,6.989,0,0,0,85.986,7.1a5.1,5.1,0,0,0-5.107,2.021,5.1,5.1,0,0,0-.14,5.49A4.73,4.73,0,0,0,78.328,18.5c.051,1.6,1.682,3.106,3.2,2.61a2.757,2.757,0,0,0,4.9,2.51" transform="translate(-43.317 0)" fill="#263238"/>
              <path id="Trazado_979250" data-name="Trazado 979250" d="M100.546,56.145a28.361,28.361,0,0,1,.042-3.633,28.411,28.411,0,0,1,.275-3.624,28.522,28.522,0,0,1-.042,3.634,28.374,28.374,0,0,1-.274,3.624" transform="translate(-55.584 -27.037)" fill="#e0e0e0"/>
              <path id="Trazado_979251" data-name="Trazado 979251" d="M90.423,54.958a15.284,15.284,0,0,1,.11-3.185q.119-1.236.216-2.238a4.406,4.406,0,0,1,.126-.926,15.251,15.251,0,0,1-.11,3.185q-.119,1.235-.216,2.238a4.406,4.406,0,0,1-.126.926" transform="translate(-49.983 -26.882)" fill="#e0e0e0"/>
              <path id="Trazado_979252" data-name="Trazado 979252" d="M90.773,69.456c0,5-3.658,9.058-8.17,9.058s-8.17-4.055-8.17-9.058S78.091,60.4,82.6,60.4s8.17,4.055,8.17,9.058" transform="translate(-41.164 -33.402)" fill="#455a64"/>
              <path id="Trazado_979253" data-name="Trazado 979253" d="M88.926,72.538a14.926,14.926,0,0,0-.21-1.5,6.929,6.929,0,0,0-.607-1.656,6.179,6.179,0,0,0-1.426-1.832A5.649,5.649,0,0,0,84.2,66.283a5.281,5.281,0,0,0-3.157.312A5.884,5.884,0,0,0,78.4,68.9a7.059,7.059,0,0,0-.767,1.719,7.059,7.059,0,0,0,0,3.843,7.041,7.041,0,0,0,.767,1.719,5.886,5.886,0,0,0,2.647,2.3,5.287,5.287,0,0,0,3.157.312,5.652,5.652,0,0,0,2.481-1.269,6.186,6.186,0,0,0,1.426-1.832,6.943,6.943,0,0,0,.607-1.656,14.946,14.946,0,0,0,.21-1.5,2.564,2.564,0,0,1,0,.394,5.965,5.965,0,0,1-.127,1.124,6.771,6.771,0,0,1-.579,1.7,6.247,6.247,0,0,1-1.433,1.9,5.779,5.779,0,0,1-2.55,1.334,5.454,5.454,0,0,1-3.281-.3A6.083,6.083,0,0,1,78.2,76.3a7.275,7.275,0,0,1-.8-1.778,7.266,7.266,0,0,1,0-3.97,7.24,7.24,0,0,1,.8-1.777A6.085,6.085,0,0,1,80.962,66.4a5.46,5.46,0,0,1,3.281-.3,5.788,5.788,0,0,1,2.55,1.334,6.245,6.245,0,0,1,1.433,1.9,6.787,6.787,0,0,1,.579,1.7,5.973,5.973,0,0,1,.127,1.124,2.573,2.573,0,0,1,0,.394" transform="translate(-42.656 -36.484)" fill="#263238"/>
              <path id="Trazado_979254" data-name="Trazado 979254" d="M90.485,25.912S89.337,7.677,112.267,6.67c0,0,7.984,0,11.313,4.167a16.466,16.466,0,0,0-11.64-1.429c-5.031,1.414-14.94,4.023-16.278,16.5Z" transform="translate(-50.036 -3.689)" fill="#455a64"/>
              <g id="Grupo_1113060" data-name="Grupo 1113060" transform="translate(35.264 32.698)" opacity="0.3">
                <g id="Grupo_1113059" data-name="Grupo 1113059">
                  <g id="Grupo_1113058" data-name="Grupo 1113058" clip-path="url(#clip-path-10)">
                    <path id="Trazado_979255" data-name="Trazado 979255" d="M78.895,79.611a5.638,5.638,0,0,0,5.467,4.242,6.468,6.468,0,0,0,5.748-4.1,6.61,6.61,0,0,0-.961-6.6,7.614,7.614,0,0,1,.076,6.332,6.227,6.227,0,0,1-4.944,3.49,5.881,5.881,0,0,1-5.386-3.367" transform="translate(-78.895 -73.156)"/>
                  </g>
                </g>
              </g>
              <path id="Trazado_979256" data-name="Trazado 979256" d="M92.655,61.415a9.744,9.744,0,0,0-6.974-.47,3.173,3.173,0,0,1,.988-.393,7.806,7.806,0,0,1,5.059.341,3.18,3.18,0,0,1,.927.522" transform="translate(-47.384 -33.339)" fill="#263238"/>
              <path id="Trazado_979257" data-name="Trazado 979257" d="M158.359,11.012a5.045,5.045,0,0,1,.69.367,6.641,6.641,0,0,1,.774.492,10.946,10.946,0,0,1,.974.728l.544.455c.187.16.363.348.554.531a16.052,16.052,0,0,1,1.149,1.246,18.424,18.424,0,0,1,2.111,3.253,18.461,18.461,0,0,1,1.319,3.648,16.137,16.137,0,0,1,.3,1.668c.03.264.074.517.089.763s.023.481.034.708a10.968,10.968,0,0,1-.008,1.216,6.586,6.586,0,0,1-.075.914,4.945,4.945,0,0,1-.123.771c-.057-.005.136-1.109.042-2.894q-.023-.335-.049-.7c-.019-.243-.067-.492-.1-.752-.058-.523-.193-1.067-.317-1.644a19.13,19.13,0,0,0-1.319-3.595,19.177,19.177,0,0,0-2.069-3.221c-.384-.447-.738-.883-1.119-1.244-.187-.184-.357-.373-.539-.535l-.528-.461c-1.366-1.153-2.363-1.665-2.333-1.714" transform="translate(-87.577 -6.089)" fill="#455a64"/>
              <path id="Trazado_979258" data-name="Trazado 979258" d="M77.115,70.634s-.024.011-.073.021a1.456,1.456,0,0,1-.22.032,2.492,2.492,0,0,1-.851-.079A3.362,3.362,0,0,1,74.762,70a4.318,4.318,0,0,1-1.138-1.387,8.911,8.911,0,0,1-.752-2.035,18.669,18.669,0,0,1-.464-2.44,11.291,11.291,0,0,1,.629-5.625,7.456,7.456,0,0,1,3.851-4.081,19.991,19.991,0,0,1,2.387-.68,4.069,4.069,0,0,0,3.072-3.726,5.423,5.423,0,0,0-.083-1.13,1.356,1.356,0,0,1,.089.284,3.44,3.44,0,0,1,.084.85,4.039,4.039,0,0,1-.253,1.329,4.146,4.146,0,0,1-.961,1.516,4.233,4.233,0,0,1-1.895,1.063,20.718,20.718,0,0,0-2.358.692,7.29,7.29,0,0,0-3.72,3.973,11.216,11.216,0,0,0-.631,5.511,18.989,18.989,0,0,0,.438,2.417,8.917,8.917,0,0,0,.71,2.006A3.79,3.79,0,0,0,76,70.521a3.307,3.307,0,0,0,1.12.113" transform="translate(-39.988 -27.039)" fill="#455a64"/>
              <path id="Trazado_979259" data-name="Trazado 979259" d="M27.176,192.726,6.093,188.174s2.894-15.861,6.49-31.944c2.868-12.825,17.042-16.386,17.042-16.386h0L46.049,132.6l2.215-8.525c9.031,4.464,17.786,8.758,23.073,10.908l4.833-5.339,2.054,6.414,1.731.18s5.618.463,6.338.5c5.748.319,12.454,5.235,15.647,12.884,2.248,5.385,10.208,24.523,11.842,29.056l6.745-21.338,15.855,5.79s-6.731,31.265-9.072,39.258c-1.272,4.343-6.333,12.622-16.087,10.015l-.136-.041a15.291,15.291,0,0,1-9.914-9.733L95.765,189.8l-1.893,35.94-71.753-.223,5.1-30.2Z" transform="translate(-3.37 -68.618)" fill="#7b6f3f"/>
              <path id="Trazado_979260" data-name="Trazado 979260" d="M208.572,205.326c.064.005-.533,7.911-1.333,17.657s-1.5,17.645-1.565,17.639.532-7.91,1.333-17.658,1.5-17.643,1.565-17.637" transform="translate(-113.742 -113.552)" fill="#263238"/>
              <path id="Trazado_979261" data-name="Trazado 979261" d="M94.917,132.862l21.337,10.712,3.974-8.679s-7.145-3.073-13.636-6.536c-6.625-3.535-9.205-4.282-9.205-4.282" transform="translate(-52.492 -68.618)" fill="#e0e0e0"/>
              <path id="Trazado_979262" data-name="Trazado 979262" d="M156.9,136.536l-4.833,5.34,4.358,7.771,2.529-6.7" transform="translate(-84.097 -75.509)" fill="#e0e0e0"/>
              <path id="Trazado_979263" data-name="Trazado 979263" d="M47.969,166.015c-.038.048.667.6,1.663,1.623a20.133,20.133,0,0,1,5.217,9.7c.307,1.4.375,2.288.436,2.283a2.208,2.208,0,0,0,.005-.629,12.9,12.9,0,0,0-.2-1.7,18.149,18.149,0,0,0-5.283-9.828,12.923,12.923,0,0,0-1.306-1.109,2.218,2.218,0,0,0-.528-.343" transform="translate(-26.528 -91.81)" fill="#263238"/>
              <path id="Trazado_979264" data-name="Trazado 979264" d="M151.543,148.279c-.042.029.473.818,1.253,2.124s1.811,3.135,2.794,5.233l.234.5.153.331.156-.328a40.973,40.973,0,0,0,2.055-5.2c.213-.677.366-1.229.459-1.612a2.137,2.137,0,0,0,.11-.6c-.047-.013-.31.813-.792,2.141s-1.2,3.155-2.141,5.131l.309,0-.235-.507a43.43,43.43,0,0,0-2.9-5.215c-.418-.64-.774-1.144-1.03-1.486a2.453,2.453,0,0,0-.429-.509" transform="translate(-83.807 -82.003)" fill="#263238"/>
              <path id="Trazado_979265" data-name="Trazado 979265" d="M99.211,145.887a1.63,1.63,0,0,1,.295.122l.824.389,3.011,1.471,9.9,4.93,5.44,2.741-.146.051,2.9-6.235.847-1.775.233-.468a.724.724,0,0,1,.091-.156.661.661,0,0,1-.059.171l-.2.482-.791,1.8-2.824,6.27-.046.1-.1-.05-5.449-2.725-9.866-4.991-2.978-1.537-.8-.428a1.63,1.63,0,0,1-.274-.164" transform="translate(-54.867 -80.68)" fill="#263238"/>
              <g id="Grupo_1113063" data-name="Grupo 1113063" transform="translate(92.395 102.053)" opacity="0.3">
                <g id="Grupo_1113062" data-name="Grupo 1113062">
                  <g id="Grupo_1113061" data-name="Grupo 1113061" clip-path="url(#clip-path-11)">
                    <path id="Trazado_979266" data-name="Trazado 979266" d="M214.885,265.368a98.182,98.182,0,0,0,1.958-16.6,22.9,22.9,0,0,0,.105-5.088c-.853-4.9-4.473-12.64-8.642-15.353l-1.591,19.127c2.294,5.766,4.31,10.77,6.258,14.983a27.969,27.969,0,0,0,1.912,2.935" transform="translate(-206.715 -228.323)"/>
                  </g>
                </g>
              </g>
              <path id="Trazado_979267" data-name="Trazado 979267" d="M4.8,243.155S.428,264.3.071,269.169c-.7,9.58,3.892,15.322,8.229,18.044,4.5,2.823,29.9,4.156,29.9,4.156l1.54-15.19L23.233,266.2l2.238-17.312Z" transform="translate(0 -134.472)" fill="#7b6f3f"/>
              <path id="Trazado_979268" data-name="Trazado 979268" d="M52.18,251.341a1.967,1.967,0,0,1,.033-.349q.052-.373.138-.993c.134-.885.32-2.125.55-3.647.486-3.1,1.151-7.337,1.886-12.02,1.452-9.158,2.5-15.756,2.694-17a1.962,1.962,0,0,1-.012.35c-.011.231-.055.566-.106,1-.1.865-.277,2.114-.5,3.655-.447,3.082-1.1,7.335-1.845,12.029s-1.439,8.938-1.954,12.009l-.623,3.635c-.076.411-.136.739-.181.986a1.965,1.965,0,0,1-.079.341" transform="translate(-28.856 -120.194)" fill="#263238"/>
              <path id="Trazado_979269" data-name="Trazado 979269" d="M15.523,310.613a.93.93,0,0,1,.126.1,2.25,2.25,0,0,0,.375.28,7.718,7.718,0,0,0,1.639.763,41.135,41.135,0,0,0,6.546,1.55,195.175,195.175,0,0,0,22.583,2.2l-.119.1c.151-1.5.311-3.076.473-4.678.375-3.681.737-7.234,1.071-10.512l.054.107-16-9.665-4.623-2.817-1.23-.761-.315-.2a.616.616,0,0,1-.1-.074.676.676,0,0,1,.114.057l.324.184,1.249.729,4.657,2.761,16.042,9.594.061.036-.007.071c-.331,3.278-.69,6.831-1.061,10.512-.163,1.6-.323,3.181-.476,4.678l-.011.109-.109,0a185.653,185.653,0,0,1-22.6-2.282,39.125,39.125,0,0,1-6.549-1.623A7.283,7.283,0,0,1,16,311.028a1.994,1.994,0,0,1-.366-.3.869.869,0,0,1-.111-.116" transform="translate(-8.585 -158.727)" fill="#263238"/>
              <path id="Trazado_979270" data-name="Trazado 979270" d="M233.488,263.516a5.007,5.007,0,0,1,.14-.767c.1-.491.268-1.2.479-2.068.426-1.741,1.058-4.138,1.9-6.741s1.753-4.913,2.435-6.57c.343-.828.627-1.5.832-1.953a5.013,5.013,0,0,1,.338-.7,5.032,5.032,0,0,1-.255.737l-.763,1.979c-.642,1.671-1.518,3.985-2.366,6.581s-1.5,4.981-1.967,6.71l-.55,2.049a5.009,5.009,0,0,1-.228.745" transform="translate(-129.124 -135.335)" fill="#263238"/>
              <g id="Grupo_1113066" data-name="Grupo 1113066" transform="translate(11.947 125.01)" opacity="0.3">
                <g id="Grupo_1113065" data-name="Grupo 1113065">
                  <g id="Grupo_1113064" data-name="Grupo 1113064" clip-path="url(#clip-path-12)">
                    <path id="Trazado_979271" data-name="Trazado 979271" d="M26.828,280.134a1.008,1.008,0,0,1,.641-.364,5.754,5.754,0,0,1,3.606.687,24.6,24.6,0,0,1,8.744,7.018l-.284-.163c-3.869-2.284-7.3-4.6-11.442-5.71a2.519,2.519,0,0,1-1.039-.447.821.821,0,0,1-.226-1.02" transform="translate(-26.729 -279.683)"/>
                  </g>
                </g>
              </g>
              <path id="Trazado_979272" data-name="Trazado 979272" d="M159.6,248.308l1.934,1.948H120.162l-6.907,44.02-1.548-2.647L118.74,248.6Z" transform="translate(-61.777 -137.322)" fill="#e0e0e0"/>
              <path id="Trazado_979273" data-name="Trazado 979273" d="M120.17,266.908l1.907-14.241h42.555l-7.311,44.245-42.151-.225Z" transform="translate(-63.692 -139.733)" fill="#455a64"/>
              <path id="Trazado_979274" data-name="Trazado 979274" d="M130.663,247.766s.1-.044.288-.12.478-.187.839-.361a4.308,4.308,0,0,0,1.214-.83,2.352,2.352,0,0,0,.716-1.8,1.413,1.413,0,0,0-.545-1,1.289,1.289,0,0,0-1.2-.266,1.111,1.111,0,0,0-.716,1.078,2.493,2.493,0,0,0,.475,1.43,4.5,4.5,0,0,0,2.912,1.628,4.65,4.65,0,0,0,1.852-.092,3.439,3.439,0,0,0,1.676-.949,2.157,2.157,0,0,0,.493-.857,1.716,1.716,0,0,0-.035-.994,1.568,1.568,0,0,0-.594-.814,1.11,1.11,0,0,0-.979-.139,1.733,1.733,0,0,0-1.039,1.73,2.364,2.364,0,0,0,1.309,1.751,5.518,5.518,0,0,0,4.726.073A4.08,4.08,0,0,0,144,245.677a1.462,1.462,0,0,0,.116-1.2.987.987,0,0,0-.884-.718,1.14,1.14,0,0,0-.963.683,1.42,1.42,0,0,0-.06,1.239,3.864,3.864,0,0,0,2.024,1.735,7.479,7.479,0,0,0,2.69.8,3.968,3.968,0,0,0,2.682-.728,2.844,2.844,0,0,0,.9-1.087,2.4,2.4,0,0,0,.158-1.394,2.254,2.254,0,0,0-.646-1.249,1.55,1.55,0,0,0-1.295-.43,1.918,1.918,0,0,0-1.218.7,1.309,1.309,0,0,0-.219,1.329,2.241,2.241,0,0,0,1,1.043,6.47,6.47,0,0,0,1.413.575,8.068,8.068,0,0,0,3.032.276,4.53,4.53,0,0,0,1.443-.38,2.361,2.361,0,0,0,1.075-.946,1.779,1.779,0,0,0,.1-1.379,1.18,1.18,0,0,0-.966-.863,1.286,1.286,0,0,0-1.155.609,1.634,1.634,0,0,0-.268,1.317,3.113,3.113,0,0,0,1.891,1.954,5.594,5.594,0,0,0,2.743.447,4.641,4.641,0,0,0,2.525-.957,2.688,2.688,0,0,0,.8-1.037,2.115,2.115,0,0,0,.148-.628,1.5,1.5,0,0,0-.109-.616,1.821,1.821,0,0,0-.845-.912,1.112,1.112,0,0,0-1.155.024,1.211,1.211,0,0,0-.5,1.045,2.444,2.444,0,0,0,.339,1.179,3.7,3.7,0,0,0,1.88,1.513,4.871,4.871,0,0,0,2.357.3,4.436,4.436,0,0,0,2.132-.837,2.782,2.782,0,0,0,1.16-1.808,1.606,1.606,0,0,0-.971-1.667,1.111,1.111,0,0,0-.948.1,1.549,1.549,0,0,0-.621.74,2.034,2.034,0,0,0,.262,1.832,3.589,3.589,0,0,0,1.356,1.239,4.214,4.214,0,0,0,3.312.28,2.86,2.86,0,0,0,1.994-2,1.406,1.406,0,0,0-1.344-1.671,1.066,1.066,0,0,0-.823.563,1.7,1.7,0,0,0-.208.893,2.377,2.377,0,0,0,.565,1.33,7.212,7.212,0,0,0,.617.671c.147.144.219.221.219.221s-.083-.065-.236-.2a6.325,6.325,0,0,1-.637-.659,2.41,2.41,0,0,1-.6-1.356,1.77,1.77,0,0,1,.208-.935,1.15,1.15,0,0,1,.885-.614,1.5,1.5,0,0,1,1.462,1.78,2.972,2.972,0,0,1-2.061,2.108,4.345,4.345,0,0,1-3.424-.272,3.734,3.734,0,0,1-1.419-1.287,2.191,2.191,0,0,1-.282-1.977,1.715,1.715,0,0,1,.687-.822,1.281,1.281,0,0,1,1.091-.118,1.777,1.777,0,0,1,1.092,1.849,2.958,2.958,0,0,1-1.226,1.937,4.62,4.62,0,0,1-2.221.88,5.053,5.053,0,0,1-2.454-.306,4.609,4.609,0,0,1-1.115-.625,3.156,3.156,0,0,1-.87-.972,2.648,2.648,0,0,1-.368-1.279,1.423,1.423,0,0,1,.588-1.219,1.326,1.326,0,0,1,1.37-.041,2.029,2.029,0,0,1,.948,1.02,1.719,1.719,0,0,1,.126.711,2.339,2.339,0,0,1-.163.7,2.9,2.9,0,0,1-.864,1.125,4.858,4.858,0,0,1-2.644,1.009,5.817,5.817,0,0,1-2.854-.462,4.224,4.224,0,0,1-1.245-.812,2.651,2.651,0,0,1-.778-1.3,1.862,1.862,0,0,1,.3-1.5,1.514,1.514,0,0,1,1.366-.707,1.411,1.411,0,0,1,1.161,1.018,2.008,2.008,0,0,1-.119,1.563,2.587,2.587,0,0,1-1.178,1.045,4.75,4.75,0,0,1-1.518.4,8.292,8.292,0,0,1-3.121-.284,6.677,6.677,0,0,1-1.467-.6,2.464,2.464,0,0,1-1.1-1.158,1.545,1.545,0,0,1,.253-1.559,2.148,2.148,0,0,1,1.37-.784,1.785,1.785,0,0,1,1.484.49,2.483,2.483,0,0,1,.714,1.378,2.632,2.632,0,0,1-.176,1.528,3.077,3.077,0,0,1-.967,1.175,4.2,4.2,0,0,1-2.835.77,7.685,7.685,0,0,1-2.771-.822,6.759,6.759,0,0,1-1.228-.734,2.8,2.8,0,0,1-.9-1.117,1.642,1.642,0,0,1,.07-1.421,1.351,1.351,0,0,1,1.158-.8,1.2,1.2,0,0,1,1.081.862,1.674,1.674,0,0,1-.131,1.368,3.146,3.146,0,0,1-.906,1,5.931,5.931,0,0,1-1.139.655,6.06,6.06,0,0,1-2.5.5,5.073,5.073,0,0,1-2.4-.6,2.546,2.546,0,0,1-1.4-1.906A1.91,1.91,0,0,1,137,243.513a1.289,1.289,0,0,1,1.134.164,1.74,1.74,0,0,1,.659.906,1.884,1.884,0,0,1,.034,1.094,2.32,2.32,0,0,1-.533.923,3.592,3.592,0,0,1-1.758.99,4.788,4.788,0,0,1-1.913.087,4.628,4.628,0,0,1-3-1.7,2.614,2.614,0,0,1-.488-1.508,1.37,1.37,0,0,1,.218-.732,1.161,1.161,0,0,1,.582-.448,1.392,1.392,0,0,1,1.3.292,1.508,1.508,0,0,1,.573,1.069,2.423,2.423,0,0,1-.757,1.854,4.3,4.3,0,0,1-1.243.823,9.341,9.341,0,0,1-1.147.439" transform="translate(-72.261 -134.428)" fill="#263238"/>
              <path id="Trazado_979275" data-name="Trazado 979275" d="M87,299.339l2.431.229a25.4,25.4,0,0,1,.865-4.888c.551-1.338,1.574-5.587,1.574-5.587s10.858-4.564,11.094-4.564,10.858,2.912,10.858,2.912-.236,2.911-3.855,3.068a25,25,0,0,1-6.452-.551l-3.384,1.259,6.767.434,11.881,7.122s-.079,2.122-4.721,1.02a18.22,18.22,0,0,1-7-3.069l-8.768,1.293,9.24.438,6.924,3.462a2.176,2.176,0,0,1-2.893,2.161c-2.833-.708-4.739-1.138-4.739-1.138l-8.255.98,7,.388s4.721.127,4.485,1.387-3.7,2.36-3.7,2.36l-4.926.865s-.189,2.2-1.054,2.912-2.2,1.692-2.99,1.711-11.879.6-11.879.6Z" transform="translate(-47.281 -157.353)" fill="#9f7362"/>
              <path id="Trazado_979276" data-name="Trazado 979276" d="M98.393,327.527a2.046,2.046,0,0,1-.418-.273,6.672,6.672,0,0,1-.981-.948,7.8,7.8,0,0,1-1.778-4.092,7.413,7.413,0,0,1,.111-2.482c.163-.752.423-1.38.5-1.938a2.609,2.609,0,0,0-.1-1.3c-.111-.293-.231-.428-.215-.441a.926.926,0,0,1,.3.4,2.519,2.519,0,0,1,.181,1.359c-.056.584-.306,1.233-.45,1.961a7.533,7.533,0,0,0-.089,2.408,8.074,8.074,0,0,0,1.674,4.017,14.489,14.489,0,0,0,1.271,1.325" transform="translate(-52.627 -174.786)" fill="#65463c"/>
              <path id="Trazado_979277" data-name="Trazado 979277" d="M105.383,339.439a28.2,28.2,0,0,1,3.615-.245,28.316,28.316,0,0,1,3.624-.013,28.2,28.2,0,0,1-3.615.245,28.226,28.226,0,0,1-3.623.013" transform="translate(-58.28 -187.553)" fill="#65463c"/>
              <path id="Trazado_979278" data-name="Trazado 979278" d="M106.587,328.074a15.889,15.889,0,0,1,3.836.058,15.892,15.892,0,0,1-3.836-.058" transform="translate(-58.946 -181.385)" fill="#65463c"/>
              <path id="Trazado_979279" data-name="Trazado 979279" d="M105.773,300.381c.011-.072,1.206.134,2.676-.015s2.6-.567,2.63-.5a7.7,7.7,0,0,1-5.305.513" transform="translate(-58.495 -165.832)" fill="#65463c"/>
            </g>
          </g>
          <path id="Trazado_979280" data-name="Trazado 979280" d="M335.974,193.887l7.092,69.515h4.524l-7.466-70.921Z" transform="translate(-185.804 -106.448)" fill="#455a64"/>
          <g id="Grupo_1113070" data-name="Grupo 1113070">
            <g id="Grupo_1113069" data-name="Grupo 1113069" clip-path="url(#clip-path)">
              <path id="Trazado_979281" data-name="Trazado 979281" d="M406.748,100.213c.015.065.029.131.043.2a6.589,6.589,0,0,1-4.832,7.777l-10.722,2.662L387.507,99.4l10.542-3.922a6.567,6.567,0,0,1,8.7,4.734" transform="translate(-214.303 -52.573)" fill="#455a64"/>
              <path id="Trazado_979282" data-name="Trazado 979282" d="M422.562,111.055a9.063,9.063,0,0,1,.319-1.446l.847-3.461c.258-1.156.5-2.24.776-3.478a9.061,9.061,0,0,1,.355-1.437,7.657,7.657,0,0,1-.174,1.471c-.147.9-.386,2.144-.7,3.5s-.655,2.577-.923,3.451a7.677,7.677,0,0,1-.5,1.4" transform="translate(-233.687 -55.985)" fill="#263238"/>
              <path id="Trazado_979283" data-name="Trazado 979283" d="M415.788,109.621c-.071-.013.4-2.911,1.062-6.471s1.247-6.437,1.318-6.424-.4,2.91-1.062,6.471-1.247,6.436-1.318,6.423" transform="translate(-229.94 -53.492)" fill="#263238"/>
              <path id="Trazado_979284" data-name="Trazado 979284" d="M407.454,109.6c-.071-.015.522-3.187,1.324-7.086s1.509-7.049,1.58-7.034-.522,3.187-1.324,7.087-1.509,7.048-1.58,7.034" transform="translate(-225.331 -52.803)" fill="#263238"/>
              <path id="Trazado_979285" data-name="Trazado 979285" d="M401.236,108.387a7.989,7.989,0,0,1,.113-1.5c.11-.925.3-2.2.56-3.6s.552-2.652.787-3.553a7.932,7.932,0,0,1,.443-1.443,9.5,9.5,0,0,1-.263,1.484c-.251,1.259-.473,2.371-.71,3.56l-.635,3.574a9.433,9.433,0,0,1-.3,1.479" transform="translate(-221.889 -54.357)" fill="#263238"/>
              <path id="Trazado_979286" data-name="Trazado 979286" d="M395.334,104a11.678,11.678,0,0,1,.8-3.385,11.679,11.679,0,0,1-.8,3.385" transform="translate(-218.621 -55.645)" fill="#263238"/>
              <path id="Trazado_979287" data-name="Trazado 979287" d="M402.465,122.927a44.267,44.267,0,0,1,6.714,1.016,44.244,44.244,0,0,1-6.714-1.016" transform="translate(-222.576 -67.973)" fill="#263238"/>
              <path id="Trazado_979288" data-name="Trazado 979288" d="M397.822,114.522c.012-.071,3,.384,6.673,1.016s6.641,1.2,6.629,1.273-3-.384-6.673-1.016-6.641-1.2-6.629-1.273" transform="translate(-220.008 -63.33)" fill="#263238"/>
              <path id="Trazado_979289" data-name="Trazado 979289" d="M394.226,106.675c.01-.072,3.727.4,8.3,1.058s8.275,1.246,8.265,1.317-3.726-.4-8.3-1.059-8.274-1.246-8.264-1.317" transform="translate(-218.019 -58.991)" fill="#263238"/>
              <path id="Trazado_979290" data-name="Trazado 979290" d="M401.7,99.612c.01-.072,2.811.27,6.255.761s6.229.948,6.219,1.019-2.811-.27-6.256-.761-6.229-.948-6.218-1.019" transform="translate(-222.153 -55.083)" fill="#263238"/>
              <path id="Trazado_979291" data-name="Trazado 979291" d="M365.849,101.267l4.425,12.971-20.945,6.606a3.923,3.923,0,0,1-4.634-2.6l-1.328-4.061a3.923,3.923,0,0,1,2.141-4.806Z" transform="translate(-189.785 -56.004)" fill="#263238"/>
              <path id="Trazado_979292" data-name="Trazado 979292" d="M320.739,159.774l5.327,3.652,28.939-42.216a1.073,1.073,0,0,0-.279-1.491l-3.558-2.439a1.073,1.073,0,0,0-1.491.278Z" transform="translate(-177.379 -64.755)" fill="#455a64"/>
              <path id="Trazado_979293" data-name="Trazado 979293" d="M384.238,124.7a2.075,2.075,0,1,0,2.075-2.075,2.075,2.075,0,0,0-2.075,2.075" transform="translate(-212.495 -67.817)" fill="#263238"/>
              <path id="Trazado_979294" data-name="Trazado 979294" d="M342,132.775l-6.032,1.785-.447-1.785,6.479-1.9Z" transform="translate(-185.555 -72.376)" fill="#263238"/>
              <path id="Trazado_979295" data-name="Trazado 979295" d="M339.872,170.05a.369.369,0,0,1,.089-.054l.27-.135a8.585,8.585,0,0,0,.987-.606,11.106,11.106,0,0,0,2.855-3.123,8.845,8.845,0,0,0,1.137-2.683,8.382,8.382,0,0,0-1.42-6.7,12.079,12.079,0,0,0-2.943-2.667,36.807,36.807,0,0,1-3.269-2.373,10.671,10.671,0,0,1-2.338-2.958,11.794,11.794,0,0,1-1.151-3.213,13.271,13.271,0,0,1-.211-2.967,11.141,11.141,0,0,1,1.057-4.148c.116-.226.207-.433.308-.6l.266-.417.167-.253c.039-.056.06-.084.063-.082a.356.356,0,0,1-.043.1l-.147.265-.245.426c-.094.169-.178.378-.287.6a11.432,11.432,0,0,0-.974,4.118,13.313,13.313,0,0,0,.235,2.92,11.72,11.72,0,0,0,1.15,3.149,10.53,10.53,0,0,0,2.3,2.888,37.432,37.432,0,0,0,3.252,2.353,12.211,12.211,0,0,1,2.994,2.723,8.473,8.473,0,0,1,1.486,3.464,8.372,8.372,0,0,1-.062,3.412,8.921,8.921,0,0,1-1.186,2.727,10.826,10.826,0,0,1-2.943,3.11,5.492,5.492,0,0,1-1.4.721" transform="translate(-184.641 -75.806)" fill="#263238"/>
              <path id="Trazado_979296" data-name="Trazado 979296" d="M348.025,279.009a.8.8,0,0,1-.028-.158l-.058-.464c-.047-.423-.113-1.024-.2-1.79-.165-1.555-.387-3.806-.645-6.59-.5-5.579-1.2-13.265-1.964-21.753-.213-2.122-.385-4.2-.674-6.184a20.646,20.646,0,0,0-1.5-5.55,12.469,12.469,0,0,0-1.358-2.3,18.976,18.976,0,0,0-1.678-1.9A38.572,38.572,0,0,1,336.776,229a8.634,8.634,0,0,1-1.71-3.363,5.531,5.531,0,0,1,.1-2.843,4.121,4.121,0,0,1,.884-1.568,2.826,2.826,0,0,1,.343-.321.813.813,0,0,1,.128-.1c.012.014-.169.138-.435.449a4.206,4.206,0,0,0-.833,1.563,5.491,5.491,0,0,0-.059,2.788,8.562,8.562,0,0,0,1.713,3.291,39.068,39.068,0,0,0,3.155,3.291,19.026,19.026,0,0,1,1.7,1.908,12.632,12.632,0,0,1,1.39,2.336,20.744,20.744,0,0,1,1.53,5.606c.293,2,.467,4.072.68,6.195.8,8.493,1.414,16.191,1.9,21.761.24,2.774.435,5.024.572,6.6.066.768.118,1.369.154,1.793.015.2.026.35.035.467a.8.8,0,0,1,0,.16" transform="translate(-185.225 -122.112)" fill="#263238"/>
              <path id="Trazado_979297" data-name="Trazado 979297" d="M234.472,196.258l-.086.182a6.589,6.589,0,0,0,2.961,8.664l9.85,5,6.206-10.318-9.391-6.19a6.568,6.568,0,0,0-9.54,2.659" transform="translate(-129.279 -106.466)" fill="#455a64"/>
              <path id="Trazado_979298" data-name="Trazado 979298" d="M239.029,206.4a9.1,9.1,0,0,0,.014-1.48c-.017-1.269-.032-2.379-.047-3.563.008-1.185.016-2.3.025-3.564a9.071,9.071,0,0,0-.023-1.479,7.658,7.658,0,0,0-.161,1.473c-.059.912-.105,2.175-.1,3.571s.059,2.659.124,3.57a7.69,7.69,0,0,0,.17,1.472" transform="translate(-132.028 -108.569)" fill="#263238"/>
              <path id="Trazado_979299" data-name="Trazado 979299" d="M245.425,206.5c.072,0,.26-2.927.419-6.544s.231-6.553.159-6.556-.26,2.926-.42,6.545-.231,6.552-.159,6.555" transform="translate(-135.712 -106.958)" fill="#263238"/>
              <path id="Trazado_979300" data-name="Trazado 979300" d="M253.193,208.211c.072,0,.207-3.224.3-7.2s.113-7.208.041-7.21-.207,3.223-.3,7.2-.113,7.207-.041,7.209" transform="translate(-139.999 -107.177)" fill="#263238"/>
              <path id="Trazado_979301" data-name="Trazado 979301" d="M260.668,208.7a7.941,7.941,0,0,0,.228-1.492c.1-.926.2-2.209.261-3.63s.058-2.708.032-3.639a7.916,7.916,0,0,0-.107-1.505,9.511,9.511,0,0,0-.077,1.505c-.038,1.283-.072,2.417-.108,3.629l-.185,3.625a9.469,9.469,0,0,0-.044,1.507" transform="translate(-144.148 -109.741)" fill="#263238"/>
              <path id="Trazado_979302" data-name="Trazado 979302" d="M269.107,206.06a11.693,11.693,0,0,0-.022-3.479,11.615,11.615,0,0,0,.022,3.479" transform="translate(-148.745 -112.034)" fill="#263238"/>
              <path id="Trazado_979303" data-name="Trazado 979303" d="M250.665,222.468a44.17,44.17,0,0,0-6.77-.518,44.325,44.325,0,0,0,6.77.518" transform="translate(-134.881 -122.728)" fill="#263238"/>
              <path id="Trazado_979304" data-name="Trazado 979304" d="M248.783,215.024c0-.072-3.01-.3-6.73-.509s-6.742-.32-6.746-.249,3.009.3,6.731.509,6.741.32,6.745.249" transform="translate(-130.132 -118.484)" fill="#263238"/>
              <path id="Trazado_979305" data-name="Trazado 979305" d="M250.091,207.394c.006-.072-3.722-.445-8.327-.834s-8.343-.645-8.349-.573,3.722.445,8.327.834,8.343.645,8.348.573" transform="translate(-129.086 -113.911)" fill="#263238"/>
              <path id="Trazado_979306" data-name="Trazado 979306" d="M249.493,199.25c.006-.072-2.8-.369-6.266-.664s-6.283-.476-6.289-.4,2.8.369,6.267.664,6.282.476,6.288.4" transform="translate(-131.034 -109.592)" fill="#263238"/>
              <path id="Trazado_979307" data-name="Trazado 979307" d="M263.312,203.944l-7.226,11.646,18.925,11.143a3.923,3.923,0,0,0,5.1-1.491l2.206-3.659a3.923,3.923,0,0,0-1.006-5.164Z" transform="translate(-141.623 -112.787)" fill="#263238"/>
              <path id="Trazado_979308" data-name="Trazado 979308" d="M281.291,283.224h-6.459V229.4a1.072,1.072,0,0,1,1.073-1.073h4.314a1.072,1.072,0,0,1,1.072,1.073Z" transform="translate(-151.991 -126.27)" fill="#455a64"/>
              <path id="Trazado_979309" data-name="Trazado 979309" d="M281.565,234.55a2.075,2.075,0,1,1-2.075-2.075,2.075,2.075,0,0,1,2.075,2.075" transform="translate(-153.419 -128.566)" fill="#263238"/>
              <path id="Trazado_979310" data-name="Trazado 979310" d="M307.409,244.505l5.477,3.095.837-1.639-5.886-3.31Z" transform="translate(-170.007 -134.193)" fill="#263238"/>
              <path id="Trazado_979311" data-name="Trazado 979311" d="M291.425,296.048a.757.757,0,0,1,.013-.155c.016-.114.036-.262.061-.45.055-.395.131-.978.2-1.732.148-1.507.25-3.7.268-6.406,0-1.356,0-2.84,0-4.432a48.956,48.956,0,0,1,.164-5.093,22.026,22.026,0,0,1,1.2-5.505A13.374,13.374,0,0,1,296.6,267.2a7.549,7.549,0,0,1,2.625-1.628,5.552,5.552,0,0,1,1.5-.29,7.944,7.944,0,0,1,1.492.091,27.578,27.578,0,0,0,2.828.412,5.453,5.453,0,0,0,2.615-.529,6.45,6.45,0,0,0,3.2-3.685,7.421,7.421,0,0,0,.393-2.232,5.407,5.407,0,0,0-.317-2.058,6.724,6.724,0,0,0-2.154-2.849,20.087,20.087,0,0,0-2.252-1.58l-1.488-.91-.385-.24a.808.808,0,0,1-.127-.089.765.765,0,0,1,.139.068l.4.22c.348.2.86.485,1.512.873a19.27,19.27,0,0,1,2.288,1.556,6.825,6.825,0,0,1,2.225,2.894,5.555,5.555,0,0,1,.342,2.117,7.578,7.578,0,0,1-.39,2.293,6.638,6.638,0,0,1-3.287,3.814,5.658,5.658,0,0,1-2.718.558,27.2,27.2,0,0,1-2.85-.408,7.734,7.734,0,0,0-1.449-.087,5.34,5.34,0,0,0-1.435.279,7.341,7.341,0,0,0-2.542,1.58,13.19,13.19,0,0,0-3.215,4.982,21.926,21.926,0,0,0-1.2,5.447,49.659,49.659,0,0,0-.185,5.071c-.005,1.593-.006,3.078-.026,4.434-.038,2.711-.165,4.906-.342,6.414-.082.754-.172,1.337-.242,1.73-.035.186-.063.334-.084.447a.775.775,0,0,1-.037.151" transform="translate(-161.166 -139.151)" fill="#263238"/>
            </g>
          </g>
        </g>
      </g>
    </g>
  </g>
</svg>
