<svg xmlns="http://www.w3.org/2000/svg" width="85" height="85" viewBox="0 0 85 85">
  <g id="Grupo_1113038" data-name="Grupo 1113038" transform="translate(-180.084 -767)">
    <circle id="Elipse_11571" data-name="Elipse 11571" cx="42.5" cy="42.5" r="42.5" transform="translate(180.084 767)" fill="#68d5e9"/>
    <g id="televisor" transform="translate(193.084 780)">
      <path id="Trazado_979131" data-name="Trazado 979131" d="M207.718,79.411a9.111,9.111,0,0,0-14.217,0v2.237h14.217Z" transform="translate(-171.492 -67.355)" fill="#4d5967"/>
      <path id="Trazado_979132" data-name="Trazado 979132" d="M198.335,78.523a9.111,9.111,0,0,0-4.834,3.125v2.237h9.668V81.648A9.112,9.112,0,0,0,198.335,78.523Z" transform="translate(-171.492 -69.592)" fill="#6c7a88"/>
      <g id="Grupo_1113036" data-name="Grupo 1113036" transform="translate(7.507 51.865)">
        <path id="Trazado_979133" data-name="Trazado 979133" d="M66.853,461.517H68.8a.853.853,0,0,0,.809-.583l1.265-3.8L68.275,456,66,457.139v3.526A.853.853,0,0,0,66.853,461.517Z" transform="translate(-66 -456.001)" fill="#4d5967"/>
        <path id="Trazado_979134" data-name="Trazado 979134" d="M403.168,457.139l1.265,3.8a.853.853,0,0,0,.809.583h1.944a.853.853,0,0,0,.853-.853v-3.526L405.765,456Z" transform="translate(-364.819 -456.001)" fill="#4d5967"/>
      </g>
      <path id="Trazado_979135" data-name="Trazado 979135" d="M60.616,146.948h-49.7A3.412,3.412,0,0,1,7.5,143.536V109.414A3.412,3.412,0,0,1,10.912,106h49.7a3.412,3.412,0,0,1,3.412,3.412v34.122A3.412,3.412,0,0,1,60.616,146.948Z" transform="translate(-6.647 -93.945)" fill="#b66652"/>
      <path id="Trazado_979136" data-name="Trazado 979136" d="M19.017,155.054h49.7a3.412,3.412,0,0,0,3.412-3.412V117.52a3.4,3.4,0,0,0-.961-2.372,2.559,2.559,0,0,0-1.6,2.372v34.122a.854.854,0,0,1-.853.853h-49.7a2.559,2.559,0,0,0-2.372,1.6A3.4,3.4,0,0,0,19.017,155.054Z" transform="translate(-14.752 -102.051)" fill="#a05a4b"/>
      <path id="Trazado_979137" data-name="Trazado 979137" d="M52.5,180v-27.3A1.706,1.706,0,0,1,54.206,151h34.52a1.706,1.706,0,0,1,1.706,1.706V180a1.706,1.706,0,0,1-1.706,1.706H54.206A1.706,1.706,0,0,1,52.5,180Z" transform="translate(-46.529 -133.826)" fill="#4d5967"/>
      <path id="Trazado_979138" data-name="Trazado 979138" d="M88.726,181.711A1.706,1.706,0,0,0,90.432,180v-27.3A1.706,1.706,0,0,0,88.726,151h-.2a2.549,2.549,0,0,0-.652,1.706v26.445H54.206a2.55,2.55,0,0,0-1.706.652v.2a1.706,1.706,0,0,0,1.706,1.706h34.52Z" transform="translate(-46.529 -133.826)" fill="#35404a"/>
      <path id="Trazado_979139" data-name="Trazado 979139" d="M97.389,204.887c-.431,0-10.589-.038-13.571-3.329-1.919-2.117-2.068-7.128-2.068-8.613s.149-6.5,2.068-8.613c1.1-1.214,3.323-2.125,6.608-2.708a39.358,39.358,0,0,1,13.927,0c3.285.583,5.508,1.494,6.608,2.708,1.919,2.117,2.068,7.128,2.068,8.613s-.149,6.5-2.068,8.613C107.979,204.849,97.82,204.887,97.389,204.887Z" transform="translate(-72.452 -160.415)" fill="#fff9eb"/>
      <g id="Grupo_1113037" data-name="Grupo 1113037" transform="translate(11.366 17.175)">
        <path id="Trazado_979140" data-name="Trazado 979140" d="M127.072,210.274h0l0,0a3.562,3.562,0,0,0-1.062,3.559,20.372,20.372,0,0,1,.572,5.053q0,.148,0,.3a8.641,8.641,0,0,1-6.613,8.116,29.46,29.46,0,0,1-6.463.971,31.9,31.9,0,0,1-9.9-1.451,3.568,3.568,0,0,0-3.666.677l0,0h0c2.982,3.291,13.14,3.329,13.571,3.329s10.589-.038,13.571-3.329c1.919-2.117,2.068-7.128,2.068-8.613S128.991,212.391,127.072,210.274Z" transform="translate(-99.929 -203.532)" fill="#d3cdbf"/>
        <circle id="Elipse_11582" data-name="Elipse 11582" cx="3.327" cy="3.327" r="3.327" transform="translate(35.95)" fill="#d3cdbf"/>
        <circle id="Elipse_11583" data-name="Elipse 11583" cx="1.706" cy="1.706" r="1.706" transform="translate(37.57 10.152)" fill="#d3cdbf"/>
      </g>
      <path id="Trazado_979141" data-name="Trazado 979141" d="M416.86,308.859h-7.507a.853.853,0,0,1-.853-.853V294.357a.853.853,0,0,1,.853-.853h7.507Z" transform="translate(-362.038 -260.121)" fill="#81493b"/>
      <path id="Trazado_979142" data-name="Trazado 979142" d="M53.969,11.2H36.623A9.945,9.945,0,0,0,33.4,8.754l7.4-7.293a.853.853,0,0,0-1.2-1.215L31.625,8.109a10.06,10.06,0,0,0-5.016,0L18.626.246a.853.853,0,1,0-1.2,1.215l7.4,7.293A9.944,9.944,0,0,0,21.611,11.2H7.678a.853.853,0,1,0,0,1.706H53.969a2.562,2.562,0,0,1,2.559,2.559V49.591a2.562,2.562,0,0,1-2.559,2.559H4.265a2.562,2.562,0,0,1-2.559-2.559V15.469A2.562,2.562,0,0,1,4.265,12.91a.853.853,0,1,0,0-1.706A4.27,4.27,0,0,0,0,15.469V49.591a4.27,4.27,0,0,0,4.265,4.265H6.654v3.526a.853.853,0,0,0,.853.853h3.412a.853.853,0,0,0,.809-.583l1.265-3.8H45.241l1.265,3.8a.853.853,0,0,0,.809.583h3.412a.853.853,0,0,0,.853-.853V53.856h2.389a4.27,4.27,0,0,0,4.265-4.265V15.469A4.27,4.27,0,0,0,53.969,11.2Zm-29.881,0a8.265,8.265,0,0,1,10.059,0ZM10.3,56.529H8.36V53.856h2.835Zm39.57,0H47.93l-.891-2.673h2.835Z" transform="translate(0 0)"/>
      <path id="Trazado_979143" data-name="Trazado 979143" d="M45,146.061v27.3a2.562,2.562,0,0,0,2.559,2.559h34.52a2.562,2.562,0,0,0,2.559-2.559v-27.3a2.562,2.562,0,0,0-2.559-2.559H50.972a.853.853,0,0,0,0,1.706H82.079a.854.854,0,0,1,.853.853v27.3a.854.854,0,0,1-.853.853H47.559a.854.854,0,0,1-.853-.853v-27.3a.854.854,0,0,1,.853-.853.853.853,0,0,0,.853-.853C48.412,142.711,45,143.536,45,146.061Z" transform="translate(-39.882 -127.18)"/>
      <path id="Trazado_979144" data-name="Trazado 979144" d="M104.885,195.65c3.061-3.378,3.063-14.992,0-18.372-4.326-4.775-24.064-4.794-28.407,0-3.062,3.379-3.062,14.993,0,18.372C80.816,200.439,100.537,200.448,104.885,195.65ZM77.742,178.423c2.186-2.413,9.666-3.049,12.939-3.049s10.753.636,12.939,3.049c2.463,2.718,2.462,13.364,0,16.081-3.646,4.024-22.236,4.021-25.879,0C75.279,191.786,75.28,181.14,77.742,178.423Z" transform="translate(-65.744 -153.934)"/>
      <path id="Trazado_979145" data-name="Trazado 979145" d="M408.5,308.006a.853.853,0,0,0,.853.853h6.654a.853.853,0,0,0,.853-.853V294.357a.853.853,0,0,0-.853-.853h-6.654a.853.853,0,0,0-.853.853Zm1.706-12.8h4.948v1.706h-4.948Zm0,3.412h4.948v1.706h-4.948Zm0,3.412h4.948v1.706h-4.948Zm0,3.412h4.948v1.706h-4.948Z" transform="translate(-362.038 -260.121)"/>
      <path id="Trazado_979146" data-name="Trazado 979146" d="M416.86,147.682a4.18,4.18,0,1,0-4.18,4.18A4.185,4.185,0,0,0,416.86,147.682ZM413.533,150v-2.322a.853.853,0,1,0-1.706,0V150a2.474,2.474,0,1,1,1.706,0Z" transform="translate(-362.038 -127.18)"/>
      <path id="Trazado_979147" data-name="Trazado 979147" d="M422.75,235.314a2.559,2.559,0,1,0,2.559-2.559A2.562,2.562,0,0,0,422.75,235.314Zm3.412,0a.853.853,0,1,1-.853-.853A.854.854,0,0,1,426.162,235.314Z" transform="translate(-374.667 -206.281)"/>
    </g>
  </g>
</svg>
