<svg xmlns="http://www.w3.org/2000/svg" width="81" height="81" viewBox="0 0 81 81">
  <g id="Grupo_1113141" data-name="Grupo 1113141" transform="translate(-1157 -915)">
    <circle id="Elipse_11570" data-name="Elipse 11570" cx="40.5" cy="40.5" r="40.5" transform="translate(1157 915)" fill="#fdc8c8"/>
    <g id="Layer_x0020_1" transform="translate(1166 922.575)">
      <path id="Trazado_979508" data-name="Trazado 979508" d="M9.3,28.551H14.68c.2-1.543.4-3.086.633-4.629.237-1.7.514-3.363.91-5.025a18.344,18.344,0,0,1,.91-2.849c.435-.871.95-1.622,2.018-1.622,1.543,0,2.137,1.781,2.493,3.007a34.672,34.672,0,0,1,1.147,5.342c.317,1.9.554,3.838.791,5.777h5.381c.2-1.543.4-3.126.633-4.629.237-1.7.554-3.363.95-5.025a14.77,14.77,0,0,1,.87-2.849c.435-.871.95-1.622,2.018-1.622,1.543,0,2.137,1.781,2.532,3.007a39.962,39.962,0,0,1,1.108,5.342c.317,1.9.554,3.838.791,5.777h5.421q.237-2.315.594-4.629c.277-1.7.554-3.363.95-5.025a12.561,12.561,0,0,1,.91-2.849c.4-.871.95-1.622,1.978-1.622h.04c1.5,0,2.1,1.781,2.493,3.007a39.962,39.962,0,0,1,1.108,5.342c.317,1.9.594,3.838.791,5.777h8.9a1.25,1.25,0,0,1,1.266,1.266,1.284,1.284,0,0,1-1.266,1.306H52.428c.079.4.119.831.158,1.227.4,3.917.831,7.914,1.583,11.791a25.973,25.973,0,0,0,.712,2.928c.119-.4.237-.831.317-1.187a44.018,44.018,0,0,0,1.029-5.54,1.323,1.323,0,0,1,1.464-1.068,1.264,1.264,0,0,1,1.068,1.464c-.237,1.7-.514,3.482-.91,5.183a15.8,15.8,0,0,1-.95,2.928c-.4.871-.95,1.7-2.018,1.7h-.04c-1.543-.04-2.1-1.781-2.493-3.007A39.963,39.963,0,0,1,51.241,42.2c-.514-3.165-.87-6.37-1.227-9.575-.04-.514-.079-1.029-.119-1.5H45.583c-.04.475-.119.989-.158,1.464-.237,2.849-.594,5.7-.989,8.507-.277,1.662-.554,3.363-.95,4.986a11.962,11.962,0,0,1-.91,2.849c-.4.87-.95,1.622-1.978,1.622-1.543.04-2.137-1.741-2.532-2.968a39.962,39.962,0,0,1-1.108-5.342c-.514-3.165-.87-6.41-1.227-9.615-.04-.514-.079-1.029-.158-1.5H31.259c-.04.475-.079.989-.119,1.464-.237,2.849-.594,5.7-.989,8.507-.277,1.662-.554,3.363-.95,4.986a17.084,17.084,0,0,1-.91,2.849c-.4.87-.95,1.622-1.978,1.622h-.04c-1.543,0-2.137-1.781-2.493-2.968a41.431,41.431,0,0,1-1.147-5.342c-.514-3.205-.87-6.41-1.187-9.615-.04-.514-.119-1.029-.158-1.5H16.975c-.04.475-.079.989-.119,1.464-.277,2.849-.594,5.7-1.029,8.507-.237,1.662-.514,3.363-.91,4.986a17.084,17.084,0,0,1-.91,2.849c-.4.87-.95,1.622-2.018,1.622-1.543,0-2.137-1.781-2.493-2.968a35.7,35.7,0,0,1-1.147-5.342c-.514-3.205-.871-6.41-1.187-9.615-.04-.514-.119-1.029-.158-1.5H2.572L0,29.817A79.916,79.916,0,0,1,2.019,18.9c1.2-3.848,1.542-4.471,2.769-4.471,1.5,0,2.137,1.781,2.532,2.968a35.7,35.7,0,0,1,1.147,5.342Q8.942,25.643,9.3,28.551Zm.277,2.572c.04.4.079.831.119,1.227.4,3.917.831,7.953,1.583,11.831a28.209,28.209,0,0,0,.712,2.928c.119-.317.2-.633.277-.91.237-.989.435-1.978.633-2.968.475-2.611.831-5.263,1.108-7.914.119-.989.2-1.939.277-2.928.04-.435.079-.871.119-1.266Zm14.284,0c.04.4.079.831.119,1.227.4,3.917.87,7.953,1.622,11.831a20.214,20.214,0,0,0,.673,2.928c.119-.317.2-.633.277-.91a26.458,26.458,0,0,0,.633-2.968c.475-2.611.831-5.263,1.108-7.914.119-.989.2-1.939.317-2.928,0-.435.04-.871.079-1.266Zm14.284,0c.04.4.079.831.158,1.227.4,3.917.831,7.953,1.583,11.831a28.211,28.211,0,0,0,.712,2.928c.079-.317.158-.633.237-.91a26.458,26.458,0,0,0,.633-2.968c.475-2.611.831-5.263,1.108-7.914.119-.989.237-1.939.317-2.928.04-.435.079-.871.119-1.266Zm11.435-2.572c-.277-2.611-.633-5.223-1.147-7.716a26.507,26.507,0,0,0-.712-2.968c-.079.317-.158.633-.237.91a26.458,26.458,0,0,0-.633,2.968c-.435,2.255-.752,4.55-.989,6.806Zm-14.284,0c-.317-2.611-.673-5.223-1.147-7.716a26.508,26.508,0,0,0-.712-2.968c-.119.317-.2.633-.277.91-.237.989-.435,1.978-.633,2.968-.4,2.255-.712,4.55-.989,6.806Zm-14.284,0c-.317-2.611-.673-5.223-1.147-7.716a26.507,26.507,0,0,0-.712-2.968c-.119.317-.2.633-.277.91-.237.989-.435,1.978-.633,2.968-.4,2.255-.712,4.55-.989,6.806Zm-14.284,0C6.41,25.9,6.014,23.209,5.5,20.637a21.339,21.339,0,0,0-.752-2.928,25.392,25.392,0,0,0-.87,3.4c-.514,2.453-.87,4.946-1.147,7.439Z" transform="translate(0 0)" fill-rule="evenodd"/>
    </g>
  </g>
</svg>
