<svg xmlns="http://www.w3.org/2000/svg" xmlns:xlink="http://www.w3.org/1999/xlink" width="108.914" height="108.914" viewBox="0 0 108.914 108.914">
  <defs>
    <filter id="Trazado_874925" x="0" y="0" width="108.914" height="108.914" filterUnits="userSpaceOnUse">
      <feOffset dy="3" input="SourceAlpha"/>
      <feGaussianBlur stdDeviation="3" result="blur"/>
      <feFlood flood-opacity="0.161"/>
      <feComposite operator="in" in2="blur"/>
      <feComposite in="SourceGraphic"/>
    </filter>
  </defs>
  <g id="Grupo_1113136" data-name="Grupo 1113136" transform="translate(6309 9615)">
    <g transform="matrix(1, 0, 0, 1, -6309, -9615)" filter="url(#Trazado_874925)">
      <g id="Trazado_874925-2" data-name="Trazado 874925" transform="translate(9 6)" fill="#68d5e9" opacity="0.859">
        <path d="M 45.45677185058594 89.41407012939453 C 39.5219841003418 89.41407012939453 33.76551055908203 88.25206756591797 28.34727096557617 85.96034240722656 C 23.11310958862305 83.74648284912109 18.41203498840332 80.57682800292969 14.37463474273682 76.5394287109375 C 10.33723449707031 72.50202941894531 7.167584419250488 67.80095672607422 4.95372200012207 62.56679534912109 C 2.661996841430664 57.14855575561523 1.499996900558472 51.39208221435547 1.499996900558472 45.45729446411133 C 1.499996900558472 39.52198028564453 2.661996841430664 33.76551818847656 4.95372200012207 28.34726905822754 C 7.167584419250488 23.11310577392578 10.33723449707031 18.41203117370605 14.37463474273682 14.37464332580566 C 18.41203498840332 10.33724403381348 23.11310958862305 7.167593955993652 28.34727096557617 4.953731060028076 C 33.76551055908203 2.662006139755249 39.5219841003418 1.500006198883057 45.45677185058594 1.500006198883057 C 51.39155960083008 1.500006198883057 57.14803314208984 2.662006139755249 62.5662727355957 4.953731060028076 C 67.80043792724609 7.167593955993652 72.50151062011719 10.33724403381348 76.53890991210938 14.37464332580566 C 80.57630920410156 18.41203117370605 83.74595642089844 23.11310577392578 85.95982360839844 28.34726905822754 C 88.25154876708984 33.76551818847656 89.41354370117188 39.52198028564453 89.41354370117188 45.45676803588867 C 89.41354370117188 51.39208221435547 88.25154876708984 57.14855575561523 85.95982360839844 62.56679534912109 C 83.74595642089844 67.80095672607422 80.57630920410156 72.50202941894531 76.53890991210938 76.5394287109375 C 72.50151062011719 80.57682800292969 67.80043792724609 83.74648284912109 62.5662727355957 85.96034240722656 C 57.14803314208984 88.25206756591797 51.39155960083008 89.41407012939453 45.45677185058594 89.41407012939453 Z" stroke="none"/>
        <path d="M 45.45677185058594 3 C 39.72381591796875 3 34.16394424438477 4.12213134765625 28.93159866333008 6.335227966308594 C 23.87622833251953 8.473472595214844 19.33542633056641 11.53517150878906 15.435302734375 15.435302734375 C 11.53517150878906 19.33543395996094 8.473472595214844 23.87622833251953 6.335227966308594 28.93160247802734 C 4.12213134765625 34.16394424438477 3 39.72381591796875 3 45.4572868347168 C 3 51.19024658203125 4.12213134765625 56.75011825561523 6.335227966308594 61.98246002197266 C 8.473472595214844 67.03782653808594 11.53517150878906 71.57862854003906 15.435302734375 75.478759765625 C 19.33542633056641 79.37889099121094 23.87622833251953 82.44058990478516 28.93159866333008 84.57883453369141 C 34.16394424438477 86.79193115234375 39.72381591796875 87.9140625 45.45677185058594 87.9140625 C 51.18972778320312 87.9140625 56.74959945678711 86.79193115234375 61.98194122314453 84.57883453369141 C 67.03731536865234 82.44058990478516 71.57811737060547 79.37889099121094 75.47824096679688 75.478759765625 C 79.37837219238281 71.57862854003906 82.44007110595703 67.03782653808594 84.57831573486328 61.98246002197266 C 86.79141235351562 56.75011825561523 87.91354370117188 51.19024658203125 87.91354370117188 45.4567756652832 C 87.91354370117188 39.72381591796875 86.79141235351562 34.16394424438477 84.57831573486328 28.93160247802734 C 82.44007110595703 23.87622833251953 79.37837219238281 19.33543395996094 75.47824096679688 15.435302734375 C 71.57811737060547 11.53517150878906 67.03731536865234 8.473472595214844 61.98194122314453 6.335227966308594 C 56.74959945678711 4.12213134765625 51.18972778320312 3 45.45677185058594 3 M 45.45677185058594 0 C 70.56185913085938 0 90.91354370117188 20.35169219970703 90.91354370117188 45.4567756652832 L 90.91354370117188 45.4572868347168 C 90.91354370117188 70.5623779296875 70.56185913085938 90.9140625 45.45677185058594 90.9140625 C 20.3516845703125 90.9140625 0 70.5623779296875 0 45.4572868347168 L 0 45.4567756652832 C 0 20.35169219970703 20.3516845703125 0 45.45677185058594 0 Z" stroke="none" fill="#fff"/>
      </g>
    </g>
    <g id="mensaje-de-voz" transform="translate(-6282 -9591)">
      <g id="Grupo_1113134" data-name="Grupo 1113134" transform="translate(0.899 0.899)">
        <g id="Grupo_1113121" data-name="Grupo 1113121" transform="translate(0 39.546)">
          <path id="Trazado_979436" data-name="Trazado 979436" d="M47.736,59.38H8.19A7.19,7.19,0,1,1,8.19,45H47.736a7.19,7.19,0,1,1,0,14.38Z" transform="translate(-1 -45)" fill="#e6e9ed"/>
        </g>
        <g id="Grupo_1113122" data-name="Grupo 1113122">
          <circle id="Elipse_11597" data-name="Elipse 11597" cx="19.5" cy="19.5" r="19.5" transform="translate(0.101 0.102)" fill="#ffeaa7"/>
        </g>
        <g id="Grupo_1113123" data-name="Grupo 1113123" transform="translate(35.052 4.494)">
          <path id="Trazado_979437" data-name="Trazado 979437" d="M58.874,7.8v7.19a1.8,1.8,0,0,1-1.8,1.8H51.684l-1.492,2.984a1.111,1.111,0,0,1-2.1-.5V16.785H41.8a1.8,1.8,0,0,1-1.8-1.8V7.8A1.8,1.8,0,0,1,41.8,6H57.077A1.8,1.8,0,0,1,58.874,7.8Z" transform="translate(-40 -6)" fill="#e6e9ed"/>
        </g>
        <g id="Grupo_1113124" data-name="Grupo 1113124" transform="translate(8.089 3.595)">
          <path id="Trazado_979438" data-name="Trazado 979438" d="M19.024,12.163l-.036.027-.189.377a5.83,5.83,0,0,1-5.2,3.218v1.8h-.9a2.675,2.675,0,0,0-1.681.593A6.455,6.455,0,0,1,10,14.716V14.41A6.508,6.508,0,0,1,13.6,8.6,6.508,6.508,0,0,1,19.41,5H24.4a8.972,8.972,0,0,1,8.97,8.97,8.871,8.871,0,0,1-1.061,4.17,2.644,2.644,0,0,0-1.636-.557h-.9v-1.8H25.342a7.317,7.317,0,0,1-6.318-3.622Z" transform="translate(-10 -5)" fill="#b27946"/>
        </g>
        <g id="Grupo_1113125" data-name="Grupo 1113125" transform="translate(20.672 29.012)">
          <path id="Trazado_979439" data-name="Trazado 979439" d="M31.19,41.117v.962a19.125,19.125,0,0,1-5.438,1.555L24,36.623l1.114-3.343A8.091,8.091,0,0,1,31.19,41.117Z" transform="translate(-24 -33.28)" fill="#4fc1e9"/>
        </g>
        <g id="Grupo_1113126" data-name="Grupo 1113126" transform="translate(11.684 29.012)">
          <path id="Trazado_979440" data-name="Trazado 979440" d="M20.076,33.28l1.114,3.343-1.753,7.01A19.125,19.125,0,0,1,14,42.079v-.962A8.091,8.091,0,0,1,20.076,33.28Z" transform="translate(-14 -33.28)" fill="#4fc1e9"/>
        </g>
        <g id="Grupo_1113127" data-name="Grupo 1113127" transform="translate(17.122 32.356)">
          <path id="Trazado_979441" data-name="Trazado 979441" d="M23.6,37l1.753,7.01a19.643,19.643,0,0,1-5.3,0L21.8,37Z" transform="translate(-20.05 -37)" fill="#ff826e"/>
        </g>
        <g id="Grupo_1113128" data-name="Grupo 1113128" transform="translate(17.76 28.761)">
          <path id="Trazado_979442" data-name="Trazado 979442" d="M24.786,33.252,23.672,36.6h-1.8L20.76,33.252a8.179,8.179,0,0,1,4.026,0Z" transform="translate(-20.76 -33)" fill="#fc6e51"/>
        </g>
        <g id="Grupo_1113129" data-name="Grupo 1113129" transform="translate(27.862 16.178)">
          <path id="Trazado_979443" data-name="Trazado 979443" d="M34.535,19.557A2.695,2.695,0,0,1,32.9,24.393H32V19h.9A2.644,2.644,0,0,1,34.535,19.557Z" transform="translate(-32 -19)" fill="#f0d0b4"/>
        </g>
        <g id="Grupo_1113130" data-name="Grupo 1113130" transform="translate(8.089 16.178)">
          <path id="Trazado_979444" data-name="Trazado 979444" d="M13.6,19v5.393h-.9A2.7,2.7,0,0,1,12.7,19Z" transform="translate(-10 -19)" fill="#f0d0b4"/>
        </g>
        <g id="Grupo_1113131" data-name="Grupo 1113131" transform="translate(11.684 10.758)">
          <path id="Trazado_979445" data-name="Trazado 979445" d="M30.178,18.39v5.393a7.188,7.188,0,0,1-7.19,7.19h-1.8A7.188,7.188,0,0,1,14,23.782v-7.19a5.83,5.83,0,0,0,5.2-3.218L19.393,13l.036-.027a7.317,7.317,0,0,0,6.318,3.622h4.431Z" transform="translate(-14 -12.97)" fill="#f0d0b4"/>
        </g>
        <g id="Grupo_1113132" data-name="Grupo 1113132" transform="translate(16.178 21.57)">
          <path id="Trazado_979446" data-name="Trazado 979446" d="M19,25h7.19A3.6,3.6,0,1,1,19,25Z" transform="translate(-19 -25)" fill="#ff826e"/>
        </g>
        <g id="Grupo_1113133" data-name="Grupo 1113133" transform="translate(5.393 43.141)">
          <path id="Trazado_979447" data-name="Trazado 979447" d="M14.19,52.6,7,56.19V49Z" transform="translate(-7 -49)" fill="#ff826e"/>
        </g>
      </g>
      <g id="Grupo_1113135" data-name="Grupo 1113135">
        <path id="Trazado_979448" data-name="Trazado 979448" d="M6.427,48.134A.9.9,0,0,0,6,48.9v7.19a.9.9,0,0,0,1.3.8l7.19-3.6a.9.9,0,0,0,0-1.609l-7.19-3.6a.9.9,0,0,0-.874.04ZM7.8,50.353l4.282,2.141L7.8,54.635Z" transform="translate(-0.607 -4.859)"/>
        <path id="Trazado_979449" data-name="Trazado 979449" d="M18,52h1.8v1.8H18Z" transform="translate(-1.822 -5.264)"/>
        <path id="Trazado_979450" data-name="Trazado 979450" d="M22,50h1.8v5.393H22Z" transform="translate(-2.227 -5.062)"/>
        <path id="Trazado_979451" data-name="Trazado 979451" d="M30,52h1.8v1.8H30Z" transform="translate(-3.037 -5.264)"/>
        <path id="Trazado_979452" data-name="Trazado 979452" d="M34,50h1.8v5.393H34Z" transform="translate(-3.442 -5.062)"/>
        <path id="Trazado_979453" data-name="Trazado 979453" d="M46,52h1.8v1.8H46Z" transform="translate(-4.657 -5.264)"/>
        <path id="Trazado_979454" data-name="Trazado 979454" d="M42,50h1.8v5.393H42Z" transform="translate(-4.252 -5.062)"/>
        <path id="Trazado_979455" data-name="Trazado 979455" d="M26,48h1.8v8.988H26Z" transform="translate(-2.632 -4.859)"/>
        <path id="Trazado_979456" data-name="Trazado 979456" d="M38,48h1.8v8.988H38Z" transform="translate(-3.847 -4.859)"/>
        <path id="Trazado_979457" data-name="Trazado 979457" d="M54,50h1.8v5.393H54Z" transform="translate(-5.467 -5.062)"/>
        <path id="Trazado_979458" data-name="Trazado 979458" d="M50,48h1.8v8.988H50Z" transform="translate(-5.062 -4.859)"/>
        <path id="Trazado_979459" data-name="Trazado 979459" d="M45.151,20.672a2,2,0,0,0,1.8-1.111l1.242-2.484h4.837a2.7,2.7,0,0,0,2.7-2.7V7.19a2.7,2.7,0,0,0-2.7-2.7H37.748A2.7,2.7,0,0,0,35.3,6.074,20.667,20.667,0,1,0,12.257,39.546H8.089a8.089,8.089,0,0,0,0,16.178H47.635a8.089,8.089,0,1,0,0-16.178H29.087A20.672,20.672,0,0,0,41.03,17.077h2.111v1.585A2.012,2.012,0,0,0,45.151,20.672ZM19.773,28.761a6.3,6.3,0,0,1-6.291-6.291V16.119A6.664,6.664,0,0,0,18.1,13.3a8.243,8.243,0,0,0,6.235,2.878h3.531v6.291a6.3,6.3,0,0,1-6.291,6.291Zm-8.089-7.19a1.8,1.8,0,1,1,0-3.6Zm0-7.19v1.8a3.563,3.563,0,0,0-1.323.26,5.553,5.553,0,0,1-.475-2.229v-.3a5.575,5.575,0,0,1,3.1-5.013l.268-.134.134-.268a5.575,5.575,0,0,1,5.013-3.1h4.988a8.078,8.078,0,0,1,8.069,8.07,7.969,7.969,0,0,1-.581,2.942,3.558,3.558,0,0,0-1.217-.226v-1.8H24.331a6.461,6.461,0,0,1-6.364-5.52l-1.78.254a8.138,8.138,0,0,0,.8,2.535l-.006.012a4.892,4.892,0,0,1-4.4,2.72Zm17.975,3.6a1.8,1.8,0,1,1,0,3.6Zm-1.8,20.14a18.719,18.719,0,0,1-3.87,1.12L22.505,33.29l.748-2.245a7.2,7.2,0,0,1,4.609,6.7Zm-7.19,1.431c-.515,0-1.022-.037-1.526-.077l1.328-5.315h.395L22.2,39.469C21.694,39.509,21.187,39.546,20.672,39.546Zm0-8.988a7.287,7.287,0,0,1,.833.052l-.582,1.745h-.5l-.582-1.745A7.287,7.287,0,0,1,20.672,30.558ZM18.838,33.29l-1.487,5.944a18.719,18.719,0,0,1-3.87-1.12v-.367a7.2,7.2,0,0,1,4.608-6.7Zm28.8,8.053a6.291,6.291,0,0,1,0,12.583H8.089a6.291,6.291,0,0,1,0-12.583ZM39.546,20.672a18.889,18.889,0,0,1-9.911,16.6,8.989,8.989,0,0,0-4.724-7.449,8.1,8.1,0,0,0,4.7-6.459h.053a3.6,3.6,0,0,0,3.6-3.6,3.559,3.559,0,0,0-.88-2.33A9.791,9.791,0,0,0,23.387,3.6H18.4a7.358,7.358,0,0,0-6.482,3.828,7.359,7.359,0,0,0-3.828,6.483v.3A7.336,7.336,0,0,0,8.9,17.525a3.556,3.556,0,0,0-.812,2.248,3.6,3.6,0,0,0,3.6,3.6h.053a8.1,8.1,0,0,0,4.7,6.459,8.992,8.992,0,0,0-4.724,7.45A18.871,18.871,0,1,1,35.052,8.456V14.38a2.7,2.7,0,0,0,2.7,2.7H39.2a19.077,19.077,0,0,1,.349,3.6Zm-1.8-5.393a.9.9,0,0,1-.9-.9V7.19a.9.9,0,0,1,.9-.9H53.027a.9.9,0,0,1,.9.9v7.19a.9.9,0,0,1-.9.9H47.079l-1.738,3.477a.22.22,0,0,1-.4-.094V15.279Z"/>
        <path id="Trazado_979460" data-name="Trazado 979460" d="M26.7,20.8a.9.9,0,0,1,.9.9h1.8A2.7,2.7,0,0,0,24,21.7h1.8A.9.9,0,0,1,26.7,20.8Z" transform="translate(-2.43 -1.923)"/>
        <path id="Trazado_979461" data-name="Trazado 979461" d="M18.7,20.8a.9.9,0,0,1,.9.9h1.8A2.7,2.7,0,0,0,16,21.7h1.8A.9.9,0,0,1,18.7,20.8Z" transform="translate(-1.62 -1.923)"/>
        <path id="Trazado_979462" data-name="Trazado 979462" d="M26.987,24.9V24H18v.9a4.494,4.494,0,1,0,8.988,0Zm-4.494,2.7a2.7,2.7,0,0,1-2.543-1.8h5.085a2.7,2.7,0,0,1-2.543,1.8Z" transform="translate(-1.822 -2.43)"/>
        <path id="Trazado_979463" data-name="Trazado 979463" d="M43,9H56.482v1.8H43Z" transform="translate(-4.353 -0.911)"/>
        <path id="Trazado_979464" data-name="Trazado 979464" d="M43,13H56.482v1.8H43Z" transform="translate(-4.353 -1.316)"/>
      </g>
    </g>
  </g>
</svg>
