<svg xmlns="http://www.w3.org/2000/svg" width="71" height="71" viewBox="0 0 71 71">
  <g id="Grupo_1113035" data-name="Grupo 1113035" transform="translate(-516 -565)">
    <circle id="Elipse_11581" data-name="Elipse 11581" cx="35.5" cy="35.5" r="35.5" transform="translate(516 565)" fill="#68d5e9"/>
    <g id="computadora-" transform="translate(527.344 576.344)">
      <path id="Trazado_979118" data-name="Trazado 979118" d="M21,44.888A1.888,1.888,0,0,1,22.888,43H35.727a1.888,1.888,0,1,1,0,3.776H22.888A1.888,1.888,0,0,1,21,44.888Z" transform="translate(-4.651 -10.036)" fill="#e6f3ff"/>
      <path id="Trazado_979119" data-name="Trazado 979119" d="M35.49,47.286H22.651a2.643,2.643,0,0,1,0-5.286H35.49A2.643,2.643,0,0,1,35.49,47.286ZM22.651,43.51a1.133,1.133,0,0,0,0,2.266H35.49a1.133,1.133,0,0,0,0-2.266Z" transform="translate(-4.414 -9.792)" fill="#21257c"/>
      <path id="Trazado_979120" data-name="Trazado 979120" d="M41.541,3.632A3.756,3.756,0,0,0,39.453,3H13.776a3.734,3.734,0,0,0-1.744.446,1.67,1.67,0,0,1-1.383,1.214A3.757,3.757,0,0,0,10,6.776V27.167a3.734,3.734,0,0,0,.47,1.789,1.694,1.694,0,0,1,1.115,1.276,3.748,3.748,0,0,0,2.192.711H39.453a3.756,3.756,0,0,0,2.127-.658A1.673,1.673,0,0,1,42.625,29.2a3.75,3.75,0,0,0,.6-2.037V6.776a3.737,3.737,0,0,0-.52-1.881,1.684,1.684,0,0,1-1.169-1.263Z" transform="translate(-1.958 -0.245)" fill="#e6f3ff"/>
      <path id="Trazado_979121" data-name="Trazado 979121" d="M39.208,31.453H13.531A4.536,4.536,0,0,1,9,26.922V6.531A4.536,4.536,0,0,1,13.531,2H39.208A4.536,4.536,0,0,1,43.74,6.531V26.922A4.536,4.536,0,0,1,39.208,31.453ZM13.531,3.51A3.024,3.024,0,0,0,10.51,6.531V26.922a3.024,3.024,0,0,0,3.021,3.021H39.208a3.024,3.024,0,0,0,3.021-3.021V6.531A3.024,3.024,0,0,0,39.208,3.51Z" transform="translate(-1.714)" fill="#21257c"/>
      <rect id="Rect치ngulo_406437" data-name="Rect치ngulo 406437" width="28" height="22" rx="2" transform="translate(10.656 5.656)" fill="#4aa5ff"/>
      <path id="Trazado_979122" data-name="Trazado 979122" d="M24,42.266V40H36.083c-.049,1.23.435,3.812-1.511,3.776H25.51A1.51,1.51,0,0,1,24,42.266Z" transform="translate(-5.385 -9.302)" fill="#4aa5ff"/>
      <path id="Trazado_979123" data-name="Trazado 979123" d="M34.328,44.286H25.266A2.268,2.268,0,0,1,23,42.021V39.755A.755.755,0,0,1,23.755,39H35.839a.755.755,0,0,1,.755.755v2.266A2.268,2.268,0,0,1,34.328,44.286ZM24.51,40.51v1.51a.756.756,0,0,0,.755.755h9.063a.756.756,0,0,0,.755-.755V40.51Z" transform="translate(-5.141 -9.057)" fill="#21257c"/>
      <path id="Trazado_979124" data-name="Trazado 979124" d="M2.978,54.042c-.326-2.669.475-6.089,3.776-6.042H43c5.245-.074,5.243,9.891,0,9.818H6.754A3.776,3.776,0,0,1,2.978,54.042Z" transform="translate(-0.223 -11.26)" fill="#e6f3ff"/>
      <path id="Trazado_979125" data-name="Trazado 979125" d="M42.781,58.328H6.531A4.536,4.536,0,0,1,2,53.8V51.531A4.536,4.536,0,0,1,6.531,47h36.25a4.536,4.536,0,0,1,4.531,4.531V53.8A4.536,4.536,0,0,1,42.781,58.328ZM6.531,48.51A3.024,3.024,0,0,0,3.51,51.531V53.8a3.024,3.024,0,0,0,3.021,3.021h36.25A3.024,3.024,0,0,0,45.8,53.8V51.531a3.024,3.024,0,0,0-3.021-3.021Z" transform="translate(0 -11.016)" fill="#21257c"/>
      <rect id="Rect치ngulo_406438" data-name="Rect치ngulo 406438" width="12" height="3" rx="1.5" transform="translate(6.656 38.656)" fill="#4aa5ff"/>
      <path id="Trazado_979126" data-name="Trazado 979126" d="M18.706,54.531H8.888A1.89,1.89,0,0,1,7,52.643v-.755A1.89,1.89,0,0,1,8.888,50h9.818a1.89,1.89,0,0,1,1.888,1.888v.755A1.89,1.89,0,0,1,18.706,54.531ZM8.888,51.51c-.557.018-.336.78-.378,1.133a.378.378,0,0,0,.378.378h9.818c.557-.018.336-.78.378-1.133a.378.378,0,0,0-.378-.378Z" transform="translate(-1.224 -11.75)" fill="#21257c"/>
      <path id="Trazado_979127" data-name="Trazado 979127" d="M50.461,51H39.133A1.133,1.133,0,0,0,38,52.133v.755a1.133,1.133,0,0,0,1.133,1.133h3.4v-.755h4.531v.755h3.4a1.133,1.133,0,0,0,1.133-1.133v-.755A1.133,1.133,0,0,0,50.461,51Z" transform="translate(-8.813 -11.995)" fill="#4aa5ff"/>
      <path id="Trazado_979128" data-name="Trazado 979128" d="M50.216,54.531h-3.4a.755.755,0,0,1-.755-.755H43.042a.755.755,0,0,1-.755.755h-3.4A1.89,1.89,0,0,1,37,52.643v-.755A1.89,1.89,0,0,1,38.888,50H50.216A1.89,1.89,0,0,1,52.1,51.888v.755A1.89,1.89,0,0,1,50.216,54.531Zm-2.643-1.51h2.643c.557-.018.336-.78.378-1.133a.378.378,0,0,0-.378-.378H38.888a.378.378,0,0,0-.378.378c.042.353-.179,1.114.378,1.133h2.643a.755.755,0,0,1,.755-.755h4.531a.755.755,0,0,1,.755.755Z" transform="translate(-8.568 -11.75)" fill="#21257c"/>
      <path id="Trazado_979129" data-name="Trazado 979129" d="M19.332,58.51H8.759a.755.755,0,0,1,0-1.51H19.332A.755.755,0,0,1,19.332,58.51Z" transform="translate(-1.472 -13.464)" fill="#21257c"/>
      <path id="Trazado_979130" data-name="Trazado 979130" d="M44.021,31.759a.755.755,0,0,1,1.51,0,.755.755,0,0,1-1.51,0Zm-3.021,0a.755.755,0,0,1,1.51,0,.755.755,0,0,1-1.51,0Z" transform="translate(-9.547 -7.103)" fill="#e6f3ff"/>
    </g>
  </g>
</svg>
