<svg xmlns="http://www.w3.org/2000/svg" width="85" height="85" viewBox="0 0 85 85">
  <g id="Grupo_1113142" data-name="Grupo 1113142" transform="translate(-180.051 -368)">
    <circle id="Elipse_11571" data-name="Elipse 11571" cx="42.5" cy="42.5" r="42.5" transform="translate(180.051 368)" fill="#f7e081"/>
    <path id="legumbres" d="M19.846,4.256A2.212,2.212,0,0,1,21.867,6.1l5.31,31.657,6.6-23.051a2.212,2.212,0,0,1,4.254,0l4.478,15.674,2.569-4.386A2.212,2.212,0,0,1,46.992,24.9h5.477a7.374,7.374,0,1,1,0,4.424H48.259l-4.543,7.755a2.212,2.212,0,0,1-4.036-.51L35.905,23.354,28.739,48.366a2.212,2.212,0,0,1-4.308-.243L19,15.779l-3.873,12.01a2.212,2.212,0,0,1-2.105,1.533H3.462a2.212,2.212,0,0,1,0-4.424h7.953L17.58,5.783a2.212,2.212,0,0,1,2.267-1.527Z" transform="translate(188.801 383.75)"/>
  </g>
</svg>
