<svg xmlns="http://www.w3.org/2000/svg" xmlns:xlink="http://www.w3.org/1999/xlink" width="108.914" height="108.914" viewBox="0 0 108.914 108.914">
  <defs>
    <filter id="Trazado_874925" x="0" y="0" width="108.914" height="108.914" filterUnits="userSpaceOnUse">
      <feOffset dy="3" input="SourceAlpha"/>
      <feGaussianBlur stdDeviation="3" result="blur"/>
      <feFlood flood-opacity="0.161"/>
      <feComposite operator="in" in2="blur"/>
      <feComposite in="SourceGraphic"/>
    </filter>
  </defs>
  <g id="Grupo_1113137" data-name="Grupo 1113137" transform="translate(5660 9615)">
    <g transform="matrix(1, 0, 0, 1, -5660, -9615)" filter="url(#Trazado_874925)">
      <g id="Trazado_874925-2" data-name="Trazado 874925" transform="translate(9 6)" fill="#68d5e9" opacity="0.859">
        <path d="M 45.45676803588867 89.41407012939453 C 39.52198028564453 89.41407012939453 33.76551818847656 88.25206756591797 28.34726715087891 85.96034240722656 C 23.11311721801758 83.74648284912109 18.41204261779785 80.57682800292969 14.37464332580566 76.5394287109375 C 10.33724308013916 72.50202941894531 7.167593002319336 67.80095672607422 4.953730583190918 62.56679534912109 C 2.662005424499512 57.14855575561523 1.500005483627319 51.39208221435547 1.500005483627319 45.45729446411133 C 1.500005483627319 39.52198028564453 2.662005424499512 33.76551818847656 4.953730583190918 28.34726905822754 C 7.167593002319336 23.11310577392578 10.33724308013916 18.41203117370605 14.37464332580566 14.37464332580566 C 18.41204261779785 10.33724403381348 23.11311721801758 7.167593955993652 28.34726715087891 4.953731060028076 C 33.76551818847656 2.662006139755249 39.52198028564453 1.500006198883057 45.45676803588867 1.500006198883057 C 51.39155578613281 1.500006198883057 57.14802932739258 2.662006139755249 62.56626892089844 4.953731060028076 C 67.80043029785156 7.167593955993652 72.50150299072266 10.33724403381348 76.53890228271484 14.37464332580566 C 80.57630920410156 18.41203117370605 83.74595642089844 23.11310577392578 85.95981597900391 28.34726905822754 C 88.25154113769531 33.76551818847656 89.41354370117188 39.52198028564453 89.41354370117188 45.45676803588867 C 89.41354370117188 51.39208221435547 88.25154113769531 57.14855575561523 85.95981597900391 62.56679534912109 C 83.74595642089844 67.80095672607422 80.57630920410156 72.50202941894531 76.53890228271484 76.5394287109375 C 72.50150299072266 80.57682800292969 67.80043029785156 83.74648284912109 62.56626892089844 85.96034240722656 C 57.14802932739258 88.25206756591797 51.39155578613281 89.41407012939453 45.45676803588867 89.41407012939453 Z" stroke="none"/>
        <path d="M 45.45676803588867 3 C 39.72381210327148 3 34.1639404296875 4.12213134765625 28.93159484863281 6.335227966308594 C 23.87622833251953 8.473472595214844 19.33542633056641 11.53517150878906 15.43529510498047 15.435302734375 C 11.53517150878906 19.33543395996094 8.473464965820312 23.87622833251953 6.335227966308594 28.93160247802734 C 4.122123718261719 34.16394424438477 3 39.72381591796875 3 45.4572868347168 C 3 51.19024658203125 4.122123718261719 56.75011825561523 6.335227966308594 61.98246002197266 C 8.473464965820312 67.03782653808594 11.53517150878906 71.57862854003906 15.43529510498047 75.478759765625 C 19.33542633056641 79.37889099121094 23.87622833251953 82.44058990478516 28.93159484863281 84.57883453369141 C 34.1639404296875 86.79193115234375 39.72381210327148 87.9140625 45.45676803588867 87.9140625 C 51.18972396850586 87.9140625 56.74959564208984 86.79193115234375 61.98194122314453 84.57883453369141 C 67.03730773925781 82.44058990478516 71.57810974121094 79.37889099121094 75.47824096679688 75.478759765625 C 79.37837219238281 71.57862854003906 82.44007110595703 67.03782653808594 84.57830810546875 61.98246002197266 C 86.79141235351562 56.75011825561523 87.91353607177734 51.19024658203125 87.91353607177734 45.4567756652832 C 87.91353607177734 39.72381591796875 86.79141235351562 34.16394424438477 84.57830810546875 28.93160247802734 C 82.44007110595703 23.87622833251953 79.37837219238281 19.33543395996094 75.47824096679688 15.435302734375 C 71.57810974121094 11.53517150878906 67.03730773925781 8.473472595214844 61.98194122314453 6.335227966308594 C 56.74959564208984 4.12213134765625 51.18972396850586 3 45.45676803588867 3 M 45.45676803588867 0 C 70.56185150146484 0 90.91353607177734 20.35169219970703 90.91353607177734 45.4567756652832 L 90.91353607177734 45.4572868347168 C 90.91353607177734 70.5623779296875 70.56185150146484 90.9140625 45.45676803588867 90.9140625 C 20.3516845703125 90.9140625 0 70.5623779296875 0 45.4572868347168 L 0 45.4567756652832 C 0 20.35169219970703 20.3516845703125 0 45.45676803588867 0 Z" stroke="none" fill="#fff"/>
      </g>
    </g>
    <g id="XMLID_1110_" transform="translate(-5632 -9625.998)">
      <g id="XMLID_1158_" transform="translate(0 40.664)">
        <path id="XMLID_1345_" d="M26.648,50A16.648,16.648,0,0,0,10,66.646V84.16a8.553,8.553,0,0,0,16.5,3.164l.483-1.212a16.444,16.444,0,0,1,7.1-8.185A14.955,14.955,0,0,0,26.648,50Z" transform="translate(-8.963 -49.627)" fill="#ffd0c6"/>
        <g id="XMLID_1687_" transform="translate(0 0)">
          <path id="XMLID_878_" d="M9.59,90.544A9.6,9.6,0,0,1,0,80.954V63.44a17.527,17.527,0,0,1,3.6-10.7,17.816,17.816,0,0,1,9.113-6.277,1.037,1.037,0,0,1,.582,1.99A15.691,15.691,0,0,0,2.074,63.44V80.954a7.517,7.517,0,0,0,14.5,2.78l.483-1.212a17.55,17.55,0,0,1,7.549-8.7,13.921,13.921,0,0,0-2.683-25.337,1.037,1.037,0,1,1,.631-1.975,15.995,15.995,0,0,1,3.083,29.111,15.469,15.469,0,0,0-6.654,7.669L18.5,84.5A9.542,9.542,0,0,1,9.59,90.544Z" transform="translate(0 -46.421)"/>
        </g>
        <g id="XMLID_2694_" transform="translate(11.28 9.636)">
          <path id="XMLID_877_" d="M119.923,146.932a1.037,1.037,0,0,1-1.037-1.037,4.465,4.465,0,0,0-4.46-4.46,4.611,4.611,0,0,0-3.744,1.935,1.037,1.037,0,0,1-1.688-1.2,6.688,6.688,0,0,1,5.433-2.8,6.541,6.541,0,0,1,6.534,6.534A1.037,1.037,0,0,1,119.923,146.932Z" transform="translate(-108.801 -139.361)"/>
        </g>
        <g id="XMLID_1344_" transform="translate(4.862 4.196)">
          <path id="XMLID_876_" d="M47.932,117.964a1.037,1.037,0,0,1-1.037-1.037v-2.4a3.089,3.089,0,0,1,2.309-2.972,4.956,4.956,0,0,0,0-9.578A3.089,3.089,0,0,1,46.9,99.009,12.124,12.124,0,0,1,59,86.893,11.857,11.857,0,0,1,70.847,98.736a1.037,1.037,0,0,1-2.074,0A9.781,9.781,0,0,0,59,88.967,10.047,10.047,0,0,0,48.969,99a1.015,1.015,0,0,0,.767.974,7.029,7.029,0,0,1,0,13.587,1.013,1.013,0,0,0-.767.967v2.4a1.037,1.037,0,0,1-1.037,1.037Z" transform="translate(-46.895 -86.893)"/>
        </g>
      </g>
      <g id="XMLID_1673_" transform="translate(35.981 47.377)">
        <g id="XMLID_1686_" transform="translate(1.037 1.035)">
          <g id="XMLID_1691_">
            <g id="XMLID_1694_" transform="translate(0 5.951)">
              <path id="XMLID_1697_" d="M357.042,192.533a2.071,2.071,0,0,1,.609-1.47,6.345,6.345,0,0,0,0-8.963,2.078,2.078,0,0,1,2.939-2.939,10.506,10.506,0,0,1,0,14.841,2.078,2.078,0,0,1-3.548-1.47Z" transform="translate(-357.042 -178.552)" fill="#c193da"/>
            </g>
            <g id="XMLID_1692_" transform="translate(5.951)">
              <path id="XMLID_1693_" d="M414.441,147.036a2.071,2.071,0,0,1,.609-1.47,14.77,14.77,0,0,0,0-20.865,2.078,2.078,0,0,1,2.939-2.939,18.932,18.932,0,0,1,0,26.743,2.078,2.078,0,0,1-3.548-1.47Z" transform="translate(-414.441 -121.153)" fill="#c193da"/>
            </g>
          </g>
        </g>
        <g id="XMLID_1674_" transform="translate(0 0)">
          <g id="XMLID_1679_">
            <g id="XMLID_1684_" transform="translate(0 5.949)">
              <g id="XMLID_1685_">
                <path id="XMLID_873_" d="M350.157,186.684a3.115,3.115,0,0,1-2.2-5.318,5.307,5.307,0,0,0,0-7.5,3.115,3.115,0,1,1,4.405-4.406,11.543,11.543,0,0,1,0,16.308A3.1,3.1,0,0,1,350.157,186.684Zm0-16.059a1.042,1.042,0,0,0-.736,1.778,7.383,7.383,0,0,1,0,10.429,1.042,1.042,0,1,0,1.473,1.473,9.47,9.47,0,0,0,0-13.375A1.035,1.035,0,0,0,350.157,170.625Z" transform="translate(-347.042 -168.551)"/>
              </g>
            </g>
            <g id="XMLID_1682_" transform="translate(5.951)">
              <g id="XMLID_1683_">
                <path id="XMLID_857_" d="M407.556,141.2a3.114,3.114,0,0,1-2.2-5.316,13.732,13.732,0,0,0,0-19.4,3.115,3.115,0,0,1,4.406-4.406,19.97,19.97,0,0,1,0,28.21A3.105,3.105,0,0,1,407.556,141.2Zm0-27.959a1.041,1.041,0,0,0-.737,1.778,15.808,15.808,0,0,1,0,22.331,1.042,1.042,0,0,0,1.473,1.473,17.895,17.895,0,0,0,0-25.277A1.038,1.038,0,0,0,407.556,113.24Z" transform="translate(-404.441 -111.167)"/>
              </g>
            </g>
          </g>
        </g>
      </g>
      <g id="XMLID_1105_" transform="translate(16.589 39.998)">
        <g id="XMLID_1106_" transform="translate(0 0)">
          <path id="XMLID_856_" d="M161.037,42.072a1.037,1.037,0,1,1,.733-.3A1.044,1.044,0,0,1,161.037,42.072Z" transform="translate(-160 -39.998)"/>
        </g>
      </g>
    </g>
  </g>
</svg>
