<svg xmlns="http://www.w3.org/2000/svg" width="85" height="63.773" viewBox="0 0 85 63.773">
  <g id="frecuencia" transform="translate(0 -0.461)">
    <path id="Trazado_979465" data-name="Trazado 979465" d="M95.614,16.461H18.308A2.311,2.311,0,0,0,16,18.769v56.08a2.311,2.311,0,0,0,2.308,2.308H95.614a2.311,2.311,0,0,0,2.308-2.308V18.769A2.31,2.31,0,0,0,95.614,16.461Zm0,0" transform="translate(-12.923 -12.923)" fill="#e6e7e8"/>
    <path id="Trazado_979466" data-name="Trazado 979466" d="M84.384,6V62.079a1.538,1.538,0,0,1-1.539,1.539H5.539A1.538,1.538,0,0,1,4,62.079V6A1.538,1.538,0,0,1,5.539,4.461H82.845A1.538,1.538,0,0,1,84.384,6Zm0,0" transform="translate(-3.231 -3.231)" fill="#fff"/>
    <path id="Trazado_979467" data-name="Trazado 979467" d="M4,71.77a1.538,1.538,0,0,0,1.539,1.539H82.845a1.539,1.539,0,0,0,1.539-1.539V16.461H4Zm0,0" transform="translate(-3.231 -12.923)" fill="#d4fbff"/>
    <path id="Trazado_979468" data-name="Trazado 979468" d="M19.63,94.014a.663.663,0,0,1-.644-.51c-3-12.7-5.579-14.542-6.83-14.555-2.855.037-5.773,8.937-6.942,14.538a.662.662,0,1,1-1.3-.27c.331-1.589,3.38-15.529,8.221-15.592h.036c3.022,0,5.6,4.951,8.1,15.575a.662.662,0,0,1-.492.8A.671.671,0,0,1,19.63,94.014Zm0,0" transform="translate(-3.153 -62.322)" fill="#ffd7e5"/>
    <path id="Trazado_979469" data-name="Trazado 979469" d="M178.188,96.88a.663.663,0,0,1-.644-.51c-2.982-12.646-5.543-14.555-6.813-14.555h-.017c-2.855.037-5.773,8.936-6.942,14.538a.662.662,0,1,1-1.3-.27c.332-1.589,3.38-15.529,8.222-15.591,3.065-.031,5.621,4.909,8.135,15.574a.663.663,0,0,1-.492.8A.71.71,0,0,1,178.188,96.88Zm0,0" transform="translate(-131.214 -64.637)" fill="#ffd7e5"/>
    <path id="Trazado_979470" data-name="Trazado 979470" d="M334.837,91.042a.663.663,0,0,1-.644-.51c-2.982-12.646-5.543-14.555-6.813-14.555h-.017c-2.855.037-5.772,8.936-6.942,14.538a.662.662,0,0,1-1.3-.27c.331-1.589,3.38-15.529,8.222-15.591,3.02-.056,5.621,4.909,8.135,15.574a.663.663,0,0,1-.492.8A.715.715,0,0,1,334.837,91.042Zm0,0" transform="translate(-257.732 -59.923)" fill="#ffd7e5"/>
    <path id="Trazado_979471" data-name="Trazado 979471" d="M90.164,173h-.037c-4.955-.062-8.075-14-8.415-15.591a.662.662,0,0,1,.525-.784.677.677,0,0,1,.8.513c1.2,5.6,4.186,14.5,7.106,14.538h.017c1.3,0,3.923-1.908,6.975-14.555a.681.681,0,0,1,.815-.493.662.662,0,0,1,.5.8C95.893,168.05,93.257,173,90.164,173Zm0,0" transform="translate(-65.984 -126.119)" fill="#ffd7e5"/>
    <path id="Trazado_979472" data-name="Trazado 979472" d="M249.055,173h-.036c-4.842-.062-7.891-14-8.222-15.591a.662.662,0,1,1,1.3-.27c1.169,5.6,4.088,14.5,6.942,14.538h.017c1.27,0,3.831-1.908,6.813-14.555a.662.662,0,1,1,1.289.3C254.65,168.05,252.075,173,249.055,173Zm0,0" transform="translate(-194.47 -126.119)" fill="#ffd7e5"/>
    <path id="Trazado_979473" data-name="Trazado 979473" d="M401.987,165.506a.662.662,0,0,1-.6-.387,57.878,57.878,0,0,1-3.307-10.488.662.662,0,1,1,1.3-.27,57.808,57.808,0,0,0,3.216,10.208.663.663,0,0,1-.327.878A.647.647,0,0,1,401.987,165.506Zm0,0" transform="translate(-321.499 -123.873)" fill="#ffd7e5"/>
    <g id="Grupo_1113138" data-name="Grupo 1113138" transform="translate(0.997 20.063)">
      <path id="Trazado_979474" data-name="Trazado 979474" d="M15.448,115.1a.536.536,0,0,1-.52-.412c-1.989-8.432-3.661-9.347-4.3-9.316-1.687.022-3.576,5.452-4.38,9.3a.535.535,0,0,1-1.048-.218c.352-1.689,2.27-10.114,5.413-10.154h.025c2.009,0,3.706,3.223,5.336,10.14a.536.536,0,0,1-.4.644A.62.62,0,0,1,15.448,115.1Zm0,0" transform="translate(-5.185 -103.93)" fill="#fa759e"/>
      <path id="Trazado_979475" data-name="Trazado 979475" d="M117.841,116.947a.535.535,0,0,1-.521-.412c-1.979-8.395-3.657-9.316-4.3-9.316h-.008c-1.686.022-3.576,5.452-4.379,9.3a.535.535,0,0,1-1.048-.218c.352-1.689,2.27-10.114,5.413-10.154h.024c2.009,0,3.706,3.223,5.336,10.14a.536.536,0,0,1-.4.644A.529.529,0,0,1,117.841,116.947Zm0,0" transform="translate(-87.883 -105.423)" fill="#fa759e"/>
      <path id="Trazado_979476" data-name="Trazado 979476" d="M218.994,113.173a.535.535,0,0,1-.521-.412c-1.988-8.431-3.675-9.328-4.3-9.315-1.687.022-3.576,5.452-4.38,9.3a.535.535,0,0,1-1.047-.219c.352-1.689,2.27-10.113,5.413-10.154h.024c2.009,0,3.706,3.224,5.336,10.141a.536.536,0,0,1-.4.644A.566.566,0,0,1,218.994,113.173Zm0,0" transform="translate(-169.58 -102.375)" fill="#fa759e"/>
      <path id="Trazado_979477" data-name="Trazado 979477" d="M321.133,116.947a.535.535,0,0,1-.52-.412c-1.988-8.431-3.676-9.328-4.3-9.316-1.687.023-3.576,5.452-4.38,9.3a.535.535,0,0,1-1.047-.218c.352-1.689,2.269-10.114,5.412-10.154h.025c2.009,0,3.706,3.223,5.336,10.14a.535.535,0,0,1-.521.658Zm0,0" transform="translate(-252.075 -105.423)" fill="#fa759e"/>
      <path id="Trazado_979478" data-name="Trazado 979478" d="M62.449,168.753h-.025c-3.144-.041-5.06-8.465-5.413-10.154a.535.535,0,0,1,1.047-.219c.8,3.849,2.694,9.281,4.38,9.3h.008c.639,0,2.316-.921,4.3-9.315a.535.535,0,1,1,1.041.246C66.153,165.529,64.458,168.753,62.449,168.753Zm0,0" transform="translate(-47.034 -147.264)" fill="#fa759e"/>
      <path id="Trazado_979479" data-name="Trazado 979479" d="M163.6,165.674h-.025c-3.144-.041-5.06-8.465-5.413-10.154a.535.535,0,0,1,1.047-.218c.8,3.849,2.694,9.28,4.38,9.3h.008c.639,0,2.316-.921,4.3-9.316a.535.535,0,1,1,1.041.246C167.306,162.45,165.61,165.674,163.6,165.674Zm0,0" transform="translate(-128.73 -144.778)" fill="#fa759e"/>
      <path id="Trazado_979480" data-name="Trazado 979480" d="M265.835,166.17h-.024c-3.144-.041-5.06-8.465-5.413-10.154a.535.535,0,0,1,1.047-.218c.8,3.849,2.694,9.28,4.38,9.3h.008c.639,0,2.316-.921,4.3-9.316a.535.535,0,0,1,1.041.246C269.539,162.947,267.844,166.17,265.835,166.17Zm0,0" transform="translate(-211.301 -145.179)" fill="#fa759e"/>
      <path id="Trazado_979481" data-name="Trazado 979481" d="M367.163,168.753h-.025c-3.144-.041-5.059-8.465-5.412-10.154a.535.535,0,0,1,1.047-.219c.8,3.849,2.694,9.281,4.38,9.3h.008c.639,0,2.316-.921,4.3-9.315a.535.535,0,1,1,1.041.246C370.868,165.529,369.172,168.753,367.163,168.753Zm0,0" transform="translate(-293.139 -147.264)" fill="#fa759e"/>
    </g>
    <path id="Trazado_979482" data-name="Trazado 979482" d="M24.279,71.113a.716.716,0,0,1-.695-.551c-3.893-16.511-7.292-19-8.985-19h-.022c-3.79.05-7.624,11.67-9.15,18.984a.715.715,0,0,1-1.4-.293c.428-2.05,4.36-20.043,10.531-20.122H14.6c3.793,0,7.187,6.576,10.376,20.1a.717.717,0,0,1-.532.861A.729.729,0,0,1,24.279,71.113Zm0,0" transform="translate(-3.24 -40.115)" fill="#0089ef"/>
    <path id="Trazado_979483" data-name="Trazado 979483" d="M230.073,71.113a.717.717,0,0,1-.7-.551c-3.893-16.511-7.292-19-8.984-19h-.023c-3.79.05-7.622,11.67-9.149,18.984a.716.716,0,0,1-1.4-.293c.429-2.05,4.36-20.043,10.531-20.122h.042c3.792,0,7.186,6.576,10.376,20.1a.714.714,0,0,1-.7.88Zm0,0" transform="translate(-169.451 -40.115)" fill="#0089ef"/>
    <path id="Trazado_979484" data-name="Trazado 979484" d="M118.733,178.229h-.042c-6.171-.08-10.1-18.072-10.532-20.123a.716.716,0,0,1,1.4-.292c1.527,7.313,5.362,18.935,9.149,18.983h.023c1.694,0,5.092-2.489,8.984-19a.715.715,0,1,1,1.392.328C125.92,171.652,122.525,178.229,118.733,178.229Zm0,0" transform="translate(-87.343 -126.627)" fill="#0089ef"/>
    <path id="Trazado_979485" data-name="Trazado 979485" d="M322.054,175.473h-.042c-6.171-.08-10.1-18.072-10.532-20.123a.716.716,0,0,1,1.4-.292c1.527,7.313,5.362,18.934,9.149,18.983h.023c1.694,0,5.092-2.49,8.984-19a.715.715,0,0,1,1.392.328C329.24,168.895,325.846,175.473,322.054,175.473Zm0,0" transform="translate(-251.557 -124.401)" fill="#0089ef"/>
    <path id="Trazado_979486" data-name="Trazado 979486" d="M79.614.461H2.308A2.311,2.311,0,0,0,0,2.769v56.08a2.311,2.311,0,0,0,2.308,2.308H79.614a2.311,2.311,0,0,0,2.308-2.308V22.942a.769.769,0,0,0-1.539,0v7.1H66.835C65.952,25.256,62.141,5.933,57.57,2H79.614a.77.77,0,0,1,.769.769V11.21a.769.769,0,0,0,1.539,0V2.769A2.31,2.31,0,0,0,79.614.461ZM65.422,31.577c1.092,4.717,5.822,24.1,10.571,28.041H35.717c4.572-3.933,8.383-23.259,9.265-28.041ZM34.117,58.789c-2.688,0-7.471-13.737-10.616-27.212H43.417C40.913,45.046,36.79,58.789,34.117,58.789ZM21.539,30.038H1.624C4.137,16.57,8.268,2.828,10.94,2.828,13.628,2.828,18.4,16.564,21.539,30.038ZM2.308,2H9.34c-3.231,2.781-6.09,13.248-7.8,20.844V2.769A.77.77,0,0,1,2.308,2ZM1.539,58.848V31.577H21.922c1.092,4.717,5.822,24.1,10.571,28.041H2.308A.77.77,0,0,1,1.539,58.848Zm78.076.769h-.294a5.2,5.2,0,0,0,1.063-1.3v.534A.77.77,0,0,1,79.614,59.617Zm.769-6.32c-.619,4.027-1.992,5.492-2.766,5.492-2.688,0-7.471-13.737-10.616-27.212h13.38V53.3ZM65.269,30.038H45.355C48.5,16.564,53.282,2.828,55.97,2.828,58.642,2.828,62.766,16.57,65.269,30.038Zm-21.495,0H23.119C22.029,25.319,17.312,5.94,12.567,2H54.343C49.6,5.94,44.867,25.32,43.774,30.038Zm0,0" fill="#3a2c60"/>
    <path id="Trazado_979487" data-name="Trazado 979487" d="M418.691,67.844a.769.769,0,0,0-.769.769v5.578a.769.769,0,0,0,1.539,0V68.613A.77.77,0,0,0,418.691,67.844Zm0,0" transform="translate(-337.538 -54.422)" fill="#3a2c60"/>
  </g>
</svg>
