<svg xmlns="http://www.w3.org/2000/svg" xmlns:xlink="http://www.w3.org/1999/xlink" width="108.914" height="108.914" viewBox="0 0 108.914 108.914">
  <defs>
    <filter id="Trazado_874925" x="0" y="0" width="108.914" height="108.914" filterUnits="userSpaceOnUse">
      <feOffset dy="3" input="SourceAlpha"/>
      <feGaussianBlur stdDeviation="3" result="blur"/>
      <feFlood flood-opacity="0.161"/>
      <feComposite operator="in" in2="blur"/>
      <feComposite in="SourceGraphic"/>
    </filter>
  </defs>
  <g id="Grupo_1113120" data-name="Grupo 1113120" transform="translate(9 6)">
    <g transform="matrix(1, 0, 0, 1, -9, -6)" filter="url(#Trazado_874925)">
      <g id="Trazado_874925-2" data-name="Trazado 874925" transform="translate(9 6)" fill="#68d5e9" opacity="0.859">
        <path d="M 45.45677185058594 89.41407012939453 C 39.5219841003418 89.41407012939453 33.76551055908203 88.25206756591797 28.34727096557617 85.96034240722656 C 23.11310958862305 83.74648284912109 18.41203498840332 80.57682800292969 14.37463474273682 76.5394287109375 C 10.33723449707031 72.50202941894531 7.167584419250488 67.80095672607422 4.95372200012207 62.56679534912109 C 2.661996841430664 57.14855575561523 1.499996900558472 51.39208221435547 1.499996900558472 45.45729446411133 C 1.499996900558472 39.52198028564453 2.661996841430664 33.76551818847656 4.95372200012207 28.34726905822754 C 7.167584419250488 23.11310577392578 10.33723449707031 18.41203117370605 14.37463474273682 14.37464332580566 C 18.41203498840332 10.33724403381348 23.11310958862305 7.167593955993652 28.34727096557617 4.953731060028076 C 33.76551055908203 2.662006139755249 39.5219841003418 1.500006198883057 45.45677185058594 1.500006198883057 C 51.39155960083008 1.500006198883057 57.14803314208984 2.662006139755249 62.5662727355957 4.953731060028076 C 67.80043792724609 7.167593955993652 72.50151062011719 10.33724403381348 76.53890991210938 14.37464332580566 C 80.57630920410156 18.41203117370605 83.74595642089844 23.11310577392578 85.95982360839844 28.34726905822754 C 88.25154876708984 33.76551818847656 89.41354370117188 39.52198028564453 89.41354370117188 45.45676803588867 C 89.41354370117188 51.39208221435547 88.25154876708984 57.14855575561523 85.95982360839844 62.56679534912109 C 83.74595642089844 67.80095672607422 80.57630920410156 72.50202941894531 76.53890991210938 76.5394287109375 C 72.50151062011719 80.57682800292969 67.80043792724609 83.74648284912109 62.5662727355957 85.96034240722656 C 57.14803314208984 88.25206756591797 51.39155960083008 89.41407012939453 45.45677185058594 89.41407012939453 Z" stroke="none"/>
        <path d="M 45.45677185058594 3 C 39.72381591796875 3 34.16394424438477 4.12213134765625 28.93159866333008 6.335227966308594 C 23.87622833251953 8.473472595214844 19.33542633056641 11.53517150878906 15.435302734375 15.435302734375 C 11.53517150878906 19.33543395996094 8.473472595214844 23.87622833251953 6.335227966308594 28.93160247802734 C 4.12213134765625 34.16394424438477 3 39.72381591796875 3 45.4572868347168 C 3 51.19024658203125 4.12213134765625 56.75011825561523 6.335227966308594 61.98246002197266 C 8.473472595214844 67.03782653808594 11.53517150878906 71.57862854003906 15.435302734375 75.478759765625 C 19.33542633056641 79.37889099121094 23.87622833251953 82.44058990478516 28.93159866333008 84.57883453369141 C 34.16394424438477 86.79193115234375 39.72381591796875 87.9140625 45.45677185058594 87.9140625 C 51.18972778320312 87.9140625 56.74959945678711 86.79193115234375 61.98194122314453 84.57883453369141 C 67.03731536865234 82.44058990478516 71.57811737060547 79.37889099121094 75.47824096679688 75.478759765625 C 79.37837219238281 71.57862854003906 82.44007110595703 67.03782653808594 84.57831573486328 61.98246002197266 C 86.79141235351562 56.75011825561523 87.91354370117188 51.19024658203125 87.91354370117188 45.4567756652832 C 87.91354370117188 39.72381591796875 86.79141235351562 34.16394424438477 84.57831573486328 28.93160247802734 C 82.44007110595703 23.87622833251953 79.37837219238281 19.33543395996094 75.47824096679688 15.435302734375 C 71.57811737060547 11.53517150878906 67.03731536865234 8.473472595214844 61.98194122314453 6.335227966308594 C 56.74959945678711 4.12213134765625 51.18972778320312 3 45.45677185058594 3 M 45.45677185058594 0 C 70.56185913085938 0 90.91354370117188 20.35169219970703 90.91354370117188 45.4567756652832 L 90.91354370117188 45.4572868347168 C 90.91354370117188 70.5623779296875 70.56185913085938 90.9140625 45.45677185058594 90.9140625 C 20.3516845703125 90.9140625 0 70.5623779296875 0 45.4572868347168 L 0 45.4567756652832 C 0 20.35169219970703 20.3516845703125 0 45.45677185058594 0 Z" stroke="none" fill="#fff"/>
      </g>
    </g>
    <g id="radio" transform="translate(18.93 19)">
      <g id="Grupo_1113118" data-name="Grupo 1113118" transform="translate(0.776 0.44)">
        <path id="Trazado_979413" data-name="Trazado 979413" d="M57.2,135.7h6.858v-3.118a.828.828,0,0,0-.828-.828h-5.2a.828.828,0,0,0-.828.828Z" transform="translate(-17.768 -119.412)" fill="#ffce69"/>
        <path id="Trazado_979414" data-name="Trazado 979414" d="M93.294,131.749h2.38a.828.828,0,0,0-.828.828v2.911h-2.38v-2.911A.828.828,0,0,1,93.294,131.749Z" transform="translate(-53.035 -119.412)" fill="#ffbd61"/>
        <path id="Trazado_979415" data-name="Trazado 979415" d="M388.534,135.488h6.858v-2.911a.828.828,0,0,0-.828-.828h-5.2a.828.828,0,0,0-.828.828Z" transform="translate(-383.391 -119.412)" fill="#868eaf"/>
        <path id="Trazado_979416" data-name="Trazado 979416" d="M289.134,135.488h6.858v-2.911a.828.828,0,0,0-.828-.828h-5.2a.828.828,0,0,0-.828.828Z" transform="translate(-273.705 -119.412)" fill="#868eaf"/>
        <path id="Trazado_979417" data-name="Trazado 979417" d="M424.629,131.749h2.38a.828.828,0,0,0-.828.828v2.911H423.8v-2.911A.828.828,0,0,1,424.629,131.749Z" transform="translate(-418.658 -119.412)" fill="#7d83ad"/>
        <path id="Trazado_979418" data-name="Trazado 979418" d="M325.229,131.749h2.38a.828.828,0,0,0-.828.828v2.911H324.4v-2.911A.828.828,0,0,1,325.229,131.749Z" transform="translate(-308.972 -119.412)" fill="#7d83ad"/>
        <path id="Trazado_979419" data-name="Trazado 979419" d="M296.567,199.17H275.995a3.429,3.429,0,0,1-3.429-3.429V168.311a3.429,3.429,0,0,1,3.429-3.429h20.573Z" transform="translate(-272.566 -149.116)" fill="#a0c8ff"/>
        <path id="Trazado_979420" data-name="Trazado 979420" d="M7.5,164.883H33.216a3.429,3.429,0,0,1,3.429,3.429v27.431a3.429,3.429,0,0,1-3.429,3.429H7.5Z" transform="translate(14.787 -149.117)" fill="#bdd3dd"/>
        <g id="Grupo_1113117" data-name="Grupo 1113117" transform="translate(25.716 21.766)">
          <g id="Grupo_1113116" data-name="Grupo 1113116">
            <ellipse id="Elipse_11592" data-name="Elipse 11592" cx="11.144" cy="11.144" rx="11.144" ry="11.144" fill="#868eaf"/>
            <ellipse id="Elipse_11593" data-name="Elipse 11593" cx="4.286" cy="4.286" rx="4.286" ry="4.286" transform="translate(6.858 6.858)" fill="#7d83ad"/>
          </g>
        </g>
        <path id="Trazado_979421" data-name="Trazado 979421" d="M323.095,203.159h13.774a.828.828,0,0,0,.828-.828v-3.487a.828.828,0,0,0-.828-.828H323.095a.828.828,0,0,0-.828.828v3.487A.828.828,0,0,0,323.095,203.159Z" transform="translate(-318.838 -178.821)" fill="#f9f5f3"/>
        <ellipse id="Elipse_11594" data-name="Elipse 11594" cx="2.571" cy="2.571" rx="2.571" ry="2.571" transform="translate(14.375 33.449) rotate(-103.3)" fill="#868eaf"/>
        <ellipse id="Elipse_11595" data-name="Elipse 11595" cx="2.573" cy="2.573" rx="2.573" ry="2.573" transform="translate(4.062 33.436) rotate(-103.467)" fill="#868eaf"/>
        <ellipse id="Elipse_11596" data-name="Elipse 11596" cx="1.714" cy="1.714" rx="1.714" ry="1.714" transform="translate(7.288 4.125) rotate(-103.3)" fill="#ffce69"/>
        <path id="Trazado_979422" data-name="Trazado 979422" d="M147.96,222.867a11.272,11.272,0,0,1,1.19.063,11.144,11.144,0,0,0,0,22.16,11.272,11.272,0,0,1-1.19.063,11.144,11.144,0,0,1,0-22.287Z" transform="translate(-111.1 -201.101)" fill="#7d83ad"/>
        <path id="Trazado_979423" data-name="Trazado 979423" d="M441.2,198.016h2.38a.828.828,0,0,0-.828.828v3.487a.828.828,0,0,0,.828.828H441.2a.828.828,0,0,1-.828-.828v-3.487A.828.828,0,0,1,441.2,198.016Z" transform="translate(-436.939 -178.821)" fill="#f9eae0"/>
        <path id="Trazado_979424" data-name="Trazado 979424" d="M437.59,280.849a2.558,2.558,0,0,1,1.19.292,2.571,2.571,0,0,0,0,4.559,2.572,2.572,0,1,1-1.19-4.851Z" transform="translate(-431.589 -253.082)" fill="#7d83ad"/>
        <path id="Trazado_979425" data-name="Trazado 979425" d="M338.189,280.849a2.558,2.558,0,0,1,1.19.292,2.571,2.571,0,0,0,0,4.559,2.572,2.572,0,1,1-1.19-4.851Z" transform="translate(-321.902 -253.082)" fill="#7d83ad"/>
        <path id="Trazado_979426" data-name="Trazado 979426" d="M451.8,164.883h2.38a3.429,3.429,0,0,0-3.429,3.429v27.431a3.429,3.429,0,0,0,3.429,3.429H451.8a3.429,3.429,0,0,1-3.429-3.429V168.312A3.429,3.429,0,0,1,451.8,164.883Z" transform="translate(-448.367 -149.117)" fill="#91b2fa"/>
      </g>
      <g id="Grupo_1113119" data-name="Grupo 1113119" transform="translate(0)">
        <path id="Trazado_979427" data-name="Trazado 979427" d="M45.052,215.367a11.933,11.933,0,0,1,11.92,11.92A11.812,11.812,0,0,1,54.54,234.5a.776.776,0,1,1-1.235-.94,10.274,10.274,0,0,0,2.114-6.276,10.366,10.366,0,1,0-4.167,8.31.776.776,0,1,1,.929,1.243,11.92,11.92,0,1,1-7.13-21.473Z" transform="translate(-7.416 -193.937)"/>
        <path id="Trazado_979428" data-name="Trazado 979428" d="M99.4,286.7a5.062,5.062,0,1,1,5.062,5.062A5.068,5.068,0,0,1,99.4,286.7Zm8.572,0a3.51,3.51,0,1,0-3.51,3.51A3.514,3.514,0,0,0,107.971,286.7Z" transform="translate(-66.826 -253.346)"/>
        <path id="Trazado_979429" data-name="Trazado 979429" d="M.776,34.16A.776.776,0,0,1,0,33.384V27.916a4.21,4.21,0,0,1,4.2-4.2h.938V21.887a1.606,1.606,0,0,1,1.6-1.6h5.2a1.606,1.606,0,0,1,1.6,1.6v1.825h1.877V21.887a1.606,1.606,0,0,1,1.6-1.6h5.2a1.606,1.606,0,0,1,1.6,1.6v1.825H39.431V22.124L11.324,12.286a2.489,2.489,0,1,1,.515-1.514c0,.016,0,.033,0,.049l28.151,9.853a1.6,1.6,0,0,1,1.047-.391h5.2a1.606,1.606,0,0,1,1.6,1.6v1.825h.938a4.21,4.21,0,0,1,4.2,4.2v27.43a4.21,4.21,0,0,1-4.2,4.2H4.2a4.21,4.21,0,0,1-4.2-4.2V36.488a.776.776,0,0,1,1.552,0V55.347A2.656,2.656,0,0,0,4.2,58H22.287V25.264H4.2a2.656,2.656,0,0,0-2.653,2.653v5.467A.776.776,0,0,1,.776,34.16ZM9.348,9.834a.938.938,0,1,0,.938.938A.939.939,0,0,0,9.348,9.834ZM46.289,21.887a.052.052,0,0,0-.052-.052h-5.2a.051.051,0,0,0-.031.012v0c-.005.015-.013.029-.019.043v1.817h5.305ZM48.779,58a2.656,2.656,0,0,0,2.653-2.653V27.916a2.656,2.656,0,0,0-2.653-2.653H23.839V58ZM22.287,23.712V21.887a.052.052,0,0,0-.052-.052h-5.2a.052.052,0,0,0-.052.052v1.825ZM12,23.712V21.887a.052.052,0,0,0-.052-.052h-5.2a.052.052,0,0,0-.052.052v1.825Z" transform="translate(0 -8.282)"/>
        <path id="Trazado_979430" data-name="Trazado 979430" d="M314.767,192.12a1.606,1.606,0,0,1,1.6-1.6h13.774a1.606,1.606,0,0,1,1.6,1.6v3.487a1.606,1.606,0,0,1-1.6,1.6H316.371a1.606,1.606,0,0,1-1.6-1.6Zm1.552,3.487a.052.052,0,0,0,.052.052h13.774a.052.052,0,0,0,.052-.052V192.12a.052.052,0,0,0-.052-.052H316.371a.052.052,0,0,0-.052.052Z" transform="translate(-311.338 -171.658)"/>
        <path id="Trazado_979431" data-name="Trazado 979431" d="M318.115,280.044a3.348,3.348,0,1,1,3.348-3.348A3.352,3.352,0,0,1,318.115,280.044Zm0-5.143a1.8,1.8,0,1,0,1.8,1.8A1.8,1.8,0,0,0,318.115,274.9Z" transform="translate(-301.052 -245.919)"/>
        <path id="Trazado_979432" data-name="Trazado 979432" d="M417.516,273.35a3.348,3.348,0,1,1-3.348,3.348A3.351,3.351,0,0,1,417.516,273.35Zm0,5.143a1.8,1.8,0,1,0-1.8-1.8A1.8,1.8,0,0,0,417.516,278.493Z" transform="translate(-410.739 -245.92)"/>
        <path id="Trazado_979433" data-name="Trazado 979433" d="M315.543,356.184h15.43a.776.776,0,0,1,0,1.552h-15.43a.776.776,0,1,1,0-1.552Z" transform="translate(-311.338 -320.182)"/>
        <path id="Trazado_979434" data-name="Trazado 979434" d="M315.543,389.316h15.43a.776.776,0,0,1,0,1.552h-15.43a.776.776,0,1,1,0-1.552Z" transform="translate(-311.338 -349.885)"/>
        <path id="Trazado_979435" data-name="Trazado 979435" d="M315.543,422.45h15.43a.776.776,0,0,1,0,1.552h-15.43a.776.776,0,1,1,0-1.552Z" transform="translate(-311.338 -379.59)"/>
      </g>
    </g>
  </g>
</svg>
