<svg xmlns="http://www.w3.org/2000/svg" width="81" height="81" viewBox="0 0 81 81">
  <g id="Grupo_1113139" data-name="Grupo 1113139" transform="translate(-315 -915)">
    <circle id="Elipse_11568" data-name="Elipse 11568" cx="40.5" cy="40.5" r="40.5" transform="translate(315 915)" fill="#fdc8c8"/>
    <g id="frecuencia-de-sonido" transform="translate(319 881.929)">
      <path id="Trazado_979488" data-name="Trazado 979488" d="M1.637,138.428A1.637,1.637,0,0,0,0,140.065v5.413a1.637,1.637,0,0,0,3.274,0v-5.413A1.637,1.637,0,0,0,1.637,138.428Z" transform="translate(0 -69.224)"/>
      <path id="Trazado_979489" data-name="Trazado 979489" d="M28.91,138.428a1.637,1.637,0,0,0-1.637,1.637v5.413a1.637,1.637,0,0,0,3.274,0v-5.413A1.637,1.637,0,0,0,28.91,138.428Z" transform="translate(-20.894 -69.224)"/>
      <path id="Trazado_979490" data-name="Trazado 979490" d="M56.183,128.635a1.637,1.637,0,0,0-1.637,1.637v9.994a1.637,1.637,0,0,0,3.274,0v-9.994A1.637,1.637,0,0,0,56.183,128.635Z" transform="translate(-41.789 -61.722)"/>
      <path id="Trazado_979491" data-name="Trazado 979491" d="M83.455,117.063a1.637,1.637,0,0,0-1.637,1.637v15.407a1.637,1.637,0,0,0,3.274,0V118.7A1.637,1.637,0,0,0,83.455,117.063Z" transform="translate(-62.682 -52.856)"/>
      <path id="Trazado_979492" data-name="Trazado 979492" d="M110.729,96.588a1.637,1.637,0,0,0-1.637,1.637v24.984a1.637,1.637,0,1,0,3.274,0V98.225A1.637,1.637,0,0,0,110.729,96.588Z" transform="translate(-83.578 -37.17)"/>
      <path id="Trazado_979493" data-name="Trazado 979493" d="M138,48.071a1.637,1.637,0,0,0-1.637,1.637V97.386a1.637,1.637,0,0,0,3.274,0V49.708A1.637,1.637,0,0,0,138,48.071Z" transform="translate(-104.471)"/>
      <path id="Trazado_979494" data-name="Trazado 979494" d="M165.274,65.43a1.637,1.637,0,0,0-1.637,1.637v39.559a1.637,1.637,0,0,0,3.274,0V67.067A1.637,1.637,0,0,0,165.274,65.43Z" transform="translate(-125.365 -13.299)"/>
      <path id="Trazado_979495" data-name="Trazado 979495" d="M192.546,100.148a1.637,1.637,0,0,0-1.637,1.637V125.1a1.637,1.637,0,1,0,3.274,0V101.785A1.637,1.637,0,0,0,192.546,100.148Z" transform="translate(-146.259 -39.897)"/>
      <path id="Trazado_979496" data-name="Trazado 979496" d="M219.82,121.067a1.637,1.637,0,0,0-1.637,1.637v13.533a1.637,1.637,0,1,0,3.274,0V122.7A1.637,1.637,0,0,0,219.82,121.067Z" transform="translate(-167.154 -55.924)"/>
      <path id="Trazado_979497" data-name="Trazado 979497" d="M247.093,129.971a1.637,1.637,0,0,0-1.637,1.637v9.369a1.637,1.637,0,1,0,3.274,0v-9.369A1.637,1.637,0,0,0,247.093,129.971Z" transform="translate(-188.049 -62.745)"/>
      <path id="Trazado_979498" data-name="Trazado 979498" d="M274.365,138.428a1.637,1.637,0,0,0-1.637,1.637v5.413a1.637,1.637,0,1,0,3.274,0v-5.413A1.637,1.637,0,0,0,274.365,138.428Z" transform="translate(-208.942 -69.224)"/>
      <path id="Trazado_979499" data-name="Trazado 979499" d="M301.637,138.428A1.637,1.637,0,0,0,300,140.065v5.413a1.637,1.637,0,1,0,3.274,0v-5.413A1.637,1.637,0,0,0,301.637,138.428Z" transform="translate(-229.836 -69.224)"/>
    </g>
  </g>
</svg>
