<svg xmlns="http://www.w3.org/2000/svg" width="81" height="81" viewBox="0 0 81 81">
  <g id="Grupo_1113140" data-name="Grupo 1113140" transform="translate(-759 -915)">
    <circle id="Elipse_11569" data-name="Elipse 11569" cx="40.5" cy="40.5" r="40.5" transform="translate(759 915)" fill="#fdc8c8"/>
    <g id="frecuencia" transform="translate(767.444 923.583)">
      <path id="Trazado_979500" data-name="Trazado 979500" d="M12.917,52.583a1.51,1.51,0,0,0,1.06-2.561c-9.9-9.508-9.9-26.537,0-36.045a1.5,1.5,0,1,0-2.122-2.121C.788,22.481.788,41.519,11.857,52.144a1.494,1.494,0,0,0,1.06.439Z"/>
      <path id="Trazado_979501" data-name="Trazado 979501" d="M50.022,11.856a1.5,1.5,0,0,0,0,2.121c9.9,9.508,9.9,26.537,0,36.045a1.5,1.5,0,1,0,2.122,2.121c11.068-10.624,11.068-29.663,0-40.287a1.5,1.5,0,0,0-2.121,0Z"/>
      <path id="Trazado_979502" data-name="Trazado 979502" d="M19.242,19.242a1.5,1.5,0,1,0-2.121-2.121c-8.175,7.848-8.175,21.91,0,29.758a1.5,1.5,0,1,0,2.121-2.121,18.106,18.106,0,0,1,0-25.516Z"/>
      <path id="Trazado_979503" data-name="Trazado 979503" d="M44.758,44.758a1.5,1.5,0,1,0,2.121,2.121c8.175-7.848,8.175-21.91,0-29.758a1.5,1.5,0,1,0-2.121,2.121,18.106,18.106,0,0,1,0,25.515Z"/>
      <path id="Trazado_979504" data-name="Trazado 979504" d="M24.506,22.385a1.5,1.5,0,0,0-2.122,0,13.586,13.586,0,0,0,0,19.23,1.5,1.5,0,0,0,2.122-2.121,10.635,10.635,0,0,1,0-14.988,1.5,1.5,0,0,0,0-2.121Z"/>
      <path id="Trazado_979505" data-name="Trazado 979505" d="M39.494,22.385a1.5,1.5,0,0,0,0,2.121,10.635,10.635,0,0,1,0,14.988,1.5,1.5,0,1,0,2.122,2.121,13.65,13.65,0,0,0,0-19.23,1.5,1.5,0,0,0-2.121,0Z"/>
      <path id="Trazado_979506" data-name="Trazado 979506" d="M32,25.845A6.163,6.163,0,0,0,25.845,32c.289,8.146,12.022,8.144,12.311,0A6.163,6.163,0,0,0,32,25.845Zm0,9.311A3.155,3.155,0,1,1,35.155,32,3.155,3.155,0,0,1,32,35.155Z"/>
    </g>
  </g>
</svg>
