<svg xmlns="http://www.w3.org/2000/svg" xmlns:xlink="http://www.w3.org/1999/xlink" width="700" height="736" viewBox="0 0 700 736">
  <defs>
    <filter id="Rectángulo_406359" x="0" y="0" width="700" height="736" filterUnits="userSpaceOnUse">
      <feOffset dx="10" dy="17" input="SourceAlpha"/>
      <feGaussianBlur stdDeviation="15" result="blur"/>
      <feFlood flood-color="#e2dacc"/>
      <feComposite operator="in" in2="blur"/>
      <feComposite in="SourceGraphic"/>
    </filter>
  </defs>
  <g id="Grupo_1112972" data-name="Grupo 1112972" transform="translate(-460.051 -2000)">
    <g transform="matrix(1, 0, 0, 1, 460.05, 2000)" filter="url(#Rectángulo_406359)">
      <rect id="Rectángulo_406359-2" data-name="Rectángulo 406359" width="610" height="646" rx="18" transform="translate(35 28)" fill="#fff"/>
    </g>
    <g id="Grupo_1112971" data-name="Grupo 1112971">
      <g id="Grupo_1112969" data-name="Grupo 1112969" transform="translate(201.699 -17)">
        <path id="Trazado_979528" data-name="Trazado 979528" d="M12.348,9.977H7.574V15h-1.5V3.625h7.047V4.852H7.574v3.9h4.773Zm4.508-6.352,3.719,9.281,3.719-9.281h1.945V15h-1.5V10.57l.141-4.781L21.145,15H20L16.27,5.813l.148,4.758V15h-1.5V3.625ZM28.613,14.242a.905.905,0,0,1,.223-.625.848.848,0,0,1,.668-.25.874.874,0,0,1,.676.25.887.887,0,0,1,.23.625.839.839,0,0,1-.23.6.89.89,0,0,1-.676.242.8.8,0,0,1-.891-.844Zm.008-6.9a.905.905,0,0,1,.223-.625.848.848,0,0,1,.668-.25.874.874,0,0,1,.676.25.887.887,0,0,1,.23.625.839.839,0,0,1-.23.6.89.89,0,0,1-.676.242.8.8,0,0,1-.891-.844Zm9.234-.8.039.938A3.122,3.122,0,0,1,40.4,6.391,2.417,2.417,0,0,1,42.816,7.75a3.2,3.2,0,0,1,1.1-.984,3.242,3.242,0,0,1,1.6-.375q2.781,0,2.828,2.945V15H46.895V9.422a1.941,1.941,0,0,0-.414-1.355,1.823,1.823,0,0,0-1.391-.449,1.917,1.917,0,0,0-1.336.48,1.949,1.949,0,0,0-.617,1.293V15H41.684V9.461a1.613,1.613,0,0,0-1.8-1.844,1.934,1.934,0,0,0-1.945,1.211V15H36.488V6.547ZM55.738,15a3.036,3.036,0,0,1-.2-.891,3.225,3.225,0,0,1-2.406,1.047,2.984,2.984,0,0,1-2.051-.707,2.287,2.287,0,0,1-.8-1.793,2.39,2.39,0,0,1,1-2.051,4.733,4.733,0,0,1,2.824-.73h1.406V9.211A1.623,1.623,0,0,0,55.059,8a1.821,1.821,0,0,0-1.336-.449,2.107,2.107,0,0,0-1.3.391,1.151,1.151,0,0,0-.523.945H50.449A2,2,0,0,1,50.9,7.668a3.066,3.066,0,0,1,1.219-.934,4.1,4.1,0,0,1,1.691-.344,3.342,3.342,0,0,1,2.289.73,2.635,2.635,0,0,1,.859,2.012v3.891a4.757,4.757,0,0,0,.3,1.852V15Zm-2.4-1.1a2.54,2.54,0,0,0,1.289-.352,2.127,2.127,0,0,0,.883-.914V10.9H54.379q-2.656,0-2.656,1.555a1.316,1.316,0,0,0,.453,1.063A1.742,1.742,0,0,0,53.34,13.9Zm8.531-1.016L63.84,6.547h1.547l-3.4,9.758q-.789,2.109-2.508,2.109l-.273-.023-.539-.1V17.117l.391.031a1.923,1.923,0,0,0,1.145-.3,2.148,2.148,0,0,0,.676-1.086l.32-.859L58.184,6.547h1.578Zm4.3-2.187a4.993,4.993,0,0,1,.488-2.234A3.643,3.643,0,0,1,68.023,6.93a3.7,3.7,0,0,1,1.988-.539,3.565,3.565,0,0,1,2.793,1.2,4.6,4.6,0,0,1,1.066,3.18v.1a5.036,5.036,0,0,1-.473,2.215,3.589,3.589,0,0,1-1.352,1.527,3.743,3.743,0,0,1-2.02.547,3.556,3.556,0,0,1-2.785-1.2A4.575,4.575,0,0,1,66.176,10.8Zm1.453.172a3.616,3.616,0,0,0,.652,2.258,2.211,2.211,0,0,0,3.5-.012,3.955,3.955,0,0,0,.648-2.418,3.61,3.61,0,0,0-.66-2.254,2.1,2.1,0,0,0-1.754-.863,2.075,2.075,0,0,0-1.727.852A3.925,3.925,0,0,0,67.629,10.867ZM79.77,7.844a4.331,4.331,0,0,0-.711-.055A1.9,1.9,0,0,0,77.129,9v6H75.684V6.547H77.09l.023.977a2.251,2.251,0,0,1,2.016-1.133,1.477,1.477,0,0,1,.641.109ZM90.277,15a3.036,3.036,0,0,1-.2-.891,3.225,3.225,0,0,1-2.406,1.047,2.984,2.984,0,0,1-2.051-.707,2.288,2.288,0,0,1-.8-1.793,2.39,2.39,0,0,1,1-2.051,4.733,4.733,0,0,1,2.824-.73h1.406V9.211A1.623,1.623,0,0,0,89.6,8a1.821,1.821,0,0,0-1.336-.449,2.108,2.108,0,0,0-1.3.391,1.151,1.151,0,0,0-.523.945H84.988a2,2,0,0,1,.449-1.223,3.066,3.066,0,0,1,1.219-.934,4.1,4.1,0,0,1,1.691-.344,3.342,3.342,0,0,1,2.289.73A2.635,2.635,0,0,1,91.5,9.133v3.891a4.757,4.757,0,0,0,.3,1.852V15Zm-2.4-1.1a2.54,2.54,0,0,0,1.289-.352,2.127,2.127,0,0,0,.883-.914V10.9H88.918q-2.656,0-2.656,1.555a1.316,1.316,0,0,0,.453,1.063A1.742,1.742,0,0,0,87.879,13.9Zm7.242-7.352.039.938a3.122,3.122,0,0,1,2.508-1.094,2.417,2.417,0,0,1,2.414,1.359,3.2,3.2,0,0,1,1.1-.984,3.242,3.242,0,0,1,1.6-.375q2.781,0,2.828,2.945V15H104.16V9.422a1.941,1.941,0,0,0-.414-1.355,1.823,1.823,0,0,0-1.391-.449,1.916,1.916,0,0,0-1.336.48,1.949,1.949,0,0,0-.617,1.293V15H98.949V9.461a1.613,1.613,0,0,0-1.8-1.844A1.934,1.934,0,0,0,95.2,8.828V15H93.754V6.547Zm19.8,4.32a5.062,5.062,0,0,1-.883,3.109,2.829,2.829,0,0,1-2.391,1.18,3.1,3.1,0,0,1-2.422-.977v4.07h-1.445V6.547h1.32l.07.938a2.977,2.977,0,0,1,2.453-1.094,2.882,2.882,0,0,1,2.41,1.148,5.117,5.117,0,0,1,.887,3.2ZM113.48,10.7a3.735,3.735,0,0,0-.609-2.258,1.963,1.963,0,0,0-1.672-.828,2.125,2.125,0,0,0-1.969,1.164V12.82a2.129,2.129,0,0,0,1.984,1.156,1.954,1.954,0,0,0,1.652-.824A4.077,4.077,0,0,0,113.48,10.7Zm4.852,4.3h-1.445V3h1.445Zm3.883,0H120.77V6.547h1.445ZM120.652,4.3a.863.863,0,0,1,.215-.594.807.807,0,0,1,.637-.242.819.819,0,0,1,.641.242.854.854,0,0,1,.219.594.826.826,0,0,1-.219.586.834.834,0,0,1-.641.234.821.821,0,0,1-.637-.234A.834.834,0,0,1,120.652,4.3Zm5.836.2V6.547h1.578V7.664h-1.578v5.249a1.173,1.173,0,0,0,.211.763.888.888,0,0,0,.719.254,3.5,3.5,0,0,0,.688-.094V15a4.215,4.215,0,0,1-1.109.155,1.8,1.8,0,0,1-1.461-.586,2.517,2.517,0,0,1-.492-1.664V7.664H123.5V6.547h1.539V4.5Zm8.484,9.664a3.07,3.07,0,0,1-2.477.992,2.628,2.628,0,0,1-2.059-.785,3.4,3.4,0,0,1-.715-2.324v-5.5h1.445v5.461q0,1.922,1.563,1.922a2.163,2.163,0,0,0,2.2-1.234V6.547h1.445V15H135Zm3.25-3.461a4.952,4.952,0,0,1,.922-3.129,3.137,3.137,0,0,1,4.766-.168V3h1.445V15h-1.328l-.07-.906a2.943,2.943,0,0,1-2.414,1.063,2.887,2.887,0,0,1-2.395-1.2,5.008,5.008,0,0,1-.926-3.141Zm1.445.164a3.749,3.749,0,0,0,.594,2.25,1.919,1.919,0,0,0,1.641.813A2.108,2.108,0,0,0,143.91,12.7V8.813a2.125,2.125,0,0,0-1.992-1.2,1.929,1.929,0,0,0-1.656.82A4.128,4.128,0,0,0,139.668,10.867Zm18.5-2.227h-6.516V7.383h6.516Zm0,3.242h-6.516v-1.25h6.516ZM22.793,30.547l.039.938a3.122,3.122,0,0,1,2.508-1.094,2.417,2.417,0,0,1,2.414,1.359,3.2,3.2,0,0,1,1.1-.984,3.242,3.242,0,0,1,1.6-.375q2.781,0,2.828,2.945V39H31.832V33.422a1.941,1.941,0,0,0-.414-1.355,1.823,1.823,0,0,0-1.391-.449,1.916,1.916,0,0,0-1.336.48,1.949,1.949,0,0,0-.617,1.293V39H26.621V33.461a1.613,1.613,0,0,0-1.8-1.844,1.934,1.934,0,0,0-1.945,1.211V39H21.426V30.547ZM40.676,39a3.036,3.036,0,0,1-.2-.891,3.225,3.225,0,0,1-2.406,1.047,2.984,2.984,0,0,1-2.051-.707,2.287,2.287,0,0,1-.8-1.793,2.39,2.39,0,0,1,1-2.051,4.733,4.733,0,0,1,2.824-.73h1.406v-.664A1.623,1.623,0,0,0,40,32a1.821,1.821,0,0,0-1.336-.449,2.107,2.107,0,0,0-1.3.391,1.151,1.151,0,0,0-.523.945H35.387a2,2,0,0,1,.449-1.223,3.066,3.066,0,0,1,1.219-.934,4.1,4.1,0,0,1,1.691-.344,3.342,3.342,0,0,1,2.289.73,2.635,2.635,0,0,1,.859,2.012v3.891a4.757,4.757,0,0,0,.3,1.852V39Zm-2.4-1.1a2.54,2.54,0,0,0,1.289-.352,2.127,2.127,0,0,0,.883-.914V34.9H39.316q-2.656,0-2.656,1.555a1.316,1.316,0,0,0,.453,1.063A1.742,1.742,0,0,0,38.277,37.9Zm8.531-1.016,1.969-6.336h1.547l-3.4,9.758q-.789,2.109-2.508,2.109l-.273-.023-.539-.1V41.117l.391.031a1.923,1.923,0,0,0,1.145-.3,2.148,2.148,0,0,0,.676-1.086l.32-.859-3.016-8.359H44.7Zm4.3-2.187a4.993,4.993,0,0,1,.488-2.234,3.643,3.643,0,0,1,1.359-1.531,3.7,3.7,0,0,1,1.988-.539,3.565,3.565,0,0,1,2.793,1.2,4.6,4.6,0,0,1,1.066,3.18v.1a5.036,5.036,0,0,1-.473,2.215,3.589,3.589,0,0,1-1.352,1.527,3.743,3.743,0,0,1-2.02.547,3.556,3.556,0,0,1-2.785-1.2A4.575,4.575,0,0,1,51.113,34.8Zm1.453.172a3.616,3.616,0,0,0,.652,2.258,2.211,2.211,0,0,0,3.5-.012,3.955,3.955,0,0,0,.648-2.418,3.61,3.61,0,0,0-.66-2.254,2.1,2.1,0,0,0-1.754-.863,2.075,2.075,0,0,0-1.727.852A3.925,3.925,0,0,0,52.566,34.867Zm12.141-3.023A4.331,4.331,0,0,0,64,31.789,1.9,1.9,0,0,0,62.066,33v6H60.621V30.547h1.406l.023.977a2.251,2.251,0,0,1,2.016-1.133,1.477,1.477,0,0,1,.641.109Zm6,7.156V31.664H69.371V30.547h1.336V29.68a2.878,2.878,0,0,1,.727-2.1,2.745,2.745,0,0,1,2.055-.742,3.816,3.816,0,0,1,.992.132L74.4,28.133a4.151,4.151,0,0,0-.781-.07,1.41,1.41,0,0,0-1.086.411,1.669,1.669,0,0,0-.383,1.18v.893h1.8v1.117h-1.8V39Zm8.93-7.156a4.331,4.331,0,0,0-.711-.055A1.9,1.9,0,0,0,77,33v6H75.551V30.547h1.406l.023.977A2.251,2.251,0,0,1,79,30.391a1.477,1.477,0,0,1,.641.109Zm4.688,7.313a3.693,3.693,0,0,1-2.8-1.129,4.19,4.19,0,0,1-1.078-3.02v-.266a5.073,5.073,0,0,1,.48-2.246,3.748,3.748,0,0,1,1.344-1.547,3.378,3.378,0,0,1,1.871-.559,3.166,3.166,0,0,1,2.563,1.086,4.7,4.7,0,0,1,.914,3.109v.6H81.895a3,3,0,0,0,.73,2.02,2.3,2.3,0,0,0,1.777.77,2.517,2.517,0,0,0,1.3-.312,3.259,3.259,0,0,0,.93-.828l.883.688A3.55,3.55,0,0,1,84.324,39.156Zm-.18-7.578a1.928,1.928,0,0,0-1.469.637A3.1,3.1,0,0,0,81.941,34h4.234v-.109a2.753,2.753,0,0,0-.594-1.707A1.815,1.815,0,0,0,84.145,31.578Zm8.539,6.4a2.082,2.082,0,0,0,1.352-.469,1.649,1.649,0,0,0,.641-1.172h1.367a2.621,2.621,0,0,1-.5,1.383,3.293,3.293,0,0,1-1.23,1.047,3.55,3.55,0,0,1-1.629.391A3.482,3.482,0,0,1,89.938,38a4.59,4.59,0,0,1-1.02-3.152v-.242a5.089,5.089,0,0,1,.453-2.2,3.451,3.451,0,0,1,1.3-1.492,3.7,3.7,0,0,1,2-.531,3.39,3.39,0,0,1,2.363.852,3.043,3.043,0,0,1,1,2.211H94.676a1.992,1.992,0,0,0-.621-1.348,1.932,1.932,0,0,0-1.379-.527,2.023,2.023,0,0,0-1.707.793,3.724,3.724,0,0,0-.605,2.293v.273a3.65,3.65,0,0,0,.6,2.25A2.033,2.033,0,0,0,92.684,37.977Zm10.2.188a3.07,3.07,0,0,1-2.477.992,2.628,2.628,0,0,1-2.059-.785,3.4,3.4,0,0,1-.715-2.324v-5.5h1.445v5.461q0,1.922,1.563,1.922a2.163,2.163,0,0,0,2.2-1.234V30.547h1.445V39h-1.375Zm7.109.992a3.693,3.693,0,0,1-2.8-1.129,4.19,4.19,0,0,1-1.078-3.02v-.266a5.073,5.073,0,0,1,.48-2.246,3.748,3.748,0,0,1,1.344-1.547,3.378,3.378,0,0,1,1.871-.559,3.166,3.166,0,0,1,2.563,1.086,4.7,4.7,0,0,1,.914,3.109v.6h-5.727a3,3,0,0,0,.73,2.02,2.3,2.3,0,0,0,1.777.77,2.517,2.517,0,0,0,1.3-.312,3.259,3.259,0,0,0,.93-.828l.883.688A3.55,3.55,0,0,1,110,39.156Zm-.18-7.578a1.928,1.928,0,0,0-1.469.637A3.1,3.1,0,0,0,107.613,34h4.234v-.109a2.753,2.753,0,0,0-.594-1.707A1.815,1.815,0,0,0,109.816,31.578Zm6.516-1.031.047,1.063a3.08,3.08,0,0,1,2.531-1.219q2.68,0,2.7,3.023V39h-1.445V33.406a1.946,1.946,0,0,0-.418-1.352,1.675,1.675,0,0,0-1.277-.437,2.086,2.086,0,0,0-1.234.375,2.546,2.546,0,0,0-.828.984V39h-1.445V30.547Zm10.852,7.43a2.082,2.082,0,0,0,1.352-.469,1.649,1.649,0,0,0,.641-1.172h1.367a2.621,2.621,0,0,1-.5,1.383,3.293,3.293,0,0,1-1.23,1.047,3.55,3.55,0,0,1-1.629.391A3.482,3.482,0,0,1,124.438,38a4.59,4.59,0,0,1-1.02-3.152v-.242a5.089,5.089,0,0,1,.453-2.2,3.451,3.451,0,0,1,1.3-1.492,3.7,3.7,0,0,1,2-.531,3.39,3.39,0,0,1,2.363.852,3.043,3.043,0,0,1,1,2.211h-1.367a1.992,1.992,0,0,0-.621-1.348,1.932,1.932,0,0,0-1.379-.527,2.023,2.023,0,0,0-1.707.793,3.724,3.724,0,0,0-.605,2.293v.273a3.65,3.65,0,0,0,.6,2.25A2.033,2.033,0,0,0,127.184,37.977ZM133.738,39h-1.445V30.547h1.445Zm-1.562-10.7a.863.863,0,0,1,.215-.594.807.807,0,0,1,.637-.242.819.819,0,0,1,.641.242.854.854,0,0,1,.219.594.826.826,0,0,1-.219.586.834.834,0,0,1-.641.234.821.821,0,0,1-.637-.234A.834.834,0,0,1,132.176,28.3ZM141.27,39a3.036,3.036,0,0,1-.2-.891,3.225,3.225,0,0,1-2.406,1.047,2.984,2.984,0,0,1-2.051-.707,2.287,2.287,0,0,1-.8-1.793,2.39,2.39,0,0,1,1-2.051,4.733,4.733,0,0,1,2.824-.73h1.406v-.664A1.623,1.623,0,0,0,140.59,32a1.821,1.821,0,0,0-1.336-.449,2.107,2.107,0,0,0-1.3.391,1.151,1.151,0,0,0-.523.945H135.98a2,2,0,0,1,.449-1.223,3.066,3.066,0,0,1,1.219-.934,4.1,4.1,0,0,1,1.691-.344,3.342,3.342,0,0,1,2.289.73,2.635,2.635,0,0,1,.859,2.012v3.891a4.757,4.757,0,0,0,.3,1.852V39Zm-2.4-1.1a2.54,2.54,0,0,0,1.289-.352,2.127,2.127,0,0,0,.883-.914V34.9H139.91q-2.656,0-2.656,1.555a1.316,1.316,0,0,0,.453,1.063A1.742,1.742,0,0,0,138.871,37.9Z" transform="translate(689.051 2331.095)" fill="#12263f"/>
        <path id="Trazado_979529" data-name="Trazado 979529" d="M8.621,10.547V15h-1.5V3.625h4.2a4.215,4.215,0,0,1,2.926.953A3.231,3.231,0,0,1,15.3,7.1a3.189,3.189,0,0,1-1.035,2.551,4.4,4.4,0,0,1-2.965.895Zm0-1.227h2.7a2.7,2.7,0,0,0,1.844-.567,2.075,2.075,0,0,0,.641-1.64,2.143,2.143,0,0,0-.641-1.628A2.525,2.525,0,0,0,11.4,4.852H8.621Zm10.531-5.7,3.719,9.281L26.59,3.625h1.945V15h-1.5V10.57l.141-4.781L23.441,15H22.293L18.566,5.813l.148,4.758V15h-1.5V3.625ZM30.91,14.242a.905.905,0,0,1,.223-.625.848.848,0,0,1,.668-.25.874.874,0,0,1,.676.25.887.887,0,0,1,.23.625.839.839,0,0,1-.23.6.89.89,0,0,1-.676.242.8.8,0,0,1-.891-.844Zm.008-6.9a.905.905,0,0,1,.223-.625.848.848,0,0,1,.668-.25.874.874,0,0,1,.676.25.887.887,0,0,1,.23.625.839.839,0,0,1-.23.6.89.89,0,0,1-.676.242.8.8,0,0,1-.891-.844Zm9.234-.8.039.938A3.122,3.122,0,0,1,42.7,6.391,2.417,2.417,0,0,1,45.113,7.75a3.2,3.2,0,0,1,1.1-.984,3.242,3.242,0,0,1,1.6-.375q2.781,0,2.828,2.945V15H49.191V9.422a1.941,1.941,0,0,0-.414-1.355,1.823,1.823,0,0,0-1.391-.449,1.917,1.917,0,0,0-1.336.48,1.949,1.949,0,0,0-.617,1.293V15H43.98V9.461a1.613,1.613,0,0,0-1.8-1.844A1.934,1.934,0,0,0,40.23,8.828V15H38.785V6.547ZM58.035,15a3.036,3.036,0,0,1-.2-.891,3.225,3.225,0,0,1-2.406,1.047,2.984,2.984,0,0,1-2.051-.707,2.287,2.287,0,0,1-.8-1.793,2.39,2.39,0,0,1,1-2.051,4.733,4.733,0,0,1,2.824-.73h1.406V9.211A1.623,1.623,0,0,0,57.355,8a1.821,1.821,0,0,0-1.336-.449,2.107,2.107,0,0,0-1.3.391,1.151,1.151,0,0,0-.523.945H52.746A2,2,0,0,1,53.2,7.668a3.066,3.066,0,0,1,1.219-.934,4.1,4.1,0,0,1,1.691-.344,3.342,3.342,0,0,1,2.289.73,2.635,2.635,0,0,1,.859,2.012v3.891a4.757,4.757,0,0,0,.3,1.852V15Zm-2.4-1.1a2.54,2.54,0,0,0,1.289-.352,2.127,2.127,0,0,0,.883-.914V10.9H56.676q-2.656,0-2.656,1.555a1.316,1.316,0,0,0,.453,1.063A1.742,1.742,0,0,0,55.637,13.9Zm8.531-1.016,1.969-6.336h1.547l-3.4,9.758q-.789,2.109-2.508,2.109l-.273-.023-.539-.1V17.117l.391.031a1.923,1.923,0,0,0,1.145-.3,2.148,2.148,0,0,0,.676-1.086l.32-.859L60.48,6.547h1.578Zm4.3-2.187a4.993,4.993,0,0,1,.488-2.234A3.643,3.643,0,0,1,70.32,6.93a3.7,3.7,0,0,1,1.988-.539,3.565,3.565,0,0,1,2.793,1.2,4.6,4.6,0,0,1,1.066,3.18v.1a5.036,5.036,0,0,1-.473,2.215,3.589,3.589,0,0,1-1.352,1.527,3.743,3.743,0,0,1-2.02.547,3.556,3.556,0,0,1-2.785-1.2A4.575,4.575,0,0,1,68.473,10.8Zm1.453.172a3.616,3.616,0,0,0,.652,2.258,2.211,2.211,0,0,0,3.5-.012,3.955,3.955,0,0,0,.648-2.418,3.61,3.61,0,0,0-.66-2.254,2.1,2.1,0,0,0-1.754-.863,2.075,2.075,0,0,0-1.727.852A3.925,3.925,0,0,0,69.926,10.867ZM82.066,7.844a4.331,4.331,0,0,0-.711-.055A1.9,1.9,0,0,0,79.426,9v6H77.98V6.547h1.406l.023.977a2.251,2.251,0,0,1,2.016-1.133,1.477,1.477,0,0,1,.641.109ZM94.5,10.867a5.062,5.062,0,0,1-.883,3.109,2.829,2.829,0,0,1-2.391,1.18A3.1,3.1,0,0,1,88.8,14.18v4.07H87.355V6.547h1.32l.07.938A2.977,2.977,0,0,1,91.2,6.391a2.882,2.882,0,0,1,2.41,1.148,5.117,5.117,0,0,1,.887,3.2ZM93.051,10.7a3.735,3.735,0,0,0-.609-2.258,1.963,1.963,0,0,0-1.672-.828A2.125,2.125,0,0,0,88.8,8.781V12.82a2.129,2.129,0,0,0,1.984,1.156,1.954,1.954,0,0,0,1.652-.824A4.077,4.077,0,0,0,93.051,10.7Zm6.789,4.453a3.693,3.693,0,0,1-2.8-1.129,4.19,4.19,0,0,1-1.078-3.02v-.266a5.073,5.073,0,0,1,.48-2.246,3.748,3.748,0,0,1,1.344-1.547,3.378,3.378,0,0,1,1.871-.559,3.166,3.166,0,0,1,2.563,1.086,4.7,4.7,0,0,1,.914,3.109v.6H97.41a3,3,0,0,0,.73,2.02,2.3,2.3,0,0,0,1.777.77,2.517,2.517,0,0,0,1.3-.312,3.259,3.259,0,0,0,.93-.828l.883.688A3.55,3.55,0,0,1,99.84,15.156Zm-.18-7.578a1.928,1.928,0,0,0-1.469.637A3.1,3.1,0,0,0,97.457,10h4.234V9.891a2.753,2.753,0,0,0-.594-1.707A1.815,1.815,0,0,0,99.66,7.578Zm6.516-1.031.047,1.063a3.08,3.08,0,0,1,2.531-1.219q2.68,0,2.7,3.023V15h-1.445V9.406a1.946,1.946,0,0,0-.418-1.352,1.675,1.675,0,0,0-1.277-.437,2.086,2.086,0,0,0-1.234.375,2.546,2.546,0,0,0-.828.984V15h-1.445V6.547Zm7.109,4.156a4.952,4.952,0,0,1,.922-3.129,3.137,3.137,0,0,1,4.766-.168V3h1.445V15H119.09l-.07-.906a2.943,2.943,0,0,1-2.414,1.063,2.887,2.887,0,0,1-2.395-1.2,5.008,5.008,0,0,1-.926-3.141Zm1.445.164a3.749,3.749,0,0,0,.594,2.25,1.92,1.92,0,0,0,1.641.813,2.108,2.108,0,0,0,2.008-1.234V8.813a2.125,2.125,0,0,0-1.992-1.2,1.929,1.929,0,0,0-1.656.82A4.128,4.128,0,0,0,114.73,10.867ZM124.23,15h-1.445V6.547h1.445ZM122.668,4.3a.863.863,0,0,1,.215-.594.807.807,0,0,1,.637-.242.819.819,0,0,1,.641.242.854.854,0,0,1,.219.594.826.826,0,0,1-.219.586.834.834,0,0,1-.641.234.821.821,0,0,1-.637-.234A.834.834,0,0,1,122.668,4.3Zm7.383,10.852a3.693,3.693,0,0,1-2.8-1.129,4.19,4.19,0,0,1-1.078-3.02v-.266a5.073,5.073,0,0,1,.48-2.246A3.748,3.748,0,0,1,128,6.949a3.378,3.378,0,0,1,1.871-.559,3.166,3.166,0,0,1,2.563,1.086,4.7,4.7,0,0,1,.914,3.109v.6h-5.727a3,3,0,0,0,.73,2.02,2.3,2.3,0,0,0,1.777.77,2.517,2.517,0,0,0,1.3-.312,3.258,3.258,0,0,0,.93-.828l.883.688A3.55,3.55,0,0,1,130.051,15.156Zm-.18-7.578a1.928,1.928,0,0,0-1.469.637A3.1,3.1,0,0,0,127.668,10H131.9V9.891a2.753,2.753,0,0,0-.594-1.707A1.815,1.815,0,0,0,129.871,7.578Zm6.516-1.031.047,1.063a3.08,3.08,0,0,1,2.531-1.219q2.68,0,2.7,3.023V15h-1.445V9.406a1.946,1.946,0,0,0-.418-1.352,1.675,1.675,0,0,0-1.277-.437,2.086,2.086,0,0,0-1.234.375,2.546,2.546,0,0,0-.828.984V15H135.02V6.547ZM145.809,4.5V6.547h1.578V7.664h-1.578v5.249a1.173,1.173,0,0,0,.211.763.888.888,0,0,0,.719.254,3.5,3.5,0,0,0,.688-.094V15a4.215,4.215,0,0,1-1.109.155,1.8,1.8,0,0,1-1.461-.586,2.517,2.517,0,0,1-.492-1.664V7.664h-1.539V6.547h1.539V4.5Zm6.773,10.656a3.693,3.693,0,0,1-2.8-1.129,4.19,4.19,0,0,1-1.078-3.02v-.266a5.073,5.073,0,0,1,.48-2.246,3.748,3.748,0,0,1,1.344-1.547,3.378,3.378,0,0,1,1.871-.559,3.166,3.166,0,0,1,2.563,1.086,4.7,4.7,0,0,1,.914,3.109v.6h-5.727a3,3,0,0,0,.73,2.02,2.3,2.3,0,0,0,1.777.77,2.517,2.517,0,0,0,1.3-.312,3.258,3.258,0,0,0,.93-.828l.883.688A3.55,3.55,0,0,1,152.582,15.156Zm-.18-7.578a1.928,1.928,0,0,0-1.469.637A3.1,3.1,0,0,0,150.2,10h4.234V9.891a2.753,2.753,0,0,0-.594-1.707A1.815,1.815,0,0,0,152.4,7.578Zm15.719,1.063h-6.516V7.383h6.516Zm0,3.242h-6.516v-1.25h6.516ZM28.293,30.547l.039.938a3.122,3.122,0,0,1,2.508-1.094,2.417,2.417,0,0,1,2.414,1.359,3.2,3.2,0,0,1,1.1-.984,3.242,3.242,0,0,1,1.6-.375q2.781,0,2.828,2.945V39H37.332V33.422a1.941,1.941,0,0,0-.414-1.355,1.823,1.823,0,0,0-1.391-.449,1.916,1.916,0,0,0-1.336.48,1.949,1.949,0,0,0-.617,1.293V39H32.121V33.461a1.613,1.613,0,0,0-1.8-1.844,1.934,1.934,0,0,0-1.945,1.211V39H26.926V30.547ZM46.176,39a3.036,3.036,0,0,1-.2-.891,3.225,3.225,0,0,1-2.406,1.047,2.984,2.984,0,0,1-2.051-.707,2.287,2.287,0,0,1-.8-1.793,2.39,2.39,0,0,1,1-2.051,4.733,4.733,0,0,1,2.824-.73h1.406v-.664A1.623,1.623,0,0,0,45.5,32a1.821,1.821,0,0,0-1.336-.449,2.107,2.107,0,0,0-1.3.391,1.151,1.151,0,0,0-.523.945H40.887a2,2,0,0,1,.449-1.223,3.066,3.066,0,0,1,1.219-.934,4.1,4.1,0,0,1,1.691-.344,3.342,3.342,0,0,1,2.289.73,2.635,2.635,0,0,1,.859,2.012v3.891a4.757,4.757,0,0,0,.3,1.852V39Zm-2.4-1.1a2.54,2.54,0,0,0,1.289-.352,2.127,2.127,0,0,0,.883-.914V34.9H44.816q-2.656,0-2.656,1.555a1.316,1.316,0,0,0,.453,1.063A1.742,1.742,0,0,0,43.777,37.9Zm8.531-1.016,1.969-6.336h1.547l-3.4,9.758q-.789,2.109-2.508,2.109l-.273-.023-.539-.1V41.117l.391.031a1.923,1.923,0,0,0,1.145-.3,2.148,2.148,0,0,0,.676-1.086l.32-.859-3.016-8.359H50.2Zm4.3-2.187a4.993,4.993,0,0,1,.488-2.234,3.643,3.643,0,0,1,1.359-1.531,3.7,3.7,0,0,1,1.988-.539,3.565,3.565,0,0,1,2.793,1.2,4.6,4.6,0,0,1,1.066,3.18v.1a5.036,5.036,0,0,1-.473,2.215,3.589,3.589,0,0,1-1.352,1.527,3.743,3.743,0,0,1-2.02.547,3.556,3.556,0,0,1-2.785-1.2A4.575,4.575,0,0,1,56.613,34.8Zm1.453.172a3.616,3.616,0,0,0,.652,2.258,2.211,2.211,0,0,0,3.5-.012,3.955,3.955,0,0,0,.648-2.418,3.61,3.61,0,0,0-.66-2.254,2.1,2.1,0,0,0-1.754-.863,2.075,2.075,0,0,0-1.727.852A3.925,3.925,0,0,0,58.066,34.867Zm12.141-3.023a4.331,4.331,0,0,0-.711-.055A1.9,1.9,0,0,0,67.566,33v6H66.121V30.547h1.406l.023.977a2.251,2.251,0,0,1,2.016-1.133,1.477,1.477,0,0,1,.641.109Zm6,7.156V31.664H74.871V30.547h1.336V29.68a2.878,2.878,0,0,1,.727-2.1,2.745,2.745,0,0,1,2.055-.742,3.816,3.816,0,0,1,.992.132L79.9,28.133a4.151,4.151,0,0,0-.781-.07,1.41,1.41,0,0,0-1.086.411,1.669,1.669,0,0,0-.383,1.18v.893h1.8v1.117h-1.8V39Zm8.93-7.156a4.331,4.331,0,0,0-.711-.055A1.9,1.9,0,0,0,82.5,33v6H81.051V30.547h1.406l.023.977A2.251,2.251,0,0,1,84.5,30.391a1.477,1.477,0,0,1,.641.109Zm4.688,7.313a3.693,3.693,0,0,1-2.8-1.129,4.19,4.19,0,0,1-1.078-3.02v-.266a5.073,5.073,0,0,1,.48-2.246,3.748,3.748,0,0,1,1.344-1.547,3.378,3.378,0,0,1,1.871-.559,3.166,3.166,0,0,1,2.563,1.086,4.7,4.7,0,0,1,.914,3.109v.6H87.395a3,3,0,0,0,.73,2.02,2.3,2.3,0,0,0,1.777.77,2.517,2.517,0,0,0,1.3-.312,3.259,3.259,0,0,0,.93-.828l.883.688A3.55,3.55,0,0,1,89.824,39.156Zm-.18-7.578a1.928,1.928,0,0,0-1.469.637A3.1,3.1,0,0,0,87.441,34h4.234v-.109a2.753,2.753,0,0,0-.594-1.707A1.815,1.815,0,0,0,89.645,31.578Zm8.539,6.4a2.082,2.082,0,0,0,1.352-.469,1.649,1.649,0,0,0,.641-1.172h1.367a2.621,2.621,0,0,1-.5,1.383,3.293,3.293,0,0,1-1.23,1.047,3.55,3.55,0,0,1-1.629.391A3.482,3.482,0,0,1,95.438,38a4.59,4.59,0,0,1-1.02-3.152v-.242a5.089,5.089,0,0,1,.453-2.2,3.451,3.451,0,0,1,1.3-1.492,3.7,3.7,0,0,1,2-.531,3.39,3.39,0,0,1,2.363.852,3.043,3.043,0,0,1,1,2.211h-1.367a1.992,1.992,0,0,0-.621-1.348,1.932,1.932,0,0,0-1.379-.527,2.023,2.023,0,0,0-1.707.793,3.724,3.724,0,0,0-.605,2.293v.273a3.65,3.65,0,0,0,.6,2.25A2.033,2.033,0,0,0,98.184,37.977Zm10.2.188a3.07,3.07,0,0,1-2.477.992,2.628,2.628,0,0,1-2.059-.785,3.4,3.4,0,0,1-.715-2.324v-5.5h1.445v5.461q0,1.922,1.563,1.922a2.163,2.163,0,0,0,2.2-1.234V30.547h1.445V39h-1.375Zm7.109.992a3.693,3.693,0,0,1-2.8-1.129,4.19,4.19,0,0,1-1.078-3.02v-.266a5.073,5.073,0,0,1,.48-2.246,3.748,3.748,0,0,1,1.344-1.547,3.378,3.378,0,0,1,1.871-.559,3.166,3.166,0,0,1,2.563,1.086,4.7,4.7,0,0,1,.914,3.109v.6h-5.727a3,3,0,0,0,.73,2.02,2.3,2.3,0,0,0,1.777.77,2.517,2.517,0,0,0,1.3-.312,3.259,3.259,0,0,0,.93-.828l.883.688A3.55,3.55,0,0,1,115.5,39.156Zm-.18-7.578a1.928,1.928,0,0,0-1.469.637A3.1,3.1,0,0,0,113.113,34h4.234v-.109a2.753,2.753,0,0,0-.594-1.707A1.815,1.815,0,0,0,115.316,31.578Zm6.516-1.031.047,1.063a3.08,3.08,0,0,1,2.531-1.219q2.68,0,2.7,3.023V39h-1.445V33.406a1.946,1.946,0,0,0-.418-1.352,1.675,1.675,0,0,0-1.277-.437,2.086,2.086,0,0,0-1.234.375,2.546,2.546,0,0,0-.828.984V39h-1.445V30.547Zm10.852,7.43a2.082,2.082,0,0,0,1.352-.469,1.649,1.649,0,0,0,.641-1.172h1.367a2.621,2.621,0,0,1-.5,1.383,3.293,3.293,0,0,1-1.23,1.047,3.55,3.55,0,0,1-1.629.391A3.482,3.482,0,0,1,129.938,38a4.59,4.59,0,0,1-1.02-3.152v-.242a5.089,5.089,0,0,1,.453-2.2,3.451,3.451,0,0,1,1.3-1.492,3.7,3.7,0,0,1,2-.531,3.39,3.39,0,0,1,2.363.852,3.043,3.043,0,0,1,1,2.211h-1.367a1.992,1.992,0,0,0-.621-1.348,1.932,1.932,0,0,0-1.379-.527,2.023,2.023,0,0,0-1.707.793,3.724,3.724,0,0,0-.605,2.293v.273a3.65,3.65,0,0,0,.6,2.25A2.033,2.033,0,0,0,132.684,37.977ZM139.238,39h-1.445V30.547h1.445Zm-1.562-10.7a.863.863,0,0,1,.215-.594.807.807,0,0,1,.637-.242.819.819,0,0,1,.641.242.854.854,0,0,1,.219.594.826.826,0,0,1-.219.586.834.834,0,0,1-.641.234.821.821,0,0,1-.637-.234A.834.834,0,0,1,137.676,28.3ZM146.77,39a3.036,3.036,0,0,1-.2-.891,3.225,3.225,0,0,1-2.406,1.047,2.984,2.984,0,0,1-2.051-.707,2.287,2.287,0,0,1-.8-1.793,2.39,2.39,0,0,1,1-2.051,4.733,4.733,0,0,1,2.824-.73h1.406v-.664A1.623,1.623,0,0,0,146.09,32a1.821,1.821,0,0,0-1.336-.449,2.107,2.107,0,0,0-1.3.391,1.151,1.151,0,0,0-.523.945H141.48a2,2,0,0,1,.449-1.223,3.066,3.066,0,0,1,1.219-.934,4.1,4.1,0,0,1,1.691-.344,3.342,3.342,0,0,1,2.289.73,2.635,2.635,0,0,1,.859,2.012v3.891a4.757,4.757,0,0,0,.3,1.852V39Zm-2.4-1.1a2.54,2.54,0,0,0,1.289-.352,2.127,2.127,0,0,0,.883-.914V34.9H145.41q-2.656,0-2.656,1.555a1.316,1.316,0,0,0,.453,1.063A1.742,1.742,0,0,0,144.371,37.9Z" transform="translate(689.051 2438.369)" fill="#12263f"/>
        <path id="Trazado_979532" data-name="Trazado 979532" d="M8.488,12.18l2.578-8.555h2.609L9.715,15H7.27L3.324,3.625h2.6Z" transform="translate(337.051 2212.151)" fill="#12263f"/>
        <path id="Trazado_979535" data-name="Trazado 979535" d="M13.129,5.523H9.645V15H7.3V5.523H3.863v-1.9h9.266Z" transform="translate(594.564 2304.208)" fill="#12263f"/>
        <g id="Grupo_1112954" data-name="Grupo 1112954" transform="translate(-60.5 1011.337)">
          <line id="Línea_563" data-name="Línea 563" x2="251.412" transform="translate(397.551 1303.5)" fill="none" stroke="#12263f" stroke-width="4"/>
          <path id="Trazado_979065" data-name="Trazado 979065" d="M-543.5-10296.881l8.371-7.443-8.371-8.4" transform="translate(1188.277 11608)" fill="none" stroke="#12263f" stroke-linecap="round" stroke-width="4"/>
        </g>
        <g id="Grupo_1112968" data-name="Grupo 1112968" transform="translate(337.051 2427.188) rotate(-90)">
          <line id="Línea_563-2" data-name="Línea 563" x2="93.313" transform="translate(91.688 7.619)" fill="none" stroke="#12263f" stroke-width="4"/>
          <path id="Trazado_979065-2" data-name="Trazado 979065" d="M0,0,8.371,7.443,0,15.848" transform="translate(180.814)" fill="none" stroke="#12263f" stroke-linecap="round" stroke-width="4"/>
        </g>
        <path id="Trazado_979066" data-name="Trazado 979066" d="M-450.98-10305.629s6.876-44.174,23.255-34.252,20.944,73.938,42.263,73.938,23.939-73.937,43.013-73.937,20.869,65.375,33.281,73.938,16.367-39.686,16.367-39.686" transform="translate(799.551 12619.337)" fill="none" stroke="#68d5e9" stroke-width="3"/>
        <path id="Trazado_979070" data-name="Trazado 979070" d="M-469.71-10336.327c18.635,11.658,25.072,71.942,43.033,69.513s23.8-73.161,43.489-73.161,17.714,70.731,35.264,73.161,34.938-63.44,34.938-63.44" transform="translate(815.051 12619.338)" fill="none" stroke="#ea2025" stroke-width="3" stroke-dasharray="7"/>
        <path id="Trazado_979531" data-name="Trazado 979531" d="M8.488,12.18l2.578-8.555h2.609L9.715,15H7.27L3.324,3.625h2.6Z" transform="translate(337.051 2368.412)" fill="#12263f"/>
        <path id="Trazado_979536" data-name="Trazado 979536" d="M13.129,5.523H9.645V15H7.3V5.523H3.863v-1.9h9.266Z" transform="translate(594.564 2456.717)" fill="#12263f"/>
        <g id="Grupo_1112954-2" data-name="Grupo 1112954" transform="translate(-60.5 1164.598)">
          <line id="Línea_563-3" data-name="Línea 563" x2="253.328" transform="translate(397.551 1303.5)" fill="none" stroke="#12263f" stroke-width="4"/>
          <path id="Trazado_979065-3" data-name="Trazado 979065" d="M-543.5-10296.881l8.371-7.443-8.371-8.4" transform="translate(1190.193 11608)" fill="none" stroke="#12263f" stroke-linecap="round" stroke-width="4"/>
        </g>
        <g id="Grupo_1112968-2" data-name="Grupo 1112968" transform="translate(337.051 2580.448) rotate(-90)">
          <line id="Línea_563-4" data-name="Línea 563" x2="93.313" transform="translate(91.688 7.619)" fill="none" stroke="#12263f" stroke-width="4"/>
          <path id="Trazado_979065-4" data-name="Trazado 979065" d="M0,0,8.371,7.443,0,15.848" transform="translate(180.814)" fill="none" stroke="#12263f" stroke-linecap="round" stroke-width="4"/>
        </g>
        <path id="Trazado_979530" data-name="Trazado 979530" d="M8.488,12.18l2.578-8.555h2.609L9.715,15H7.27L3.324,3.625h2.6Z" transform="translate(332.352 2519.412)" fill="#12263f"/>
        <path id="Trazado_979537" data-name="Trazado 979537" d="M13.129,5.523H9.645V15H7.3V5.523H3.863v-1.9h9.266Z" transform="translate(592.648 2612.577)" fill="#12263f"/>
        <g id="Grupo_1112954-3" data-name="Grupo 1112954" transform="translate(-65.199 1317.306)">
          <line id="Línea_563-5" data-name="Línea 563" x2="256.111" transform="translate(397.551 1303.5)" fill="none" stroke="#12263f" stroke-width="4"/>
          <path id="Trazado_979065-5" data-name="Trazado 979065" d="M-543.5-10296.881l8.371-7.443-8.371-8.4" transform="translate(1192.977 11608)" fill="none" stroke="#12263f" stroke-linecap="round" stroke-width="4"/>
        </g>
        <g id="Grupo_1112968-3" data-name="Grupo 1112968" transform="translate(332.352 2733.156) rotate(-90)">
          <line id="Línea_563-6" data-name="Línea 563" x2="93.313" transform="translate(91.688 7.619)" fill="none" stroke="#12263f" stroke-width="4"/>
          <path id="Trazado_979065-6" data-name="Trazado 979065" d="M0,0,8.371,7.443,0,15.848" transform="translate(180.814)" fill="none" stroke="#12263f" stroke-linecap="round" stroke-width="4"/>
        </g>
        <path id="Trazado_979533" data-name="Trazado 979533" d="M8.488,12.18l2.578-8.555h2.609L9.715,15H7.27L3.324,3.625h2.6Z" transform="translate(337.051 2063)" fill="#12263f"/>
        <path id="Trazado_979534" data-name="Trazado 979534" d="M13.129,5.523H9.645V15H7.3V5.523H3.863v-1.9h9.266Z" transform="translate(598.564 2155.057)" fill="#12263f"/>
        <g id="Grupo_1112954-4" data-name="Grupo 1112954" transform="translate(-60.5 862.186)">
          <line id="Línea_563-7" data-name="Línea 563" x2="251.412" transform="translate(397.551 1303.5)" fill="none" stroke="#12263f" stroke-width="4"/>
          <path id="Trazado_979065-7" data-name="Trazado 979065" d="M-543.5-10296.881l8.371-7.443-8.371-8.4" transform="translate(1188.277 11608)" fill="none" stroke="#12263f" stroke-linecap="round" stroke-width="4"/>
        </g>
        <g id="Grupo_1112968-4" data-name="Grupo 1112968" transform="translate(337.051 2278.036) rotate(-90)">
          <line id="Línea_563-8" data-name="Línea 563" x2="93.313" transform="translate(91.688 7.619)" fill="none" stroke="#12263f" stroke-width="4"/>
          <path id="Trazado_979065-8" data-name="Trazado 979065" d="M0,0,8.371,7.443,0,15.848" transform="translate(180.814)" fill="none" stroke="#12263f" stroke-linecap="round" stroke-width="4"/>
        </g>
        <line id="Línea_564" data-name="Línea 564" y2="508" transform="translate(380.551 2164.5)" fill="none" stroke="#12263f" stroke-width="2" stroke-dasharray="10"/>
        <line id="Línea_565" data-name="Línea 565" y2="508" transform="translate(414.551 2164.5)" fill="none" stroke="#12263f" stroke-width="2" stroke-dasharray="10"/>
        <line id="Línea_566" data-name="Línea 566" y2="508" transform="translate(453.551 2164.5)" fill="none" stroke="#12263f" stroke-width="2" stroke-dasharray="10"/>
        <line id="Línea_567" data-name="Línea 567" y2="508" transform="translate(487.551 2164.5)" fill="none" stroke="#12263f" stroke-width="2" stroke-dasharray="10"/>
        <line id="Línea_568" data-name="Línea 568" y2="508" transform="translate(526.551 2164.5)" fill="none" stroke="#12263f" stroke-width="2" stroke-dasharray="10"/>
        <path id="Trazado_979071" data-name="Trazado 979071" d="M-781.076-9443.5s3.337-39.542,6.693-30.615,2.865,66.322,6.73,66.322,4.165-66.322,8.732-66.322,4.613,66.322,9.539,66.322,5.612-66.322,10.166-66.322,3.705,66.322,8.049,66.322,4.479-66.322,9.326-66.322,5.444,66.322,10.061,66.322,4.063-65.584,8.406-66.322,4.47,63.371,8.965,63.371,4.643-64.109,9.016-63.371,3.925,66.322,8.475,66.322,5.075-65.584,9.723-66.322,4.272,63.371,8.867,63.371,4.724-63.371,9.512-63.371,4.477,63.371,9.641,63.371,6.751-64.109,11.016-63.371,1.492,66.322,6.041,66.322,7.121-65.584,12.154-66.322,4.668,55.717,7.98,63.371,5.268-32.756,5.268-32.756" transform="translate(1126.051 11608)" fill="none" stroke="#68d5e9" stroke-width="3"/>
        <path id="Trazado_979072" data-name="Trazado 979072" d="M-783.506-9144.252s2.017-41.287,5.8-32.484,4.6,68.418,9.348,67.7,5.118-70.58,9.629-70.58,2.663,69.859,8.416,70.58,1.463-67.848,14.6-67.7,12.332,67.7,19.771,67.7,4.826-67.7,9.986-67.7,6.085,67.7,10.656,67.7,3.649-67.7,7.629-67.7,1.866,68.418,8.289,67.7,7.727-70.58,17.4-70.58,12.264,70.58,21.307,70.58,5.883-71.15,14.863-70.58,13.128,72.139,21.059,72.859,5.575-68.889,10.662-69.977,4.9,65.625,9.686,65.625,4.938-66.143,9.461-65.625,5.257,58.682,8.629,67.7,4.859-31.633,4.859-31.633" transform="translate(1126.051 11608)" fill="none" stroke="#68d5e9" stroke-width="3"/>
        <path id="Trazado_979073" data-name="Trazado 979073" d="M-785.775-8987.5s1.311-42.792,4.885-34.44,4.521,67.848,9.412,67.848,5.375-67.848,10.15-67.848,5.564,59.237,8.949,67.848,4.59-33.407,4.59-33.407,2.943,42.018,6.758,33.407,4.119-67.848,8.5-67.848,4.3,67.848,9.023,67.848,5.879-59.5,9.852-67.848,3.258,33.83,6.039,34.44,2.021-40.862,5.084-32,2.567,67.459,7.166,67.459,6.73-66.4,11.23-67.459,3.851,55.229,6.771,63.229,2.237-32.289,4.912-31.231,2.171,44.072,5.787,35.462,4.443-69.9,8.678-69.9,3.768,69.291,8.262,69.9,4.421-67.459,9.713-67.459,6.535,67.459,11.455,67.459,3.951-66.945,8.225-67.459,4.6,66.016,8.869,65.4,4.289-59.5,8.189-67.848,4.563,34.44,7.412,34.44.748-42.792,3.984-34.44,4.164,67.236,8.963,67.848,5.7-65.4,10.234-65.4,4.273,57.405,7.887,65.4,6.568-33.407,6.568-33.407" transform="translate(1126.051 11608)" fill="none" stroke="#68d5e9" stroke-width="3"/>
        <circle id="Elipse_11573" data-name="Elipse 11573" cx="5.5" cy="5.5" r="5.5" transform="translate(375.051 2616)" fill="#ea2025"/>
        <circle id="Elipse_11574" data-name="Elipse 11574" cx="5.5" cy="5.5" r="5.5" transform="translate(408.051 2616)" fill="#ea2025"/>
        <circle id="Elipse_11575" data-name="Elipse 11575" cx="5.5" cy="5.5" r="5.5" transform="translate(447.051 2616)" fill="#ea2025"/>
        <circle id="Elipse_11576" data-name="Elipse 11576" cx="5.5" cy="5.5" r="5.5" transform="translate(522.051 2616)" fill="#ea2025"/>
        <circle id="Elipse_11577" data-name="Elipse 11577" cx="5.5" cy="5.5" r="5.5" transform="translate(522.051 2462)" fill="#ea2025"/>
        <circle id="Elipse_11578" data-name="Elipse 11578" cx="5.5" cy="5.5" r="5.5" transform="translate(449.051 2462)" fill="#ea2025"/>
        <circle id="Elipse_11579" data-name="Elipse 11579" cx="5.5" cy="5.5" r="5.5" transform="translate(408.051 2462)" fill="#ea2025"/>
        <circle id="Elipse_11580" data-name="Elipse 11580" cx="5.5" cy="5.5" r="5.5" transform="translate(375.051 2462)" fill="#ea2025"/>
        <path id="Trazado_979074" data-name="Trazado 979074" d="M-668-9027.238l225.172-135.309L-687.5-9288.82" transform="translate(1126.051 11608)" fill="none" stroke="#ea2025" stroke-width="3"/>
        <path id="Trazado_979075" data-name="Trazado 979075" d="M-661.2-9324.987-436.729-9266l-220.141,87.2" transform="translate(1126.051 11608)" fill="none" stroke="#68d5e9" stroke-width="3"/>
      </g>
    </g>
  </g>
</svg>
