<svg xmlns="http://www.w3.org/2000/svg" xmlns:xlink="http://www.w3.org/1999/xlink" width="108.914" height="108.914" viewBox="0 0 108.914 108.914">
  <defs>
    <filter id="Trazado_874925" x="0" y="0" width="108.914" height="108.914" filterUnits="userSpaceOnUse">
      <feOffset dy="3" input="SourceAlpha"/>
      <feGaussianBlur stdDeviation="3" result="blur"/>
      <feFlood flood-opacity="0.161"/>
      <feComposite operator="in" in2="blur"/>
      <feComposite in="SourceGraphic"/>
    </filter>
  </defs>
  <g id="Grupo_1113090" data-name="Grupo 1113090" transform="translate(-791.084 -1993)">
    <g id="Grupo_1113088" data-name="Grupo 1113088">
      <g transform="matrix(1, 0, 0, 1, 791.08, 1993)" filter="url(#Trazado_874925)">
        <g id="Trazado_874925-2" data-name="Trazado 874925" transform="translate(9 6)" fill="#68d5e9" opacity="0.859">
          <path d="M 45.45676803588867 89.41407012939453 C 39.52198028564453 89.41407012939453 33.76551818847656 88.25206756591797 28.34726715087891 85.96034240722656 C 23.11311721801758 83.74648284912109 18.41204261779785 80.57682800292969 14.37464332580566 76.5394287109375 C 10.33724308013916 72.50202941894531 7.167593002319336 67.80095672607422 4.953730583190918 62.56679534912109 C 2.662005424499512 57.14855575561523 1.500005483627319 51.39208221435547 1.500005483627319 45.45729446411133 C 1.500005483627319 39.52198028564453 2.662005424499512 33.76551818847656 4.953730583190918 28.34726905822754 C 7.167593002319336 23.11310577392578 10.33724308013916 18.41203117370605 14.37464332580566 14.37464332580566 C 18.41204261779785 10.33724403381348 23.11311721801758 7.167593955993652 28.34726715087891 4.953731060028076 C 33.76551818847656 2.662006139755249 39.52198028564453 1.500006198883057 45.45676803588867 1.500006198883057 C 51.39155578613281 1.500006198883057 57.14802932739258 2.662006139755249 62.56626892089844 4.953731060028076 C 67.80043029785156 7.167593955993652 72.50150299072266 10.33724403381348 76.53890228271484 14.37464332580566 C 80.57630920410156 18.41203117370605 83.74595642089844 23.11310577392578 85.95981597900391 28.34726905822754 C 88.25154113769531 33.76551818847656 89.41354370117188 39.52198028564453 89.41354370117188 45.45676803588867 C 89.41354370117188 51.39208221435547 88.25154113769531 57.14855575561523 85.95981597900391 62.56679534912109 C 83.74595642089844 67.80095672607422 80.57630920410156 72.50202941894531 76.53890228271484 76.5394287109375 C 72.50150299072266 80.57682800292969 67.80043029785156 83.74648284912109 62.56626892089844 85.96034240722656 C 57.14802932739258 88.25206756591797 51.39155578613281 89.41407012939453 45.45676803588867 89.41407012939453 Z" stroke="none"/>
          <path d="M 45.45676803588867 3 C 39.72381210327148 3 34.1639404296875 4.12213134765625 28.93159484863281 6.335227966308594 C 23.87622833251953 8.473472595214844 19.33542633056641 11.53517150878906 15.43529510498047 15.435302734375 C 11.53517150878906 19.33543395996094 8.473464965820312 23.87622833251953 6.335227966308594 28.93160247802734 C 4.122123718261719 34.16394424438477 3 39.72381591796875 3 45.4572868347168 C 3 51.19024658203125 4.122123718261719 56.75011825561523 6.335227966308594 61.98246002197266 C 8.473464965820312 67.03782653808594 11.53517150878906 71.57862854003906 15.43529510498047 75.478759765625 C 19.33542633056641 79.37889099121094 23.87622833251953 82.44058990478516 28.93159484863281 84.57883453369141 C 34.1639404296875 86.79193115234375 39.72381210327148 87.9140625 45.45676803588867 87.9140625 C 51.18972396850586 87.9140625 56.74959564208984 86.79193115234375 61.98194122314453 84.57883453369141 C 67.03730773925781 82.44058990478516 71.57810974121094 79.37889099121094 75.47824096679688 75.478759765625 C 79.37837219238281 71.57862854003906 82.44007110595703 67.03782653808594 84.57830810546875 61.98246002197266 C 86.79141235351562 56.75011825561523 87.91353607177734 51.19024658203125 87.91353607177734 45.4567756652832 C 87.91353607177734 39.72381591796875 86.79141235351562 34.16394424438477 84.57830810546875 28.93160247802734 C 82.44007110595703 23.87622833251953 79.37837219238281 19.33543395996094 75.47824096679688 15.435302734375 C 71.57810974121094 11.53517150878906 67.03730773925781 8.473472595214844 61.98194122314453 6.335227966308594 C 56.74959564208984 4.12213134765625 51.18972396850586 3 45.45676803588867 3 M 45.45676803588867 0 C 70.56185150146484 0 90.91353607177734 20.35169219970703 90.91353607177734 45.4567756652832 L 90.91353607177734 45.4572868347168 C 90.91353607177734 70.5623779296875 70.56185150146484 90.9140625 45.45676803588867 90.9140625 C 20.3516845703125 90.9140625 0 70.5623779296875 0 45.4572868347168 L 0 45.4567756652832 C 0 20.35169219970703 20.3516845703125 0 45.45676803588867 0 Z" stroke="none" fill="#fff"/>
        </g>
      </g>
    </g>
    <g id="boca" transform="translate(814.085 1969.425)">
      <path id="Trazado_979339" data-name="Trazado 979339" d="M42.456,87.148h0A51.994,51.994,0,0,0,69.178,74.167h0L54.9,60.334a11.145,11.145,0,0,0-13.315-1.654l-3.193,1.838L35.2,58.681a11.144,11.144,0,0,0-13.315,1.654L7.6,74.167h0A51.993,51.993,0,0,0,34.326,87.148h0A25.123,25.123,0,0,0,42.456,87.148Z" transform="translate(-6.662 -6.674)" fill="#f26464"/>
      <path id="Trazado_979340" data-name="Trazado 979340" d="M40.176,87.159h0C30.2,85.523,18.96,81.011,11.5,74.177h0S25.394,58.045,32.564,57.6a11.145,11.145,0,0,0-10.681,2.748L7.6,74.177h0A51.993,51.993,0,0,0,34.326,87.159h0a25.127,25.127,0,0,0,6.99.159Q40.745,87.251,40.176,87.159Z" transform="translate(-6.662 -6.685)" fill="#dd5757"/>
      <path id="Trazado_979341" data-name="Trazado 979341" d="M149.01,168.979a50.254,50.254,0,0,1,26.521,0A50.256,50.256,0,0,1,149.01,168.979Z" transform="translate(-130.542 -103.044)" fill="#3c4a5e"/>
      <g id="Grupo_1113089" data-name="Grupo 1113089" transform="translate(26.034 54.39)">
        <ellipse id="Elipse_11585" data-name="Elipse 11585" cx="2.808" cy="1.872" rx="2.808" ry="1.872" transform="translate(13.653 0)" fill="#f78181"/>
        <ellipse id="Elipse_11586" data-name="Elipse 11586" cx="5.695" cy="0.752" rx="5.695" ry="0.752" transform="translate(0 15.246)" fill="#f78181"/>
      </g>
      <path id="Trazado_979342" data-name="Trazado 979342" d="M176.144,407.615a15.978,15.978,0,0,1-22.571,0,.942.942,0,1,0-1.333,1.333,17.865,17.865,0,0,0,25.237,0,.942.942,0,1,0-1.333-1.333Z" transform="translate(-133.13 -313.421)"/>
      <path id="Trazado_979343" data-name="Trazado 979343" d="M184.206,375.649a.942.942,0,0,0,0,1.333,12.186,12.186,0,0,0,8.634,3.588,12.358,12.358,0,0,0,3.822-.608.942.942,0,0,0-.582-1.793,10.326,10.326,0,0,1-10.541-2.52A.943.943,0,0,0,184.206,375.649Z" transform="translate(-161.133 -285.418)"/>
      <path id="Trazado_979344" data-name="Trazado 979344" d="M302.878,378.415a.938.938,0,0,0,.553-.18,12.327,12.327,0,0,0,1.467-1.253.943.943,0,0,0-1.333-1.333,10.4,10.4,0,0,1-1.242,1.061.943.943,0,0,0,.555,1.705Z" transform="translate(-264.513 -285.417)"/>
      <path id="Trazado_979345" data-name="Trazado 979345" d="M225.562,345.016a.942.942,0,1,0-1.333-1.333,4.754,4.754,0,0,1-6.723,0,.942.942,0,1,0-1.333,1.333,6.639,6.639,0,0,0,9.389,0Z" transform="translate(-189.138 -257.414)"/>
      <path id="Trazado_979346" data-name="Trazado 979346" d="M45.839,161.878a51.146,51.146,0,0,1-10.2,2.781,24.139,24.139,0,0,1-7.825,0A50.912,50.912,0,0,1,2.323,152.582l4.367-4.23a.943.943,0,0,0,.021-1.333h0A.942.942,0,0,0,5.378,147L.286,151.931A.942.942,0,0,0,.3,153.3a52.8,52.8,0,0,0,27.207,13.217,26.017,26.017,0,0,0,8.434,0,53.028,53.028,0,0,0,10.608-2.9.943.943,0,0,0,.485-1.332A.965.965,0,0,0,45.839,161.878Z" transform="translate(0 -85.115)"/>
      <path id="Trazado_979347" data-name="Trazado 979347" d="M120.437,66.816,106.158,52.983A12.087,12.087,0,0,0,91.717,51.19l-2.723,1.568L86.271,51.19A12.087,12.087,0,0,0,71.83,52.983l-6.177,5.984a.942.942,0,0,0,1.312,1.354l6.177-5.984a10.246,10.246,0,0,1,12.189-1.514l3.193,1.838a.943.943,0,0,0,.94,0l3.193-1.838a10.246,10.246,0,0,1,12.189,1.514L118.4,67.467a50.993,50.993,0,0,1-12.024,7.895.942.942,0,1,0,.8,1.706,52.881,52.881,0,0,0,13.239-8.88.942.942,0,0,0,.019-1.371Z" transform="translate(-57.265 0)"/>
      <path id="Trazado_979348" data-name="Trazado 979348" d="M155.607,165.05a51.2,51.2,0,0,0,13.509-1.813.942.942,0,0,0,0-1.818,51.23,51.23,0,0,0-27.019,0,.942.942,0,0,0,0,1.818A51.206,51.206,0,0,0,155.607,165.05Zm9.054-2.722a49.357,49.357,0,0,1-18.109,0A49.356,49.356,0,0,1,164.661,162.328Z" transform="translate(-123.879 -96.393)"/>
    </g>
  </g>
</svg>
