<svg xmlns="http://www.w3.org/2000/svg" xmlns:xlink="http://www.w3.org/1999/xlink" width="108.914" height="108.914" viewBox="0 0 108.914 108.914">
  <defs>
    <filter id="Trazado_874925" x="0" y="0" width="108.914" height="108.914" filterUnits="userSpaceOnUse">
      <feOffset dy="3" input="SourceAlpha"/>
      <feGaussianBlur stdDeviation="3" result="blur"/>
      <feFlood flood-opacity="0.161"/>
      <feComposite operator="in" in2="blur"/>
      <feComposite in="SourceGraphic"/>
    </filter>
  </defs>
  <g id="Grupo_1113109" data-name="Grupo 1113109" transform="translate(-1106.084 -1993)">
    <g transform="matrix(1, 0, 0, 1, 1106.08, 1993)" filter="url(#Trazado_874925)">
      <g id="Trazado_874925-2" data-name="Trazado 874925" transform="translate(9 6)" fill="#68d5e9" opacity="0.859">
        <path d="M 45.45676803588867 89.41407012939453 C 39.52198028564453 89.41407012939453 33.76551818847656 88.25206756591797 28.34726715087891 85.96034240722656 C 23.11311721801758 83.74648284912109 18.41204261779785 80.57682800292969 14.37464332580566 76.5394287109375 C 10.33724308013916 72.50202941894531 7.167593002319336 67.80095672607422 4.953730583190918 62.56679534912109 C 2.662005424499512 57.14855575561523 1.500005483627319 51.39208221435547 1.500005483627319 45.45729446411133 C 1.500005483627319 39.52198028564453 2.662005424499512 33.76551818847656 4.953730583190918 28.34726905822754 C 7.167593002319336 23.11310577392578 10.33724308013916 18.41203117370605 14.37464332580566 14.37464332580566 C 18.41204261779785 10.33724403381348 23.11311721801758 7.167593955993652 28.34726715087891 4.953731060028076 C 33.76551818847656 2.662006139755249 39.52198028564453 1.500006198883057 45.45676803588867 1.500006198883057 C 51.39155578613281 1.500006198883057 57.14802932739258 2.662006139755249 62.56626892089844 4.953731060028076 C 67.80043029785156 7.167593955993652 72.50150299072266 10.33724403381348 76.53890228271484 14.37464332580566 C 80.57630920410156 18.41203117370605 83.74595642089844 23.11310577392578 85.95981597900391 28.34726905822754 C 88.25154113769531 33.76551818847656 89.41354370117188 39.52198028564453 89.41354370117188 45.45676803588867 C 89.41354370117188 51.39208221435547 88.25154113769531 57.14855575561523 85.95981597900391 62.56679534912109 C 83.74595642089844 67.80095672607422 80.57630920410156 72.50202941894531 76.53890228271484 76.5394287109375 C 72.50150299072266 80.57682800292969 67.80043029785156 83.74648284912109 62.56626892089844 85.96034240722656 C 57.14802932739258 88.25206756591797 51.39155578613281 89.41407012939453 45.45676803588867 89.41407012939453 Z" stroke="none"/>
        <path d="M 45.45676803588867 3 C 39.72381210327148 3 34.1639404296875 4.12213134765625 28.93159484863281 6.335227966308594 C 23.87622833251953 8.473472595214844 19.33542633056641 11.53517150878906 15.43529510498047 15.435302734375 C 11.53517150878906 19.33543395996094 8.473464965820312 23.87622833251953 6.335227966308594 28.93160247802734 C 4.122123718261719 34.16394424438477 3 39.72381591796875 3 45.4572868347168 C 3 51.19024658203125 4.122123718261719 56.75011825561523 6.335227966308594 61.98246002197266 C 8.473464965820312 67.03782653808594 11.53517150878906 71.57862854003906 15.43529510498047 75.478759765625 C 19.33542633056641 79.37889099121094 23.87622833251953 82.44058990478516 28.93159484863281 84.57883453369141 C 34.1639404296875 86.79193115234375 39.72381210327148 87.9140625 45.45676803588867 87.9140625 C 51.18972396850586 87.9140625 56.74959564208984 86.79193115234375 61.98194122314453 84.57883453369141 C 67.03730773925781 82.44058990478516 71.57810974121094 79.37889099121094 75.47824096679688 75.478759765625 C 79.37837219238281 71.57862854003906 82.44007110595703 67.03782653808594 84.57830810546875 61.98246002197266 C 86.79141235351562 56.75011825561523 87.91353607177734 51.19024658203125 87.91353607177734 45.4567756652832 C 87.91353607177734 39.72381591796875 86.79141235351562 34.16394424438477 84.57830810546875 28.93160247802734 C 82.44007110595703 23.87622833251953 79.37837219238281 19.33543395996094 75.47824096679688 15.435302734375 C 71.57810974121094 11.53517150878906 67.03730773925781 8.473472595214844 61.98194122314453 6.335227966308594 C 56.74959564208984 4.12213134765625 51.18972396850586 3 45.45676803588867 3 M 45.45676803588867 0 C 70.56185150146484 0 90.91353607177734 20.35169219970703 90.91353607177734 45.4567756652832 L 90.91353607177734 45.4572868347168 C 90.91353607177734 70.5623779296875 70.56185150146484 90.9140625 45.45676803588867 90.9140625 C 20.3516845703125 90.9140625 0 70.5623779296875 0 45.4572868347168 L 0 45.4567756652832 C 0 20.35169219970703 20.3516845703125 0 45.45676803588867 0 Z" stroke="none" fill="#fff"/>
      </g>
    </g>
    <g id="ciudad" transform="translate(1133.084 2009.85)">
      <g id="Grupo_1113107" data-name="Grupo 1113107" transform="translate(0.797 8.947)">
        <path id="Trazado_979349" data-name="Trazado 979349" d="M374.954,33.6l2.11,1.955,2.11-1.955-.834-9.568h-2.552Z" transform="translate(-335.888 -23.142)" fill="#f8f6f6"/>
        <path id="Trazado_979350" data-name="Trazado 979350" d="M377.064,35.559l-2.11-1.955.834-9.568h1.074l-.133,9.568Z" transform="translate(-335.888 -23.143)" fill="#ebebeb"/>
        <path id="Trazado_979351" data-name="Trazado 979351" d="M340.161,114.035h11.618v5.648H340.161Z" transform="translate(-304.794 -103.575)" fill="#ebebeb"/>
        <path id="Trazado_979352" data-name="Trazado 979352" d="M340.161,114.035h2.749v5.648h-2.749Z" transform="translate(-304.794 -103.575)" fill="#e2e2e2"/>
        <path id="Trazado_979353" data-name="Trazado 979353" d="M315.819,150.815h16.794V172H315.819Z" transform="translate(-283.04 -136.445)" fill="#f8f6f6"/>
        <path id="Trazado_979354" data-name="Trazado 979354" d="M315.819,150.815h2.509V172h-2.509Z" transform="translate(-283.04 -136.445)" fill="#ebebeb"/>
        <path id="Trazado_979355" data-name="Trazado 979355" d="M159.109,190.444h20.055v32.522H159.109Z" transform="translate(-142.991 -171.861)" fill="#ebebeb"/>
        <path id="Trazado_979356" data-name="Trazado 979356" d="M159.109,190.444h2.337v32.522h-2.337Z" transform="translate(-142.991 -171.861)" fill="#e2e2e2"/>
        <path id="Trazado_979357" data-name="Trazado 979357" d="M7.5,282.225H25.743V304.99H7.5Z" transform="translate(-7.5 -253.884)" fill="#f8f6f6"/>
        <path id="Trazado_979358" data-name="Trazado 979358" d="M7.5,282.225H9.626V304.99H7.5Z" transform="translate(-7.5 -253.884)" fill="#ebebeb"/>
        <g id="Grupo_1113091" data-name="Grupo 1113091" transform="translate(1.297 0)">
          <path id="Trazado_979359" data-name="Trazado 979359" d="M20.168,36.313a1.589,1.589,0,0,1-.467-1.128A19.558,19.558,0,0,1,39.239,15.648a1.595,1.595,0,0,1,0,3.189A16.368,16.368,0,0,0,22.89,35.185a1.595,1.595,0,0,1-2.722,1.128Z" transform="translate(-19.701 -15.648)" fill="#fe646f"/>
          <path id="Trazado_979360" data-name="Trazado 979360" d="M85.006,94.257a1.589,1.589,0,0,1-.467-1.128A12.644,12.644,0,0,1,97.183,80.485a1.595,1.595,0,0,1,0,3.189,9.455,9.455,0,0,0-9.455,9.455,1.595,1.595,0,0,1-2.722,1.128Z" transform="translate(-77.646 -73.592)" fill="#fe646f"/>
        </g>
        <g id="Grupo_1113092" data-name="Grupo 1113092" transform="translate(3.654 31.594)">
          <path id="Trazado_979361" data-name="Trazado 979361" d="M41.866,312.819H45.26v19.512H41.866Z" transform="translate(-41.866 -312.819)" fill="#8abbd5"/>
          <path id="Trazado_979362" data-name="Trazado 979362" d="M112.8,312.819h3.394v19.512H112.8Z" transform="translate(-105.26 -312.819)" fill="#8abbd5"/>
        </g>
        <g id="Grupo_1113095" data-name="Grupo 1113095" transform="translate(20.975 21.447)">
          <g id="Grupo_1113093" data-name="Grupo 1113093" transform="translate(7.053)">
            <path id="Trazado_979363" data-name="Trazado 979363" d="M271.134,217.379h3.288v5.515h-3.288Z" transform="translate(-271.134 -217.379)" fill="#8abbd5"/>
          </g>
          <g id="Grupo_1113094" data-name="Grupo 1113094">
            <path id="Trazado_979364" data-name="Trazado 979364" d="M204.792,217.379h3.288v5.515h-3.288Z" transform="translate(-204.792 -217.379)" fill="#8abbd5"/>
          </g>
        </g>
        <g id="Grupo_1113098" data-name="Grupo 1113098" transform="translate(20.975 30.674)">
          <g id="Grupo_1113096" data-name="Grupo 1113096" transform="translate(7.053)">
            <path id="Trazado_979365" data-name="Trazado 979365" d="M271.134,304.173h3.288v5.515h-3.288Z" transform="translate(-271.134 -304.173)" fill="#8abbd5"/>
          </g>
          <g id="Grupo_1113097" data-name="Grupo 1113097">
            <path id="Trazado_979366" data-name="Trazado 979366" d="M204.792,304.173h3.288v5.515h-3.288Z" transform="translate(-204.792 -304.173)" fill="#8abbd5"/>
          </g>
        </g>
        <g id="Grupo_1113101" data-name="Grupo 1113101" transform="translate(20.975 39.902)">
          <g id="Grupo_1113099" data-name="Grupo 1113099" transform="translate(7.053)">
            <path id="Trazado_979367" data-name="Trazado 979367" d="M271.134,390.966h3.288v5.515h-3.288Z" transform="translate(-271.134 -390.966)" fill="#8abbd5"/>
          </g>
          <g id="Grupo_1113100" data-name="Grupo 1113100">
            <path id="Trazado_979368" data-name="Trazado 979368" d="M204.792,390.966h3.288v5.515h-3.288Z" transform="translate(-204.792 -390.966)" fill="#8abbd5"/>
          </g>
        </g>
        <path id="Trazado_979369" data-name="Trazado 979369" d="M293.236,334.1H315.7v17.25h-22.46Z" transform="translate(-262.858 -300.245)" fill="#fe646f"/>
        <path id="Trazado_979370" data-name="Trazado 979370" d="M293.236,334.1h2.617v17.25h-2.617Z" transform="translate(-262.858 -300.245)" fill="#fd4755"/>
        <g id="Grupo_1113105" data-name="Grupo 1113105" transform="translate(33.429 37.568)">
          <g id="Grupo_1113102" data-name="Grupo 1113102" transform="translate(6.536)">
            <path id="Trazado_979371" data-name="Trazado 979371" d="M383.4,369.018h3.288v8.167H383.4Z" transform="translate(-383.405 -369.018)" fill="#8abbd5"/>
          </g>
          <g id="Grupo_1113103" data-name="Grupo 1113103" transform="translate(13.071)">
            <path id="Trazado_979372" data-name="Trazado 979372" d="M444.879,369.018h3.288v8.167h-3.288Z" transform="translate(-444.879 -369.018)" fill="#8abbd5"/>
          </g>
          <g id="Grupo_1113104" data-name="Grupo 1113104">
            <path id="Trazado_979373" data-name="Trazado 979373" d="M321.931,369.018h3.288v8.167h-3.288Z" transform="translate(-321.931 -369.018)" fill="#8abbd5"/>
          </g>
        </g>
        <g id="Grupo_1113106" data-name="Grupo 1113106" transform="translate(38.826 19.997)">
          <path id="Trazado_979374" data-name="Trazado 979374" d="M424.9,203.745h2.758V217.6H424.9Z" transform="translate(-419.351 -203.745)" fill="#8abbd5"/>
          <path id="Trazado_979375" data-name="Trazado 979375" d="M372.7,203.745h2.758V217.6H372.7Z" transform="translate(-372.698 -203.745)" fill="#8abbd5"/>
        </g>
      </g>
      <g id="Grupo_1113108" data-name="Grupo 1113108" transform="translate(0 8.15)">
        <path id="Trazado_979376" data-name="Trazado 979376" d="M14.592,30.877a2.4,2.4,0,0,0,2.392-2.392A15.6,15.6,0,0,1,27.958,13.618a.8.8,0,1,0-.468-1.524,17.2,17.2,0,0,0-12.1,16.391.8.8,0,1,1-1.595,0,18.76,18.76,0,0,1,18.74-18.74.8.8,0,1,1,0,1.595c-.4,0-.812.014-1.218.042a.8.8,0,1,0,.11,1.591c.37-.026.743-.038,1.108-.038a2.392,2.392,0,1,0,0-4.784A20.355,20.355,0,0,0,12.2,28.485a2.391,2.391,0,0,0,2.392,2.392Z" transform="translate(-10.903 -8.15)"/>
        <path id="Trazado_979377" data-name="Trazado 979377" d="M90.481,72.985h0A13.442,13.442,0,0,0,77.039,86.427a2.392,2.392,0,0,0,4.784,0,8.658,8.658,0,0,1,8.658-8.658,2.392,2.392,0,1,0,0-4.784Zm0,3.189A10.252,10.252,0,0,0,80.228,86.427a.8.8,0,1,1-1.595,0A11.847,11.847,0,0,1,90.481,74.58a.8.8,0,0,1,0,1.595Z" transform="translate(-68.849 -66.092)"/>
        <path id="Trazado_979378" data-name="Trazado 979378" d="M67.087,450.009a.8.8,0,0,0-.8.8v4.129a.8.8,0,1,0,1.595,0v-4.129A.8.8,0,0,0,67.087,450.009Z" transform="translate(-59.242 -403.033)"/>
        <path id="Trazado_979379" data-name="Trazado 979379" d="M38.561,305.319H35.167a.8.8,0,0,0-.8.8v19.512a.8.8,0,0,0,1.595,0V306.914h1.8V317.78a.8.8,0,1,0,1.595,0V306.116A.8.8,0,0,0,38.561,305.319Z" transform="translate(-30.716 -273.726)"/>
        <path id="Trazado_979380" data-name="Trazado 979380" d="M109.493,305.319H106.1a.8.8,0,0,0-.8.8v19.512a.8.8,0,1,0,1.595,0V306.914h1.8v18.715a.8.8,0,1,0,1.595,0V306.116a.8.8,0,0,0-.8-.8Z" transform="translate(-94.107 -273.726)"/>
        <path id="Trazado_979381" data-name="Trazado 979381" d="M264.431,216.99h3.288a.8.8,0,0,0,.8-.8v-5.515a.8.8,0,0,0-.8-.8h-3.288a.8.8,0,0,0-.8.8v5.515A.8.8,0,0,0,264.431,216.99Zm.8-5.515h1.693v3.92h-1.693Z" transform="translate(-235.606 -188.433)"/>
        <path id="Trazado_979382" data-name="Trazado 979382" d="M201.377,209.879h-3.288a.8.8,0,0,0-.8.8v5.515a.8.8,0,0,0,.8.8h3.288a.8.8,0,0,0,.8-.8v-5.515A.8.8,0,0,0,201.377,209.879Zm-.8,5.515h-1.693v-3.92h1.693Z" transform="translate(-176.317 -188.432)"/>
        <path id="Trazado_979383" data-name="Trazado 979383" d="M201.377,296.673h-3.288a.8.8,0,0,0-.8.8v5.515a.8.8,0,0,0,.8.8h3.288a.8.8,0,0,0,.8-.8V297.47A.8.8,0,0,0,201.377,296.673Zm-.8,5.515h-1.693v-3.92h1.693Z" transform="translate(-176.317 -265.999)"/>
        <path id="Trazado_979384" data-name="Trazado 979384" d="M201.377,383.466h-3.288a.8.8,0,0,0-.8.8v5.515a.8.8,0,0,0,.8.8h3.288a.8.8,0,0,0,.8-.8v-5.515A.8.8,0,0,0,201.377,383.466Zm-.8,5.515h-1.693v-3.92h1.693Z" transform="translate(-176.317 -343.564)"/>
        <path id="Trazado_979385" data-name="Trazado 979385" d="M53.636,49.5H51.167V30.81a.8.8,0,0,0-.8-.8h-1.79V26.9a.8.8,0,0,0-.8-.8H44.814l-.771-8.84a.8.8,0,0,0-.794-.728H40.7a.8.8,0,0,0-.794.728l-.771,8.84H36.164a.8.8,0,0,0-.8.8v3.112H33.576a.8.8,0,0,0-.8.8v3.416H16.916a.8.8,0,0,0-.8.8v8.961H.8a.8.8,0,0,0-.8.8V67.546a.8.8,0,0,0,1.595,0V45.578H18.243V67.546a.8.8,0,0,0,1.595,0V44.781a.8.8,0,0,0-.8-.8H17.713V35.82H36.173V49.5H32.911V47.114a.8.8,0,0,0-.8-.8H28.825a.8.8,0,0,0-.8.8V52.63a.8.8,0,0,0,.8.8h1.553v2.117H28.825a.8.8,0,0,0-.8.8v5.516a.8.8,0,0,0,.8.8h1.553v4.892a.8.8,0,1,0,1.595,0V51.093H52.838V67.546a.8.8,0,1,0,1.595,0V50.3a.8.8,0,0,0-.8-.8ZM41.428,18.129h1.09l.7,7.974h-2.48ZM36.961,27.7H46.985v2.315H36.961Zm.008,6.528h-2.6V31.607h15.2V49.5h-.844V43.37a.8.8,0,0,0-1.595,0V49.5H45.97V37.235h1.163v2.417a.8.8,0,0,0,1.595,0V36.438a.8.8,0,0,0-.8-.8H45.173a.8.8,0,0,0-.8.8V49.5h-1.2V36.437a.8.8,0,0,0-.8-.8H39.623a.8.8,0,0,0-.8.8V49.5H37.767V35.023A.8.8,0,0,0,36.97,34.225ZM29.622,51.832V47.911h1.694V49.5h-.141a.8.8,0,0,0-.8.8v1.536Zm0,9.227V57.138h.755v3.921ZM40.421,49.5V37.235h1.163V49.5H40.421Z" transform="translate(0 -15.643)"/>
        <path id="Trazado_979386" data-name="Trazado 979386" d="M379.99,361.518H376.7a.8.8,0,0,0-.8.8v8.167a.8.8,0,0,0,.8.8h3.288a.8.8,0,0,0,.8-.8v-8.167A.8.8,0,0,0,379.99,361.518Zm-.8,8.167H377.5v-6.572h1.693Z" transform="translate(-335.941 -323.95)"/>
        <path id="Trazado_979387" data-name="Trazado 979387" d="M441.464,361.518h-3.288a.8.8,0,0,0-.8.8v8.167a.8.8,0,0,0,.8.8h3.288a.8.8,0,0,0,.8-.8v-8.167A.8.8,0,0,0,441.464,361.518Zm-.8,8.167h-1.693v-6.572h1.693Z" transform="translate(-390.879 -323.95)"/>
        <path id="Trazado_979388" data-name="Trazado 979388" d="M318.515,361.518h-3.288a.8.8,0,0,0-.8.8v8.167a.8.8,0,0,0,.8.8h3.288a.8.8,0,0,0,.8-.8v-8.167A.8.8,0,0,0,318.515,361.518Zm-.8,8.167h-1.693v-6.572h1.693Z" transform="translate(-281.001 -323.95)"/>
      </g>
    </g>
  </g>
</svg>
