<svg xmlns="http://www.w3.org/2000/svg" xmlns:xlink="http://www.w3.org/1999/xlink" width="108.914" height="108.914" viewBox="0 0 108.914 108.914">
  <defs>
    <filter id="Trazado_874925" x="0" y="0" width="108.914" height="108.914" filterUnits="userSpaceOnUse">
      <feOffset dy="3" input="SourceAlpha"/>
      <feGaussianBlur stdDeviation="3" result="blur"/>
      <feFlood flood-opacity="0.161"/>
      <feComposite operator="in" in2="blur"/>
      <feComposite in="SourceGraphic"/>
    </filter>
  </defs>
  <g id="Grupo_1113115" data-name="Grupo 1113115" transform="translate(6624 9615)">
    <g transform="matrix(1, 0, 0, 1, -6624, -9615)" filter="url(#Trazado_874925)">
      <g id="Trazado_874925-2" data-name="Trazado 874925" transform="translate(9 6)" fill="#68d5e9" opacity="0.859">
        <path d="M 45.45676803588867 89.41407012939453 C 39.52198028564453 89.41407012939453 33.76551818847656 88.25206756591797 28.34726715087891 85.96034240722656 C 23.11311721801758 83.74648284912109 18.41204261779785 80.57682800292969 14.37464332580566 76.5394287109375 C 10.33724308013916 72.50202941894531 7.167593002319336 67.80095672607422 4.953730583190918 62.56679534912109 C 2.662005424499512 57.14855575561523 1.500005483627319 51.39208221435547 1.500005483627319 45.45729446411133 C 1.500005483627319 39.52198028564453 2.662005424499512 33.76551818847656 4.953730583190918 28.34726905822754 C 7.167593002319336 23.11310577392578 10.33724308013916 18.41203117370605 14.37464332580566 14.37464332580566 C 18.41204261779785 10.33724403381348 23.11311721801758 7.167593955993652 28.34726715087891 4.953731060028076 C 33.76551818847656 2.662006139755249 39.52198028564453 1.500006198883057 45.45676803588867 1.500006198883057 C 51.39155578613281 1.500006198883057 57.14802932739258 2.662006139755249 62.56626892089844 4.953731060028076 C 67.80043029785156 7.167593955993652 72.50150299072266 10.33724403381348 76.53890228271484 14.37464332580566 C 80.57630920410156 18.41203117370605 83.74595642089844 23.11310577392578 85.95981597900391 28.34726905822754 C 88.25154113769531 33.76551818847656 89.41354370117188 39.52198028564453 89.41354370117188 45.45676803588867 C 89.41354370117188 51.39208221435547 88.25154113769531 57.14855575561523 85.95981597900391 62.56679534912109 C 83.74595642089844 67.80095672607422 80.57630920410156 72.50202941894531 76.53890228271484 76.5394287109375 C 72.50150299072266 80.57682800292969 67.80043029785156 83.74648284912109 62.56626892089844 85.96034240722656 C 57.14802932739258 88.25206756591797 51.39155578613281 89.41407012939453 45.45676803588867 89.41407012939453 Z" stroke="none"/>
        <path d="M 45.45676803588867 3 C 39.72381210327148 3 34.1639404296875 4.12213134765625 28.93159484863281 6.335227966308594 C 23.87622833251953 8.473472595214844 19.33542633056641 11.53517150878906 15.43529510498047 15.435302734375 C 11.53517150878906 19.33543395996094 8.473464965820312 23.87622833251953 6.335227966308594 28.93160247802734 C 4.122123718261719 34.16394424438477 3 39.72381591796875 3 45.4572868347168 C 3 51.19024658203125 4.122123718261719 56.75011825561523 6.335227966308594 61.98246002197266 C 8.473464965820312 67.03782653808594 11.53517150878906 71.57862854003906 15.43529510498047 75.478759765625 C 19.33542633056641 79.37889099121094 23.87622833251953 82.44058990478516 28.93159484863281 84.57883453369141 C 34.1639404296875 86.79193115234375 39.72381210327148 87.9140625 45.45676803588867 87.9140625 C 51.18972396850586 87.9140625 56.74959564208984 86.79193115234375 61.98194122314453 84.57883453369141 C 67.03730773925781 82.44058990478516 71.57810974121094 79.37889099121094 75.47824096679688 75.478759765625 C 79.37837219238281 71.57862854003906 82.44007110595703 67.03782653808594 84.57830810546875 61.98246002197266 C 86.79141235351562 56.75011825561523 87.91353607177734 51.19024658203125 87.91353607177734 45.4567756652832 C 87.91353607177734 39.72381591796875 86.79141235351562 34.16394424438477 84.57830810546875 28.93160247802734 C 82.44007110595703 23.87622833251953 79.37837219238281 19.33543395996094 75.47824096679688 15.435302734375 C 71.57810974121094 11.53517150878906 67.03730773925781 8.473472595214844 61.98194122314453 6.335227966308594 C 56.74959564208984 4.12213134765625 51.18972396850586 3 45.45676803588867 3 M 45.45676803588867 0 C 70.56185150146484 0 90.91353607177734 20.35169219970703 90.91353607177734 45.4567756652832 L 90.91353607177734 45.4572868347168 C 90.91353607177734 70.5623779296875 70.56185150146484 90.9140625 45.45676803588867 90.9140625 C 20.3516845703125 90.9140625 0 70.5623779296875 0 45.4572868347168 L 0 45.4567756652832 C 0 20.35169219970703 20.3516845703125 0 45.45676803588867 0 Z" stroke="none" fill="#fff"/>
      </g>
    </g>
    <g id="cable" transform="translate(-6600.004 -9593.999)">
      <g id="Grupo_1113113" data-name="Grupo 1113113" transform="translate(8.833 0)">
        <path id="Trazado_979390" data-name="Trazado 979390" d="M9,56.331l11.331-5.666V45L9,50.666Z" transform="translate(-9 -2.508)" fill="gray"/>
        <path id="Trazado_979391" data-name="Trazado 979391" d="M20.331,62.666V57L9,62.666Z" transform="translate(-9 -3.176)" fill="gray"/>
        <g id="Grupo_1113112" data-name="Grupo 1113112" transform="translate(0 25.495)">
          <path id="Trazado_979392" data-name="Trazado 979392" d="M9,62.331l11.331-5.666V51L9,56.666Z" transform="translate(-9 -28.337)" fill="#b3b3b3"/>
          <path id="Trazado_979393" data-name="Trazado 979393" d="M9,50.331l11.331-5.666V39L9,44.666Z" transform="translate(-9 -27.669)" fill="#b3b3b3"/>
          <path id="Trazado_979394" data-name="Trazado 979394" d="M9,32.666v5.666l11.331-5.666V27Z" transform="translate(-9 -27)" fill="#b3b3b3"/>
        </g>
        <path id="Trazado_979395" data-name="Trazado 979395" d="M9,27v5.666L20.331,27Z" transform="translate(-9 -1.505)" fill="gray"/>
        <path id="Trazado_979396" data-name="Trazado 979396" d="M9,44.331l11.331-5.666V33L9,38.666Z" transform="translate(-9 -1.839)" fill="gray"/>
        <path id="Trazado_979397" data-name="Trazado 979397" d="M11,20h7.554v6.61H11Z" transform="translate(-9.111 -1.114)" fill="#f8cc6a"/>
        <path id="Trazado_979398" data-name="Trazado 979398" d="M30,19h3.777v7.554H30Z" transform="translate(-10.17 -1.059)" fill="#b3b3b3"/>
        <path id="Trazado_979399" data-name="Trazado 979399" d="M45,20h9.443v6.61H45Z" transform="translate(-11.006 -1.114)" fill="#6bcddd"/>
        <path id="Trazado_979400" data-name="Trazado 979400" d="M46,0h1.889V18.886H46Z" transform="translate(-11.062)" fill="#ad9e91"/>
        <path id="Trazado_979401" data-name="Trazado 979401" d="M48,0h3.777V18.886H48Z" transform="translate(-11.173)" fill="#998675"/>
        <path id="Trazado_979402" data-name="Trazado 979402" d="M52,0h1.889V18.886H52Z" transform="translate(-11.396)" fill="#ad9e91"/>
        <path id="Trazado_979403" data-name="Trazado 979403" d="M43,27H56.22V60.994H43Z" transform="translate(-10.895 -1.505)" fill="#3fa1c4"/>
        <path id="Trazado_979404" data-name="Trazado 979404" d="M28,27h7.554V60.994H28Z" transform="translate(-10.059 -1.505)" fill="#f4aa06"/>
        <path id="Trazado_979405" data-name="Trazado 979405" d="M56.22,54a10.428,10.428,0,0,1-6.61,2.833A10.428,10.428,0,0,1,43,54v8.5H56.22Z" transform="translate(-10.895 -3.009)" fill="#308fb5"/>
        <path id="Trazado_979406" data-name="Trazado 979406" d="M35.554,54a4.21,4.21,0,0,1-3.777,2.833A4.21,4.21,0,0,1,28,54v8.5h7.554Z" transform="translate(-10.059 -3.009)" fill="#dd9f22"/>
      </g>
      <g id="Grupo_1113114" data-name="Grupo 1113114" transform="translate(6.004 -0.001)">
        <path id="Trazado_979407" data-name="Trazado 979407" d="M56.164,24.774H55.22V19.108a.945.945,0,0,0-.944-.944V4.944a.944.944,0,1,0-1.889,0v13.22H50.5v-6.61a.944.944,0,0,0-1.889,0v6.61H46.721V4.944a.944.944,0,1,0-1.889,0v13.22a.945.945,0,0,0-.944.944v5.666h-.944a.945.945,0,0,0-.944.944V59.712a.945.945,0,0,0,.944.944h13.22a.945.945,0,0,0,.944-.944V25.718A.945.945,0,0,0,56.164,24.774ZM45.777,20.053h7.554v4.721H45.777ZM55.22,58.768H43.889V26.663H55.22Z" transform="translate(-8.01 -0.222)" fill="#252525"/>
        <path id="Trazado_979408" data-name="Trazado 979408" d="M35.5,24.551h-.944v-6.61A.945.945,0,0,0,33.61,17h-.944V.944a.944.944,0,1,0-1.889,0V17h-.944a.945.945,0,0,0-.944.944v6.61h-.944A.945.945,0,0,0,27,25.5V59.489a.945.945,0,0,0,.944.944H35.5a.945.945,0,0,0,.944-.944V25.5A.945.945,0,0,0,35.5,24.551Zm-4.721-5.666h1.889v5.666H30.777Zm3.777,39.66H28.889V26.44h5.666Z" transform="translate(-7.174 0.001)" fill="#252525"/>
        <path id="Trazado_979409" data-name="Trazado 979409" d="M21.385,3.109c-.16.16-3.826,3.97-4.906,14.832H15.46c.188-11.1,3.552-16.4,3.6-16.475A.945.945,0,0,0,17.489.42a20.048,20.048,0,0,0-2.046,4.73V.944a.944.944,0,1,0-1.889,0V5.15A19.976,19.976,0,0,0,11.507.42.944.944,0,0,0,9.935,1.465c.035.054,3.415,5.35,3.6,16.476H12.519C11.438,7.079,7.772,3.269,7.612,3.109a.944.944,0,0,0-1.34,1.33c.034.035,3.325,3.554,4.35,13.521a.935.935,0,0,0-.845.924v5.666H8.833a.945.945,0,0,0-.944.944V59.489a.945.945,0,0,0,.944.944H20.164a.945.945,0,0,0,.944-.944V25.5a.945.945,0,0,0-.944-.944H19.22V18.885a.935.935,0,0,0-.845-.924C19.4,8.034,22.665,4.5,22.725,4.44a.944.944,0,0,0-1.34-1.33ZM16.164,26.44,9.777,29.633V26.44ZM19.22,41.909,9.777,46.63V43.076l9.443-4.721ZM9.777,48.742,19.22,44.02v3.554L9.777,52.3Zm9.443-12.5L9.777,40.965V37.41l9.443-4.721ZM9.777,54.407l9.443-4.721V53.24L9.777,57.961Zm9.443-23.83L9.777,35.3V31.745l9.443-4.721ZM12.833,58.545l6.387-3.194v3.194ZM11.666,24.551V19.83h5.666v4.721Z" transform="translate(-6.004 0.001)" fill="#252525"/>
        <path id="Trazado_979410" data-name="Trazado 979410" d="M31.944,35a.945.945,0,0,0-.944.944V50.108a.944.944,0,0,0,1.889,0V35.944A.945.945,0,0,0,31.944,35Z" transform="translate(-7.397 -1.95)" fill="#252525"/>
        <circle id="Elipse_11587" data-name="Elipse 11587" cx="0.944" cy="0.944" r="0.944" transform="translate(23.603 29.273)" fill="#252525"/>
        <circle id="Elipse_11588" data-name="Elipse 11588" cx="0.944" cy="0.944" r="0.944" transform="translate(40.6 0.001)" fill="#252525"/>
        <circle id="Elipse_11589" data-name="Elipse 11589" cx="0.944" cy="0.944" r="0.944" transform="translate(36.823 0.001)" fill="#252525"/>
        <circle id="Elipse_11590" data-name="Elipse 11590" cx="0.944" cy="0.944" r="0.944" transform="translate(44.377 0.001)" fill="#252525"/>
        <path id="Trazado_979411" data-name="Trazado 979411" d="M46.944,30a.945.945,0,0,0-.944.944V45.108a.944.944,0,0,0,1.889,0V30.944A.945.945,0,0,0,46.944,30Z" transform="translate(-8.232 -1.671)" fill="#252525"/>
        <circle id="Elipse_11591" data-name="Elipse 11591" cx="0.944" cy="0.944" r="0.944" transform="translate(37.768 46.27)" fill="#252525"/>
        <path id="Trazado_979412" data-name="Trazado 979412" d="M49.944,8.721a.945.945,0,0,0,.944-.944V4.944a.944.944,0,0,0-1.889,0V7.777A.945.945,0,0,0,49.944,8.721Z" transform="translate(-8.4 -0.222)" fill="#252525"/>
      </g>
    </g>
  </g>
</svg>
